<?xml version="1.0" encoding="UTF-8" standalone="no"?><!DOCTYPE svg PUBLIC "-//W3C//DTD SVG 1.1//EN" "http://www.w3.org/Graphics/SVG/1.1/DTD/svg11.dtd"><svg width="100%" height="100%" viewBox="0 0 800 300" version="1.1" xmlns="http://www.w3.org/2000/svg" xmlns:xlink="http://www.w3.org/1999/xlink" xml:space="preserve" xmlns:serif="http://www.serif.com/" style="fill-rule:evenodd;clip-rule:evenodd;stroke-linecap:round;stroke-linejoin:round;stroke-miterlimit:13.654;"><rect x="0" y="0" width="800" height="300" style="fill:#fff;"/><g id="Keys"><g><path id="_127" serif:id="127" d="M565.858,236.9l36.981,0c3.328,0 6.006,2.39 6.006,5.366l0,38.25c0,2.976 -2.678,5.376 -6.006,5.376l-36.981,0c-3.328,0 -6.005,-2.4 -6.005,-5.376l0,-38.25c0,-2.976 2.677,-5.366 6.005,-5.366Z" style="fill:#f1f1f1;fill-rule:nonzero;"/><path id="_100" serif:id="100" d="M511.894,236.9l36.981,0c3.328,0 6.005,2.39 6.005,5.366l0,38.25c0,2.976 -2.677,5.376 -6.005,5.376l-36.981,0c-3.328,0 -6.006,-2.4 -6.006,-5.376l0,-38.25c0,-2.976 2.678,-5.366 6.006,-5.366Z" style="fill:#f1f1f1;fill-rule:nonzero;"/><path id="_57" serif:id="57" d="M239.666,236.9l255.327,0c3.282,0 5.923,2.39 5.923,5.366l0,38.25c0,2.976 -2.641,5.376 -5.923,5.376l-255.327,0c-3.283,0 -5.923,-2.4 -5.923,-5.376l0,-38.25c0,-2.976 2.64,-5.366 5.923,-5.366Z" style="fill:#f1f1f1;fill-rule:nonzero;"/><path id="_56" serif:id="56" d="M228.77,242.905c0,-3.314 -2.69,-6.005 -6.004,-6.005l-36.985,0c-3.314,0 -6.005,2.691 -6.005,6.005l0,36.985c0,3.314 2.691,6.004 6.005,6.004l36.985,0c3.314,0 6.004,-2.69 6.004,-6.004l0,-36.985Z" style="fill:#f1f1f1;"/><path id="_125" serif:id="125" d="M131.818,236.9l36.98,0c3.328,0 6.006,2.39 6.006,5.366l0,38.25c0,2.976 -2.678,5.376 -6.006,5.376l-36.98,0c-3.327,0 -6.005,-2.4 -6.005,-5.376l0,-38.25c0,-2.976 2.678,-5.366 6.005,-5.366Z" style="fill:#f1f1f1;fill-rule:nonzero;"/><path id="Fn" d="M77.85,236.9l36.985,0c3.327,0 6.005,2.39 6.005,5.366l0,38.25c0,2.976 -2.678,5.376 -6.005,5.376l-36.985,0c-3.325,0 -6.004,-2.4 -6.004,-5.376l0,-38.25c0,-2.976 2.679,-5.366 6.004,-5.366Z" style="fill:#f1f1f1;fill-rule:nonzero;"/><path id="_29" serif:id="29" d="M11.472,236.9l51.32,0c2.261,0 4.082,2.39 4.082,5.366l0,38.25c0,2.976 -1.821,5.376 -4.082,5.376l-51.32,0c-2.261,0 -4.082,-2.4 -4.082,-5.376l0,-38.25c0,-2.976 1.821,-5.366 4.082,-5.366Z" style="fill:#f1f1f1;fill-rule:nonzero;"/><path id="_54" serif:id="54" d="M675.962,181.199l110.588,0c5.404,0 5.752,2.4 5.752,5.376l0,38.251c0,2.976 -0.348,5.365 -5.752,5.365l-110.588,0c-5.404,0 -5.752,-2.389 -5.752,-5.365l0,-38.251c0,-2.976 0.348,-5.376 5.752,-5.376Z" style="fill:#f1f1f1;fill-rule:nonzero;"/><path id="_86" serif:id="86" d="M77.515,181.199l36.984,0c3.327,0 6.006,2.4 6.006,5.376l0,38.251c0,2.976 -2.679,5.365 -6.006,5.365l-36.984,0c-3.326,0 -6.004,-2.389 -6.004,-5.365l0,-38.251c0,-2.976 2.678,-5.376 6.004,-5.376Z" style="fill:#f1f1f1;fill-rule:nonzero;"/><path id="_42" serif:id="42" d="M13.395,181.199l46.678,0c3.325,0 6.004,2.4 6.004,5.376l0,38.251c0,2.976 -2.679,5.365 -6.004,5.365l-46.678,0c-3.327,0 -6.005,-2.389 -6.005,-5.365l0,-38.251c0,-2.976 2.678,-5.376 6.005,-5.376Z" style="fill:#f1f1f1;fill-rule:nonzero;"/><path id="_43" serif:id="43" d="M703.447,125.498l36.982,0c3.328,0 6.005,2.4 6.005,5.376l0,38.25c0,2.976 -2.677,5.376 -6.005,5.376l-36.982,0c-3.328,0 -6.005,-2.4 -6.005,-5.376l0,-38.25c0,-2.976 2.677,-5.376 6.005,-5.376Z" style="fill:#f1f1f1;fill-rule:nonzero;"/><path id="_40" serif:id="40" d="M649.153,125.498l36.982,0c3.328,0 6.005,2.4 6.005,5.376l0,38.25c0,2.976 -2.677,5.376 -6.005,5.376l-36.982,0c-3.328,0 -6.005,-2.4 -6.005,-5.376l0,-38.25c0,-2.976 2.677,-5.376 6.005,-5.376Z" style="fill:#f1f1f1;fill-rule:nonzero;"/><path id="_37" serif:id="37" d="M486.26,125.498l36.981,0c3.328,0 6.005,2.4 6.005,5.376l0,38.25c0,2.976 -2.677,5.376 -6.005,5.376l-36.981,0c-3.328,0 -6.006,-2.4 -6.006,-5.376l0,-38.25c0,-2.976 2.678,-5.376 6.006,-5.376Z" style="fill:#f1f1f1;fill-rule:nonzero;"/><path id="_33" serif:id="33" d="M269.083,125.498l36.981,0c3.328,0 6.005,2.4 6.005,5.376l0,38.25c0,2.976 -2.677,5.376 -6.005,5.376l-36.981,0c-3.328,0 -6.006,-2.4 -6.006,-5.376l0,-38.25c0,-2.976 2.678,-5.376 6.006,-5.376Z" style="fill:#f1f1f1;fill-rule:nonzero;"/><path id="_30" serif:id="30" d="M106.201,125.498l36.984,0c3.326,0 6.005,2.4 6.005,5.376l0,38.25c0,2.976 -2.679,5.376 -6.005,5.376l-36.984,0c-3.327,0 -6.005,-2.4 -6.005,-5.376l0,-38.25c0,-2.976 2.678,-5.376 6.005,-5.376Z" style="fill:#f1f1f1;fill-rule:nonzero;"/><path id="_58" serif:id="58" d="M13.395,125.498l75.494,0c3.326,0 6.004,2.4 6.004,5.376l0,38.25c0,2.976 -2.678,5.376 -6.004,5.376l-75.494,0c-3.327,0 -6.005,-2.4 -6.005,-5.376l0,-38.25c0,-2.976 2.678,-5.376 6.005,-5.376Z" style="fill:#f1f1f1;fill-rule:nonzero;"/><path id="_28" serif:id="28" d="M736.13,69.978l49.739,0c3.733,0 6.741,2.837 6.741,6.368l0,93.973c0,3.531 -3.008,6.368 -6.741,6.368l-26.411,-0.267c-3.061,-0.448 -5.387,-2.901 -5.141,-6.08l0.128,-52.138l-18.315,0c-3.733,0 -6.731,-2.838 -6.731,-6.368l0,-35.488c0,-3.531 2.998,-6.368 6.731,-6.368Z" style="fill:#f1f1f1;fill-rule:nonzero;"/><path id="_27" serif:id="27" d="M682.176,69.807l36.981,0c3.328,0 6.006,2.389 6.006,5.365l0,38.251c0,2.976 -2.678,5.376 -6.006,5.376l-36.981,0c-3.328,0 -6.005,-2.4 -6.005,-5.376l0,-38.251c0,-2.976 2.677,-5.365 6.005,-5.365Z" style="fill:#f1f1f1;fill-rule:nonzero;"/><path id="_26" serif:id="26" d="M628.001,69.807l36.992,0c3.317,0 5.994,2.389 5.994,5.365l0,38.251c0,2.976 -2.677,5.376 -5.994,5.376l-36.992,0c-3.328,0 -6.006,-2.4 -6.006,-5.376l0,-38.251c0,-2.976 2.678,-5.365 6.006,-5.365Z" style="fill:#f1f1f1;fill-rule:nonzero;"/><path id="_15" serif:id="15" d="M13.395,69.807l55.636,0c3.327,0 6.006,2.389 6.006,5.365l0,38.251c0,2.976 -2.679,5.376 -6.006,5.376l-55.636,0c-3.327,0 -6.005,-2.4 -6.005,-5.376l0,-38.251c0,-2.976 2.678,-5.365 6.005,-5.365Z" style="fill:#f1f1f1;fill-rule:nonzero;"/><path id="_14" serif:id="14" d="M714.861,14.106l71.744,0c3.328,0 6.005,2.4 6.005,5.376l0,38.25c0,2.976 -2.677,5.366 -6.005,5.366l-71.744,0c-3.328,0 -6.006,-2.39 -6.006,-5.366l0,-38.25c0,-2.976 2.678,-5.376 6.006,-5.376Z" style="fill:#f1f1f1;fill-rule:nonzero;"/><path id="_13" serif:id="13" d="M660.894,14.106l36.992,0c3.328,0 6.005,2.4 6.005,5.376l0,38.25c0,2.976 -2.677,5.366 -6.005,5.366l-36.992,0c-3.328,0 -6.006,-2.39 -6.006,-5.366l0,-38.25c0,-2.976 2.678,-5.376 6.006,-5.376Z" style="fill:#f1f1f1;fill-rule:nonzero;"/><path id="_12" serif:id="12" d="M606.937,14.106l36.981,0c3.328,0 6.006,2.4 6.006,5.376l0,38.25c0,2.976 -2.678,5.366 -6.006,5.366l-36.981,0c-3.328,0 -6.005,-2.39 -6.005,-5.366l0,-38.25c0,-2.976 2.677,-5.376 6.005,-5.376Z" style="fill:#f1f1f1;fill-rule:nonzero;"/><path id="_9" serif:id="9" d="M445.057,14.106l36.981,0c3.328,0 6.006,2.4 6.006,5.376l0,38.25c0,2.976 -2.678,5.366 -6.006,5.366l-36.981,0c-3.328,0 -6.005,-2.39 -6.005,-5.366l0,-38.25c0,-2.976 2.677,-5.376 6.005,-5.376Z" style="fill:#f1f1f1;fill-rule:nonzero;"/><path id="_5" serif:id="5" d="M229.231,14.106l36.981,0c3.328,0 6.006,2.4 6.006,5.376l0,38.25c0,2.976 -2.678,5.366 -6.006,5.366l-36.981,0c-3.328,0 -6.005,-2.39 -6.005,-5.366l0,-38.25c0,-2.976 2.677,-5.376 6.005,-5.376Z" style="fill:#f1f1f1;fill-rule:nonzero;"/><path id="_2" serif:id="2" d="M67.353,14.106l36.984,0c3.327,0 6.005,2.4 6.005,5.376l0,38.25c0,2.976 -2.678,5.366 -6.005,5.366l-36.984,0c-3.326,0 -6.004,-2.39 -6.004,-5.366l0,-38.25c0,-2.976 2.678,-5.376 6.004,-5.376Z" style="fill:#f1f1f1;fill-rule:nonzero;"/><path id="_41" serif:id="41" d="M13.395,14.106l36.985,0c3.326,0 6.004,2.4 6.004,5.376l0,38.25c0,2.976 -2.678,5.366 -6.004,5.366l-36.985,0c-3.327,0 -6.005,-2.39 -6.005,-5.366l0,-38.25c0,-2.976 2.678,-5.376 6.005,-5.376Z" style="fill:#f1f1f1;fill-rule:nonzero;"/></g><g><path id="_53" serif:id="53" d="M621.779,181.199l36.992,0c3.317,0 6.005,2.4 6.005,5.376l0,38.251c0,2.976 -2.688,5.365 -6.005,5.365l-36.992,0c-3.328,0 -6.005,-2.389 -6.005,-5.365l0,-38.251c0,-2.976 2.677,-5.376 6.005,-5.376Z" style="fill:#fff;fill-rule:nonzero;stroke:#aaa;stroke-width:1px;"/><path id="_52" serif:id="52" d="M567.353,181.199l36.981,0c3.328,0 6.006,2.4 6.006,5.376l0,38.251c0,2.976 -2.678,5.365 -6.006,5.365l-36.981,0c-3.328,0 -6.005,-2.389 -6.005,-5.365l0,-38.251c0,-2.976 2.677,-5.376 6.005,-5.376Z" style="fill:#fff;fill-rule:nonzero;stroke:#aaa;stroke-width:1px;"/><path id="_51" serif:id="51" d="M512.927,181.199l36.992,0c3.318,0 5.995,2.4 5.995,5.376l0,38.251c0,2.976 -2.677,5.365 -5.995,5.365l-36.992,0c-3.328,0 -6.005,-2.389 -6.005,-5.365l0,-38.251c0,-2.976 2.677,-5.376 6.005,-5.376Z" style="fill:#fff;fill-rule:nonzero;stroke:#aaa;stroke-width:1px;"/><path id="_50" serif:id="50" d="M458.501,181.199l36.982,0c3.328,0 6.005,2.4 6.005,5.376l0,38.251c0,2.976 -2.677,5.365 -6.005,5.365l-36.982,0c-3.328,0 -6.005,-2.389 -6.005,-5.365l0,-38.251c0,-2.976 2.677,-5.376 6.005,-5.376Z" style="fill:#fff;fill-rule:nonzero;stroke:#aaa;stroke-width:1px;"/><path id="_49" serif:id="49" d="M404.075,181.199l36.982,0c3.328,0 6.005,2.4 6.005,5.376l0,38.251c0,2.976 -2.677,5.365 -6.005,5.365l-36.982,0c-3.328,0 -6.005,-2.389 -6.005,-5.365l0,-38.251c0,-2.976 2.677,-5.376 6.005,-5.376Z" style="fill:#fff;fill-rule:nonzero;stroke:#aaa;stroke-width:1px;"/><path id="_48" serif:id="48" d="M349.65,181.199l36.981,0c3.328,0 6.005,2.4 6.005,5.376l0,38.251c0,2.976 -2.677,5.365 -6.005,5.365l-36.981,0c-3.328,0 -6.006,-2.389 -6.006,-5.365l0,-38.251c0,-2.976 2.678,-5.376 6.006,-5.376Z" style="fill:#fff;fill-rule:nonzero;stroke:#aaa;stroke-width:1px;"/><path id="_47" serif:id="47" d="M295.224,181.199l36.981,0c3.328,0 6.005,2.4 6.005,5.376l0,38.251c0,2.976 -2.677,5.365 -6.005,5.365l-36.981,0c-3.328,0 -6.006,-2.389 -6.006,-5.365l0,-38.251c0,-2.976 2.678,-5.376 6.006,-5.376Z" style="fill:#fff;fill-rule:nonzero;stroke:#aaa;stroke-width:1px;"/><path id="_46" serif:id="46" d="M240.787,181.199l36.992,0c3.328,0 6.006,2.4 6.006,5.376l0,38.251c0,2.976 -2.678,5.365 -6.006,5.365l-36.992,0c-3.317,0 -5.994,-2.389 -5.994,-5.365l0,-38.251c0,-2.976 2.677,-5.376 5.994,-5.376Z" style="fill:#fff;fill-rule:nonzero;stroke:#aaa;stroke-width:1px;"/><path id="_45" serif:id="45" d="M186.371,181.199l36.982,0c3.328,0 6.006,2.4 6.006,5.376l0,38.251c0,2.976 -2.678,5.365 -6.006,5.365l-36.982,0c-3.326,0 -6.004,-2.389 -6.004,-5.365l0,-38.251c0,-2.976 2.678,-5.376 6.004,-5.376Z" style="fill:#fff;fill-rule:nonzero;stroke:#aaa;stroke-width:1px;"/><path id="_44" serif:id="44" d="M131.944,181.199l36.985,0c3.325,0 6.004,2.4 6.004,5.376l0,38.251c0,2.976 -2.679,5.365 -6.004,5.365l-36.985,0c-3.327,0 -6.005,-2.389 -6.005,-5.365l0,-38.251c0,-2.976 2.678,-5.376 6.005,-5.376Z" style="fill:#fff;fill-rule:nonzero;stroke:#aaa;stroke-width:1px;"/><path id="_25" serif:id="25" d="M573.826,69.807l36.981,0c3.328,0 6.005,2.389 6.005,5.365l0,38.251c0,2.976 -2.677,5.376 -6.005,5.376l-36.981,0c-3.328,0 -6.006,-2.4 -6.006,-5.376l0,-38.251c0,-2.976 2.678,-5.365 6.006,-5.365Z" style="fill:#fff;fill-rule:nonzero;stroke:#aaa;stroke-width:1px;"/><path id="_24" serif:id="24" d="M519.65,69.807l36.982,0c3.328,0 6.005,2.389 6.005,5.365l0,38.251c0,2.976 -2.677,5.376 -6.005,5.376l-36.982,0c-3.328,0 -6.005,-2.4 -6.005,-5.376l0,-38.251c0,-2.976 2.677,-5.365 6.005,-5.365Z" style="fill:#fff;fill-rule:nonzero;stroke:#aaa;stroke-width:1px;"/><path id="_23" serif:id="23" d="M465.465,69.807l36.992,0c3.317,0 6.005,2.389 6.005,5.365l0,38.251c0,2.976 -2.688,5.376 -6.005,5.376l-36.992,0c-3.328,0 -6.006,-2.4 -6.006,-5.376l0,-38.251c0,-2.976 2.678,-5.365 6.006,-5.365Z" style="fill:#fff;fill-rule:nonzero;stroke:#aaa;stroke-width:1px;"/><path id="_22" serif:id="22" d="M411.29,69.807l36.981,0c3.328,0 6.005,2.389 6.005,5.365l0,38.251c0,2.976 -2.677,5.376 -6.005,5.376l-36.981,0c-3.328,0 -6.006,-2.4 -6.006,-5.376l0,-38.251c0,-2.976 2.678,-5.365 6.006,-5.365Z" style="fill:#fff;fill-rule:nonzero;stroke:#aaa;stroke-width:1px;"/><path id="_21" serif:id="21" d="M357.114,69.807l36.982,0c3.328,0 6.005,2.389 6.005,5.365l0,38.251c0,2.976 -2.677,5.376 -6.005,5.376l-36.982,0c-3.328,0 -6.005,-2.4 -6.005,-5.376l0,-38.251c0,-2.976 2.677,-5.365 6.005,-5.365Z" style="fill:#fff;fill-rule:nonzero;stroke:#aaa;stroke-width:1px;"/><path id="_20" serif:id="20" d="M302.929,69.807l36.992,0c3.328,0 6.005,2.389 6.005,5.365l0,38.251c0,2.976 -2.677,5.376 -6.005,5.376l-36.992,0c-3.328,0 -6.006,-2.4 -6.006,-5.376l0,-38.251c0,-2.976 2.678,-5.365 6.006,-5.365Z" style="fill:#fff;fill-rule:nonzero;stroke:#aaa;stroke-width:1px;"/><path id="_19" serif:id="19" d="M248.753,69.807l36.982,0c3.328,0 6.005,2.389 6.005,5.365l0,38.251c0,2.976 -2.677,5.376 -6.005,5.376l-36.982,0c-3.328,0 -6.005,-2.4 -6.005,-5.376l0,-38.251c0,-2.976 2.677,-5.365 6.005,-5.365Z" style="fill:#fff;fill-rule:nonzero;stroke:#aaa;stroke-width:1px;"/><path id="_18" serif:id="18" d="M194.579,69.807l36.981,0c3.328,0 6.005,2.389 6.005,5.365l0,38.251c0,2.976 -2.677,5.376 -6.005,5.376l-36.981,0c-3.327,0 -6.005,-2.4 -6.005,-5.376l0,-38.251c0,-2.976 2.678,-5.365 6.005,-5.365Z" style="fill:#fff;fill-rule:nonzero;stroke:#aaa;stroke-width:1px;"/><path id="_17" serif:id="17" d="M140.401,69.807l36.985,0c3.327,0 6.005,2.389 6.005,5.365l0,38.251c0,2.976 -2.678,5.376 -6.005,5.376l-36.985,0c-3.326,0 -6.004,-2.4 -6.004,-5.376l0,-38.251c0,-2.976 2.678,-5.365 6.004,-5.365Z" style="fill:#fff;fill-rule:nonzero;stroke:#aaa;stroke-width:1px;"/><path id="_16" serif:id="16" d="M86.225,69.807l36.984,0c3.326,0 6.005,2.389 6.005,5.365l0,38.251c0,2.976 -2.679,5.376 -6.005,5.376l-36.984,0c-3.327,0 -6.005,-2.4 -6.005,-5.376l0,-38.251c0,-2.976 2.678,-5.365 6.005,-5.365l0,0Z" style="fill:#fff;fill-rule:nonzero;stroke:#aaa;stroke-width:1px;"/></g><g><path id="_39" serif:id="39" d="M594.848,125.498l36.992,0c3.328,0 6.006,2.4 6.006,5.376l0,38.25c0,2.976 -2.678,5.376 -6.006,5.376l-36.992,0c-3.317,0 -6.005,-2.4 -6.005,-5.376l0,-38.25c0,-2.976 2.688,-5.376 6.005,-5.376Z" style="fill:#555;fill-rule:nonzero;"/><path id="_38" serif:id="38" d="M540.554,125.498l36.981,0c3.328,0 6.006,2.4 6.006,5.376l0,38.25c0,2.976 -2.678,5.376 -6.006,5.376l-36.981,0c-3.328,0 -6.005,-2.4 -6.005,-5.376l0,-38.25c0,-2.976 2.677,-5.376 6.005,-5.376Z" style="fill:#555;fill-rule:nonzero;"/><path id="_36" serif:id="36" d="M431.955,125.498l36.992,0c3.328,0 6.005,2.4 6.005,5.376l0,38.25c0,2.976 -2.677,5.376 -6.005,5.376l-36.992,0c-3.318,0 -5.995,-2.4 -5.995,-5.376l0,-38.25c0,-2.976 2.677,-5.376 5.995,-5.376Z" style="fill:#555;fill-rule:nonzero;"/><path id="_35" serif:id="35" d="M377.671,125.498l36.981,0c3.328,0 6.006,2.4 6.006,5.376l0,38.25c0,2.976 -2.678,5.376 -6.006,5.376l-36.981,0c-3.328,0 -6.005,-2.4 -6.005,-5.376l0,-38.25c0,-2.976 2.677,-5.376 6.005,-5.376Z" style="fill:#555;fill-rule:nonzero;"/><path id="_34" serif:id="34" d="M323.377,125.498l36.981,0c3.328,0 6.006,2.4 6.006,5.376l0,38.25c0,2.976 -2.678,5.376 -6.006,5.376l-36.981,0c-3.328,0 -6.005,-2.4 -6.005,-5.376l0,-38.25c0,-2.976 2.677,-5.376 6.005,-5.376Z" style="fill:#555;fill-rule:nonzero;"/><path id="_32" serif:id="32" d="M214.788,125.498l36.982,0c3.328,0 6.005,2.4 6.005,5.376l0,38.25c0,2.976 -2.677,5.376 -6.005,5.376l-36.982,0c-3.328,0 -6.005,-2.4 -6.005,-5.376l0,-38.25c0,-2.976 2.677,-5.376 6.005,-5.376Z" style="fill:#555;fill-rule:nonzero;"/><path id="_31" serif:id="31" d="M160.496,125.498l36.99,0c3.317,0 5.995,2.4 5.995,5.376l0,38.25c0,2.976 -2.678,5.376 -5.995,5.376l-36.99,0c-3.327,0 -6.004,-2.4 -6.004,-5.376l0,-38.25c0,-2.976 2.677,-5.376 6.004,-5.376Z" style="fill:#555;fill-rule:nonzero;"/><path id="_11" serif:id="11" d="M552.981,14.106l36.981,0c3.328,0 6.005,2.4 6.005,5.376l0,38.25c0,2.976 -2.677,5.366 -6.005,5.366l-36.981,0c-3.328,0 -6.006,-2.39 -6.006,-5.366l0,-38.25c0,-2.976 2.678,-5.376 6.006,-5.376Z" style="fill:#555;fill-rule:nonzero;"/><path id="_10" serif:id="10" d="M499.013,14.106l36.992,0c3.328,0 6.006,2.4 6.006,5.376l0,38.25c0,2.976 -2.678,5.366 -6.006,5.366l-36.992,0c-3.317,0 -6.005,-2.39 -6.005,-5.366l0,-38.25c0,-2.976 2.688,-5.376 6.005,-5.376Z" style="fill:#555;fill-rule:nonzero;"/><path id="_8" serif:id="8" d="M391.1,14.106l36.982,0c3.328,0 6.005,2.4 6.005,5.376l0,38.25c0,2.976 -2.677,5.366 -6.005,5.366l-36.982,0c-3.328,0 -6.005,-2.39 -6.005,-5.366l0,-38.25c0,-2.976 2.677,-5.376 6.005,-5.376Z" style="fill:#555;fill-rule:nonzero;"/><path id="_7" serif:id="7" d="M337.133,14.106l36.992,0c3.328,0 6.006,2.4 6.006,5.376l0,38.25c0,2.976 -2.678,5.366 -6.006,5.366l-36.992,0c-3.317,0 -5.994,-2.39 -5.994,-5.366l0,-38.25c0,-2.976 2.677,-5.376 5.994,-5.376Z" style="fill:#555;fill-rule:nonzero;"/><path id="_6" serif:id="6" d="M283.187,14.106l36.982,0c3.328,0 6.005,2.4 6.005,5.376l0,38.25c0,2.976 -2.677,5.366 -6.005,5.366l-36.982,0c-3.328,0 -6.005,-2.39 -6.005,-5.366l0,-38.25c0,-2.976 2.677,-5.376 6.005,-5.376Z" style="fill:#555;fill-rule:nonzero;"/><path id="_4" serif:id="4" d="M175.269,14.106l36.987,0c3.328,0 6.005,2.4 6.005,5.376l0,38.25c0,2.976 -2.677,5.366 -6.005,5.366l-36.987,0c-3.327,0 -6.004,-2.39 -6.004,-5.366l0,-38.25c0,-2.976 2.677,-5.376 6.004,-5.376Z" style="fill:#555;fill-rule:nonzero;"/><path id="_3" serif:id="3" d="M121.311,14.106l36.985,0c3.326,0 6.004,2.4 6.004,5.376l0,38.25c0,2.976 -2.678,5.366 -6.004,5.366l-36.985,0c-3.326,0 -6.005,-2.39 -6.005,-5.366l0,-38.25c0,-2.976 2.679,-5.376 6.005,-5.376Z" style="fill:#555;fill-rule:nonzero;"/></g><g><path d="M153.07,204.397l-1.656,0l0,-1.728c0,-0.216 -0.033,-0.357 -0.099,-0.423c-0.066,-0.066 -0.207,-0.099 -0.423,-0.099l-0.918,0c-0.216,0 -0.36,0.033 -0.432,0.099c-0.072,0.066 -0.108,0.207 -0.108,0.423l0,7.686c0,0.216 0.036,0.357 0.108,0.423c0.072,0.066 0.216,0.099 0.432,0.099l0.918,0c0.216,0 0.357,-0.033 0.423,-0.099c0.066,-0.066 0.099,-0.207 0.099,-0.423l0,-1.71l1.656,0l0,1.908c0,1.068 -0.564,1.602 -1.692,1.602l-1.908,0c-1.116,0 -1.674,-0.534 -1.674,-1.602l0,-8.1c0,-1.056 0.558,-1.584 1.674,-1.584l1.908,0c1.128,0 1.692,0.528 1.692,1.584l0,1.944Z" style="fill:#555;fill-rule:nonzero;"/><path d="M107.352,93.005l-1.656,0l0,-1.728c0,-0.216 -0.033,-0.357 -0.099,-0.423c-0.066,-0.066 -0.207,-0.099 -0.423,-0.099l-0.918,0c-0.216,0 -0.36,0.033 -0.432,0.099c-0.072,0.066 -0.108,0.207 -0.108,0.423l0,7.686c0,0.216 0.036,0.357 0.108,0.423c0.072,0.066 0.216,0.099 0.432,0.099l0.918,0c0.216,0 0.357,-0.033 0.423,-0.099c0.066,-0.066 0.099,-0.207 0.099,-0.423l0,-1.71l1.656,0l0,1.908c0,1.068 -0.564,1.602 -1.692,1.602l-1.908,0c-1.116,0 -1.674,-0.534 -1.674,-1.602l0,-8.1c0,-1.056 0.558,-1.584 1.674,-1.584l1.908,0c1.128,0 1.692,0.528 1.692,1.584l0,1.944Z" style="fill:#555;fill-rule:nonzero;"/><path d="M424.177,212.137l-0.45,-2.61l-2.376,0l-0.414,2.61l-1.62,0l1.998,-11.268l2.358,0l2.142,11.268l-1.638,0Zm-2.628,-3.924l1.962,0l-1.026,-5.94l-0.936,5.94Z" style="fill:#555;fill-rule:nonzero;"/><path d="M377.216,100.745l-0.45,-2.61l-2.376,0l-0.414,2.61l-1.62,0l1.998,-11.268l2.358,0l2.142,11.268l-1.638,0Zm-2.628,-3.924l1.962,0l-1.026,-5.94l-0.936,5.94Z" style="fill:#555;fill-rule:nonzero;"/><path d="M201.911,200.869l3.924,0c1.116,0 1.674,0.528 1.674,1.584l0,8.1c0,1.056 -0.558,1.584 -1.674,1.584l-3.924,0l0,-11.268Zm3.96,9.468l0,-7.668c0,-0.216 -0.036,-0.357 -0.108,-0.423c-0.072,-0.066 -0.216,-0.099 -0.432,-0.099l-1.782,0l0,8.712l1.782,0c0.216,0 0.36,-0.033 0.432,-0.099c0.072,-0.066 0.108,-0.207 0.108,-0.423Z" style="fill:#555;fill-rule:nonzero;"/><path d="M155.943,89.477l3.924,0c1.116,0 1.674,0.528 1.674,1.584l0,8.1c0,1.056 -0.558,1.584 -1.674,1.584l-3.924,0l0,-11.268Zm3.96,9.468l0,-7.668c0,-0.216 -0.036,-0.357 -0.108,-0.423c-0.072,-0.066 -0.216,-0.099 -0.432,-0.099l-1.782,0l0,8.712l1.782,0c0.216,0 0.36,-0.033 0.432,-0.099c0.072,-0.066 0.108,-0.207 0.108,-0.423Z" style="fill:#555;fill-rule:nonzero;"/><path d="M478.027,205.243l0,-2.574c0,-0.216 -0.036,-0.357 -0.108,-0.423c-0.072,-0.066 -0.216,-0.099 -0.432,-0.099l-1.8,0l0,3.618l1.8,0c0.216,0 0.36,-0.033 0.432,-0.099c0.072,-0.066 0.108,-0.207 0.108,-0.423Zm0,5.094l0,-2.772c0,-0.216 -0.036,-0.357 -0.108,-0.423c-0.072,-0.066 -0.216,-0.099 -0.432,-0.099l-1.8,0l0,3.816l1.8,0c0.216,0 0.36,-0.033 0.432,-0.099c0.072,-0.066 0.108,-0.207 0.108,-0.423Zm-3.96,-9.468l3.906,0c1.128,0 1.692,0.528 1.692,1.584l0,2.862c0,0.636 -0.24,1.008 -0.72,1.116c0.48,0.12 0.72,0.468 0.72,1.044l0,3.078c0,1.056 -0.564,1.584 -1.692,1.584l-3.906,0l0,-11.268Z" style="fill:#555;fill-rule:nonzero;"/><path d="M430.815,93.851l0,-2.574c0,-0.216 -0.036,-0.357 -0.108,-0.423c-0.072,-0.066 -0.216,-0.099 -0.432,-0.099l-1.8,0l0,3.618l1.8,0c0.216,0 0.36,-0.033 0.432,-0.099c0.072,-0.066 0.108,-0.207 0.108,-0.423Zm0,5.094l0,-2.772c0,-0.216 -0.036,-0.357 -0.108,-0.423c-0.072,-0.066 -0.216,-0.099 -0.432,-0.099l-1.8,0l0,3.816l1.8,0c0.216,0 0.36,-0.033 0.432,-0.099c0.072,-0.066 0.108,-0.207 0.108,-0.423Zm-3.96,-9.468l3.906,0c1.128,0 1.692,0.528 1.692,1.584l0,2.862c0,0.636 -0.24,1.008 -0.72,1.116c0.48,0.12 0.72,0.468 0.72,1.044l0,3.078c0,1.056 -0.564,1.584 -1.692,1.584l-3.906,0l0,-11.268Z" style="fill:#555;fill-rule:nonzero;"/><path d="M258.547,210.823l3.258,0l0,1.314l-4.896,0l0,-11.268l4.77,0l0,1.314l-3.132,0l0,3.474l2.592,0l0,1.314l-2.592,0l0,3.852Z" style="fill:#555;fill-rule:nonzero;"/><path d="M212.328,99.431l3.258,0l0,1.314l-4.896,0l0,-11.268l4.77,0l0,1.314l-3.132,0l0,3.474l2.592,0l0,1.314l-2.592,0l0,3.852Z" style="fill:#555;fill-rule:nonzero;"/><path d="M534.053,204.397l-1.656,0l0,-1.728c0,-0.216 -0.033,-0.357 -0.099,-0.423c-0.066,-0.066 -0.207,-0.099 -0.423,-0.099l-0.918,0c-0.216,0 -0.36,0.033 -0.432,0.099c-0.072,0.066 -0.108,0.207 -0.108,0.423l0,7.686c0,0.216 0.036,0.357 0.108,0.423c0.072,0.066 0.216,0.099 0.432,0.099l0.918,0c0.216,0 0.357,-0.033 0.423,-0.099c0.066,-0.066 0.099,-0.207 0.099,-0.423l0,-1.71l1.656,0l0,1.908c0,1.068 -0.564,1.602 -1.692,1.602l-1.908,0c-1.116,0 -1.674,-0.534 -1.674,-1.602l0,-8.1c0,-1.056 0.558,-1.584 1.674,-1.584l1.908,0c1.128,0 1.692,0.528 1.692,1.584l0,1.944Z" style="fill:#555;fill-rule:nonzero;"/><path d="M486.595,93.005l-1.656,0l0,-1.728c0,-0.216 -0.033,-0.357 -0.099,-0.423c-0.066,-0.066 -0.207,-0.099 -0.423,-0.099l-0.918,0c-0.216,0 -0.36,0.033 -0.432,0.099c-0.072,0.066 -0.108,0.207 -0.108,0.423l0,7.686c0,0.216 0.036,0.357 0.108,0.423c0.072,0.066 0.216,0.099 0.432,0.099l0.918,0c0.216,0 0.357,-0.033 0.423,-0.099c0.066,-0.066 0.099,-0.207 0.099,-0.423l0,-1.71l1.656,0l0,1.908c0,1.068 -0.564,1.602 -1.692,1.602l-1.908,0c-1.116,0 -1.674,-0.534 -1.674,-1.602l0,-8.1c0,-1.056 0.558,-1.584 1.674,-1.584l1.908,0c1.128,0 1.692,0.528 1.692,1.584l0,1.944Z" style="fill:#555;fill-rule:nonzero;"/><path d="M316.251,202.183l-3.276,0l0,3.708l2.592,0l0,1.278l-2.592,0l0,4.968l-1.638,0l0,-11.268l4.914,0l0,1.314Z" style="fill:#555;fill-rule:nonzero;"/><path d="M269.781,90.791l-3.276,0l0,3.708l2.592,0l0,1.278l-2.592,0l0,4.968l-1.638,0l0,-11.268l4.914,0l0,1.314Z" style="fill:#555;fill-rule:nonzero;"/><path d="M582.892,200.869l3.924,0c1.116,0 1.674,0.528 1.674,1.584l0,8.1c0,1.056 -0.558,1.584 -1.674,1.584l-3.924,0l0,-11.268Zm3.96,9.468l0,-7.668c0,-0.216 -0.036,-0.357 -0.108,-0.423c-0.072,-0.066 -0.216,-0.099 -0.432,-0.099l-1.782,0l0,8.712l1.782,0c0.216,0 0.36,-0.033 0.432,-0.099c0.072,-0.066 0.108,-0.207 0.108,-0.423Z" style="fill:#555;fill-rule:nonzero;"/><path d="M535.19,89.477l3.924,0c1.116,0 1.674,0.528 1.674,1.584l0,8.1c0,1.056 -0.558,1.584 -1.674,1.584l-3.924,0l0,-11.268Zm3.96,9.468l0,-7.668c0,-0.216 -0.036,-0.357 -0.108,-0.423c-0.072,-0.066 -0.216,-0.099 -0.432,-0.099l-1.782,0l0,8.712l1.782,0c0.216,0 0.36,-0.033 0.432,-0.099c0.072,-0.066 0.108,-0.207 0.108,-0.423Z" style="fill:#555;fill-rule:nonzero;"/><path d="M370.906,204.163l-1.638,0l0,-1.494c0,-0.216 -0.036,-0.357 -0.108,-0.423c-0.072,-0.066 -0.216,-0.099 -0.432,-0.099l-0.918,0c-0.216,0 -0.36,0.033 -0.432,0.099c-0.072,0.066 -0.108,0.207 -0.108,0.423l0,7.686c0,0.216 0.036,0.357 0.108,0.423c0.072,0.066 0.216,0.099 0.432,0.099l0.918,0c0.216,0 0.36,-0.033 0.432,-0.099c0.072,-0.066 0.108,-0.207 0.108,-0.423l0,-2.754l-0.9,0l0,-1.26l2.538,0l0,4.212c0,1.068 -0.558,1.602 -1.674,1.602l-1.926,0c-1.116,0 -1.674,-0.534 -1.674,-1.602l0,-8.1c0,-1.056 0.558,-1.584 1.674,-1.584l1.926,0c1.116,0 1.674,0.528 1.674,1.584l0,1.71Z" style="fill:#555;fill-rule:nonzero;"/><path d="M324.19,92.771l-1.638,0l0,-1.494c0,-0.216 -0.036,-0.357 -0.108,-0.423c-0.072,-0.066 -0.216,-0.099 -0.432,-0.099l-0.918,0c-0.216,0 -0.36,0.033 -0.432,0.099c-0.072,0.066 -0.108,0.207 -0.108,0.423l0,7.686c0,0.216 0.036,0.357 0.108,0.423c0.072,0.066 0.216,0.099 0.432,0.099l0.918,0c0.216,0 0.36,-0.033 0.432,-0.099c0.072,-0.066 0.108,-0.207 0.108,-0.423l0,-2.754l-0.9,0l0,-1.26l2.538,0l0,4.212c0,1.068 -0.558,1.602 -1.674,1.602l-1.926,0c-1.116,0 -1.674,-0.534 -1.674,-1.602l0,-8.1c0,-1.056 0.558,-1.584 1.674,-1.584l1.926,0c1.116,0 1.674,0.528 1.674,1.584l0,1.71Z" style="fill:#555;fill-rule:nonzero;"/><path d="M639.533,210.823l3.258,0l0,1.314l-4.896,0l0,-11.268l4.77,0l0,1.314l-3.132,0l0,3.474l2.592,0l0,1.314l-2.592,0l0,3.852Z" style="fill:#555;fill-rule:nonzero;"/><path d="M591.575,99.431l3.258,0l0,1.314l-4.896,0l0,-11.268l4.77,0l0,1.314l-3.132,0l0,3.474l2.592,0l0,1.314l-2.592,0l0,3.852Z" style="fill:#555;fill-rule:nonzero;"/></g><g><path d="M176.915,148.701l-1.656,0l0,-1.728c0,-0.216 -0.033,-0.357 -0.099,-0.423c-0.066,-0.066 -0.207,-0.099 -0.423,-0.099l-0.918,0c-0.216,0 -0.36,0.033 -0.432,0.099c-0.072,0.066 -0.108,0.207 -0.108,0.423l0,7.686c0,0.216 0.036,0.357 0.108,0.423c0.072,0.066 0.216,0.099 0.432,0.099l0.918,0c0.216,0 0.357,-0.033 0.423,-0.099c0.066,-0.066 0.099,-0.207 0.099,-0.423l0,-1.71l1.656,0l0,1.908c0,1.068 -0.564,1.602 -1.692,1.602l-1.908,0c-1.116,0 -1.674,-0.534 -1.674,-1.602l0,-8.1c0,-1.056 0.558,-1.584 1.674,-1.584l1.908,0c1.128,0 1.692,0.528 1.692,1.584l0,1.944Z" style="fill:#fff;fill-rule:nonzero;"/><path d="M185.969,149.313l-1.188,0l-0.54,2.988l1.134,0l0,1.242l-1.35,0l-0.522,2.898l-1.44,0l0.522,-2.898l-2.034,0l-0.522,2.898l-1.458,0l0.522,-2.898l-0.972,0l0,-1.242l1.188,0l0.54,-2.988l-1.116,0l0,-1.242l1.332,0l0.522,-2.898l1.44,0l-0.522,2.898l2.052,0l0.522,-2.898l1.44,0l-0.522,2.898l0.972,0l0,1.242Zm-3.168,2.988l0.54,-2.988l-2.052,0l-0.522,2.988l2.034,0Z" style="fill:#fff;fill-rule:nonzero;"/><path d="M137.732,37.304l-1.656,0l0,-1.728c0,-0.216 -0.033,-0.357 -0.099,-0.423c-0.066,-0.066 -0.207,-0.099 -0.423,-0.099l-0.918,0c-0.216,0 -0.36,0.033 -0.432,0.099c-0.072,0.066 -0.108,0.207 -0.108,0.423l0,7.686c0,0.216 0.036,0.357 0.108,0.423c0.072,0.066 0.216,0.099 0.432,0.099l0.918,0c0.216,0 0.357,-0.033 0.423,-0.099c0.066,-0.066 0.099,-0.207 0.099,-0.423l0,-1.71l1.656,0l0,1.908c0,1.068 -0.564,1.602 -1.692,1.602l-1.908,0c-1.116,0 -1.674,-0.534 -1.674,-1.602l0,-8.1c0,-1.056 0.558,-1.584 1.674,-1.584l1.908,0c1.128,0 1.692,0.528 1.692,1.584l0,1.944Z" style="fill:#fff;fill-rule:nonzero;"/><path d="M146.786,37.916l-1.188,0l-0.54,2.988l1.134,0l0,1.242l-1.35,0l-0.522,2.898l-1.44,0l0.522,-2.898l-2.034,0l-0.522,2.898l-1.458,0l0.522,-2.898l-0.972,0l0,-1.242l1.188,0l0.54,-2.988l-1.116,0l0,-1.242l1.332,0l0.522,-2.898l1.44,0l-0.522,2.898l2.052,0l0.522,-2.898l1.44,0l-0.522,2.898l0.972,0l0,1.242Zm-3.168,2.988l0.54,-2.988l-2.052,0l-0.522,2.988l2.034,0Z" style="fill:#fff;fill-rule:nonzero;"/><path d="M447.731,156.441l-0.45,-2.61l-2.376,0l-0.414,2.61l-1.62,0l1.998,-11.268l2.358,0l2.142,11.268l-1.638,0Zm-2.628,-3.924l1.962,0l-1.026,-5.94l-0.936,5.94Z" style="fill:#fff;fill-rule:nonzero;"/><path d="M457.973,149.313l-1.188,0l-0.54,2.988l1.134,0l0,1.242l-1.35,0l-0.522,2.898l-1.44,0l0.522,-2.898l-2.034,0l-0.522,2.898l-1.458,0l0.522,-2.898l-0.972,0l0,-1.242l1.188,0l0.54,-2.988l-1.116,0l0,-1.242l1.332,0l0.522,-2.898l1.44,0l-0.522,2.898l2.052,0l0.522,-2.898l1.44,0l-0.522,2.898l0.972,0l0,1.242Zm-3.168,2.988l0.54,-2.988l-2.052,0l-0.522,2.988l2.034,0Z" style="fill:#fff;fill-rule:nonzero;"/><path d="M406.865,45.044l-0.45,-2.61l-2.376,0l-0.414,2.61l-1.62,0l1.998,-11.268l2.358,0l2.142,11.268l-1.638,0Zm-2.628,-3.924l1.962,0l-1.026,-5.94l-0.936,5.94Z" style="fill:#fff;fill-rule:nonzero;"/><path d="M417.107,37.916l-1.188,0l-0.54,2.988l1.134,0l0,1.242l-1.35,0l-0.522,2.898l-1.44,0l0.522,-2.898l-2.034,0l-0.522,2.898l-1.458,0l0.522,-2.898l-0.972,0l0,-1.242l1.188,0l0.54,-2.988l-1.116,0l0,-1.242l1.332,0l0.522,-2.898l1.44,0l-0.522,2.898l2.052,0l0.522,-2.898l1.44,0l-0.522,2.898l0.972,0l0,1.242Zm-3.168,2.988l0.54,-2.988l-2.052,0l-0.522,2.988l2.034,0Z" style="fill:#fff;fill-rule:nonzero;"/><path d="M225.499,145.173l3.924,0c1.116,0 1.674,0.528 1.674,1.584l0,8.1c0,1.056 -0.558,1.584 -1.674,1.584l-3.924,0l0,-11.268Zm3.96,9.468l0,-7.668c0,-0.216 -0.036,-0.357 -0.108,-0.423c-0.072,-0.066 -0.216,-0.099 -0.432,-0.099l-1.782,0l0,8.712l1.782,0c0.216,0 0.36,-0.033 0.432,-0.099c0.072,-0.066 0.108,-0.207 0.108,-0.423Z" style="fill:#fff;fill-rule:nonzero;"/><path d="M240.331,149.313l-1.188,0l-0.54,2.988l1.134,0l0,1.242l-1.35,0l-0.522,2.898l-1.44,0l0.522,-2.898l-2.034,0l-0.522,2.898l-1.458,0l0.522,-2.898l-0.972,0l0,-1.242l1.188,0l0.54,-2.988l-1.116,0l0,-1.242l1.332,0l0.522,-2.898l1.44,0l-0.522,2.898l2.052,0l0.522,-2.898l1.44,0l-0.522,2.898l0.972,0l0,1.242Zm-3.168,2.988l0.54,-2.988l-2.052,0l-0.522,2.988l2.034,0Z" style="fill:#fff;fill-rule:nonzero;"/><path d="M185.983,33.776l3.924,0c1.116,0 1.674,0.528 1.674,1.584l0,8.1c0,1.056 -0.558,1.584 -1.674,1.584l-3.924,0l0,-11.268Zm3.96,9.468l0,-7.668c0,-0.216 -0.036,-0.357 -0.108,-0.423c-0.072,-0.066 -0.216,-0.099 -0.432,-0.099l-1.782,0l0,8.712l1.782,0c0.216,0 0.36,-0.033 0.432,-0.099c0.072,-0.066 0.108,-0.207 0.108,-0.423Z" style="fill:#fff;fill-rule:nonzero;"/><path d="M200.815,37.916l-1.188,0l-0.54,2.988l1.134,0l0,1.242l-1.35,0l-0.522,2.898l-1.44,0l0.522,-2.898l-2.034,0l-0.522,2.898l-1.458,0l0.522,-2.898l-0.972,0l0,-1.242l1.188,0l0.54,-2.988l-1.116,0l0,-1.242l1.332,0l0.522,-2.898l1.44,0l-0.522,2.898l2.052,0l0.522,-2.898l1.44,0l-0.522,2.898l0.972,0l0,1.242Zm-3.168,2.988l0.54,-2.988l-2.052,0l-0.522,2.988l2.034,0Z" style="fill:#fff;fill-rule:nonzero;"/><path d="M339.642,146.487l-3.276,0l0,3.708l2.592,0l0,1.278l-2.592,0l0,4.968l-1.638,0l0,-11.268l4.914,0l0,1.314Z" style="fill:#fff;fill-rule:nonzero;"/><path d="M348.156,149.313l-1.188,0l-0.54,2.988l1.134,0l0,1.242l-1.35,0l-0.522,2.898l-1.44,0l0.522,-2.898l-2.034,0l-0.522,2.898l-1.458,0l0.522,-2.898l-0.972,0l0,-1.242l1.188,0l0.54,-2.988l-1.116,0l0,-1.242l1.332,0l0.522,-2.898l1.44,0l-0.522,2.898l2.052,0l0.522,-2.898l1.44,0l-0.522,2.898l0.972,0l0,1.242Zm-3.168,2.988l0.54,-2.988l-2.052,0l-0.522,2.988l2.034,0Z" style="fill:#fff;fill-rule:nonzero;"/><path d="M299.452,35.09l-3.276,0l0,3.708l2.592,0l0,1.278l-2.592,0l0,4.968l-1.638,0l0,-11.268l4.914,0l0,1.314Z" style="fill:#fff;fill-rule:nonzero;"/><path d="M307.966,37.916l-1.188,0l-0.54,2.988l1.134,0l0,1.242l-1.35,0l-0.522,2.898l-1.44,0l0.522,-2.898l-2.034,0l-0.522,2.898l-1.458,0l0.522,-2.898l-0.972,0l0,-1.242l1.188,0l0.54,-2.988l-1.116,0l0,-1.242l1.332,0l0.522,-2.898l1.44,0l-0.522,2.898l2.052,0l0.522,-2.898l1.44,0l-0.522,2.898l0.972,0l0,1.242Zm-3.168,2.988l0.54,-2.988l-2.052,0l-0.522,2.988l2.034,0Z" style="fill:#fff;fill-rule:nonzero;"/><path d="M556.974,148.701l-1.656,0l0,-1.728c0,-0.216 -0.033,-0.357 -0.099,-0.423c-0.066,-0.066 -0.207,-0.099 -0.423,-0.099l-0.918,0c-0.216,0 -0.36,0.033 -0.432,0.099c-0.072,0.066 -0.108,0.207 -0.108,0.423l0,7.686c0,0.216 0.036,0.357 0.108,0.423c0.072,0.066 0.216,0.099 0.432,0.099l0.918,0c0.216,0 0.357,-0.033 0.423,-0.099c0.066,-0.066 0.099,-0.207 0.099,-0.423l0,-1.71l1.656,0l0,1.908c0,1.068 -0.564,1.602 -1.692,1.602l-1.908,0c-1.116,0 -1.674,-0.534 -1.674,-1.602l0,-8.1c0,-1.056 0.558,-1.584 1.674,-1.584l1.908,0c1.128,0 1.692,0.528 1.692,1.584l0,1.944Z" style="fill:#fff;fill-rule:nonzero;"/><path d="M566.028,149.313l-1.188,0l-0.54,2.988l1.134,0l0,1.242l-1.35,0l-0.522,2.898l-1.44,0l0.522,-2.898l-2.034,0l-0.522,2.898l-1.458,0l0.522,-2.898l-0.972,0l0,-1.242l1.188,0l0.54,-2.988l-1.116,0l0,-1.242l1.332,0l0.522,-2.898l1.44,0l-0.522,2.898l2.052,0l0.522,-2.898l1.44,0l-0.522,2.898l0.972,0l0,1.242Zm-3.168,2.988l0.54,-2.988l-2.052,0l-0.522,2.988l2.034,0Z" style="fill:#fff;fill-rule:nonzero;"/><path d="M515.438,37.304l-1.656,0l0,-1.728c0,-0.216 -0.033,-0.357 -0.099,-0.423c-0.066,-0.066 -0.207,-0.099 -0.423,-0.099l-0.918,0c-0.216,0 -0.36,0.033 -0.432,0.099c-0.072,0.066 -0.108,0.207 -0.108,0.423l0,7.686c0,0.216 0.036,0.357 0.108,0.423c0.072,0.066 0.216,0.099 0.432,0.099l0.918,0c0.216,0 0.357,-0.033 0.423,-0.099c0.066,-0.066 0.099,-0.207 0.099,-0.423l0,-1.71l1.656,0l0,1.908c0,1.068 -0.564,1.602 -1.692,1.602l-1.908,0c-1.116,0 -1.674,-0.534 -1.674,-1.602l0,-8.1c0,-1.056 0.558,-1.584 1.674,-1.584l1.908,0c1.128,0 1.692,0.528 1.692,1.584l0,1.944Z" style="fill:#fff;fill-rule:nonzero;"/><path d="M524.492,37.916l-1.188,0l-0.54,2.988l1.134,0l0,1.242l-1.35,0l-0.522,2.898l-1.44,0l0.522,-2.898l-2.034,0l-0.522,2.898l-1.458,0l0.522,-2.898l-0.972,0l0,-1.242l1.188,0l0.54,-2.988l-1.116,0l0,-1.242l1.332,0l0.522,-2.898l1.44,0l-0.522,2.898l2.052,0l0.522,-2.898l1.44,0l-0.522,2.898l0.972,0l0,1.242Zm-3.168,2.988l0.54,-2.988l-2.052,0l-0.522,2.988l2.034,0Z" style="fill:#fff;fill-rule:nonzero;"/><path d="M394.015,148.467l-1.638,0l0,-1.494c0,-0.216 -0.036,-0.357 -0.108,-0.423c-0.072,-0.066 -0.216,-0.099 -0.432,-0.099l-0.918,0c-0.216,0 -0.36,0.033 -0.432,0.099c-0.072,0.066 -0.108,0.207 -0.108,0.423l0,7.686c0,0.216 0.036,0.357 0.108,0.423c0.072,0.066 0.216,0.099 0.432,0.099l0.918,0c0.216,0 0.36,-0.033 0.432,-0.099c0.072,-0.066 0.108,-0.207 0.108,-0.423l0,-2.754l-0.9,0l0,-1.26l2.538,0l0,4.212c0,1.068 -0.558,1.602 -1.674,1.602l-1.926,0c-1.116,0 -1.674,-0.534 -1.674,-1.602l0,-8.1c0,-1.056 0.558,-1.584 1.674,-1.584l1.926,0c1.116,0 1.674,0.528 1.674,1.584l0,1.71Z" style="fill:#fff;fill-rule:nonzero;"/><path d="M403.159,149.313l-1.188,0l-0.54,2.988l1.134,0l0,1.242l-1.35,0l-0.522,2.898l-1.44,0l0.522,-2.898l-2.034,0l-0.522,2.898l-1.458,0l0.522,-2.898l-0.972,0l0,-1.242l1.188,0l0.54,-2.988l-1.116,0l0,-1.242l1.332,0l0.522,-2.898l1.44,0l-0.522,2.898l2.052,0l0.522,-2.898l1.44,0l-0.522,2.898l0.972,0l0,1.242Zm-3.168,2.988l0.54,-2.988l-2.052,0l-0.522,2.988l2.034,0Z" style="fill:#fff;fill-rule:nonzero;"/><path d="M353.488,37.07l-1.638,0l0,-1.494c0,-0.216 -0.036,-0.357 -0.108,-0.423c-0.072,-0.066 -0.216,-0.099 -0.432,-0.099l-0.918,0c-0.216,0 -0.36,0.033 -0.432,0.099c-0.072,0.066 -0.108,0.207 -0.108,0.423l0,7.686c0,0.216 0.036,0.357 0.108,0.423c0.072,0.066 0.216,0.099 0.432,0.099l0.918,0c0.216,0 0.36,-0.033 0.432,-0.099c0.072,-0.066 0.108,-0.207 0.108,-0.423l0,-2.754l-0.9,0l0,-1.26l2.538,0l0,4.212c0,1.068 -0.558,1.602 -1.674,1.602l-1.926,0c-1.116,0 -1.674,-0.534 -1.674,-1.602l0,-8.1c0,-1.056 0.558,-1.584 1.674,-1.584l1.926,0c1.116,0 1.674,0.528 1.674,1.584l0,1.71Z" style="fill:#fff;fill-rule:nonzero;"/><path d="M362.632,37.916l-1.188,0l-0.54,2.988l1.134,0l0,1.242l-1.35,0l-0.522,2.898l-1.44,0l0.522,-2.898l-2.034,0l-0.522,2.898l-1.458,0l0.522,-2.898l-0.972,0l0,-1.242l1.188,0l0.54,-2.988l-1.116,0l0,-1.242l1.332,0l0.522,-2.898l1.44,0l-0.522,2.898l2.052,0l0.522,-2.898l1.44,0l-0.522,2.898l0.972,0l0,1.242Zm-3.168,2.988l0.54,-2.988l-2.052,0l-0.522,2.988l2.034,0Z" style="fill:#fff;fill-rule:nonzero;"/><path d="M605.564,145.173l3.924,0c1.116,0 1.674,0.528 1.674,1.584l0,8.1c0,1.056 -0.558,1.584 -1.674,1.584l-3.924,0l0,-11.268Zm3.96,9.468l0,-7.668c0,-0.216 -0.036,-0.357 -0.108,-0.423c-0.072,-0.066 -0.216,-0.099 -0.432,-0.099l-1.782,0l0,8.712l1.782,0c0.216,0 0.36,-0.033 0.432,-0.099c0.072,-0.066 0.108,-0.207 0.108,-0.423Z" style="fill:#fff;fill-rule:nonzero;"/><path d="M620.396,149.313l-1.188,0l-0.54,2.988l1.134,0l0,1.242l-1.35,0l-0.522,2.898l-1.44,0l0.522,-2.898l-2.034,0l-0.522,2.898l-1.458,0l0.522,-2.898l-0.972,0l0,-1.242l1.188,0l0.54,-2.988l-1.116,0l0,-1.242l1.332,0l0.522,-2.898l1.44,0l-0.522,2.898l2.052,0l0.522,-2.898l1.44,0l-0.522,2.898l0.972,0l0,1.242Zm-3.168,2.988l0.54,-2.988l-2.052,0l-0.522,2.988l2.034,0Z" style="fill:#fff;fill-rule:nonzero;"/><path d="M563.592,33.776l3.924,0c1.116,0 1.674,0.528 1.674,1.584l0,8.1c0,1.056 -0.558,1.584 -1.674,1.584l-3.924,0l0,-11.268Zm3.96,9.468l0,-7.668c0,-0.216 -0.036,-0.357 -0.108,-0.423c-0.072,-0.066 -0.216,-0.099 -0.432,-0.099l-1.782,0l0,8.712l1.782,0c0.216,0 0.36,-0.033 0.432,-0.099c0.072,-0.066 0.108,-0.207 0.108,-0.423Z" style="fill:#fff;fill-rule:nonzero;"/><path d="M578.424,37.916l-1.188,0l-0.54,2.988l1.134,0l0,1.242l-1.35,0l-0.522,2.898l-1.44,0l0.522,-2.898l-2.034,0l-0.522,2.898l-1.458,0l0.522,-2.898l-0.972,0l0,-1.242l1.188,0l0.54,-2.988l-1.116,0l0,-1.242l1.332,0l0.522,-2.898l1.44,0l-0.522,2.898l2.052,0l0.522,-2.898l1.44,0l-0.522,2.898l0.972,0l0,1.242Zm-3.168,2.988l0.54,-2.988l-2.052,0l-0.522,2.988l2.034,0Z" style="fill:#fff;fill-rule:nonzero;"/></g></g></svg>