<?xml version="1.0" encoding="UTF-8" standalone="no"?><!DOCTYPE svg PUBLIC "-//W3C//DTD SVG 1.1//EN" "http://www.w3.org/Graphics/SVG/1.1/DTD/svg11.dtd"><svg width="100%" height="100%" viewBox="0 0 421 112" version="1.1" xmlns="http://www.w3.org/2000/svg" xmlns:xlink="http://www.w3.org/1999/xlink" xml:space="preserve" xmlns:serif="http://www.serif.com/" style="fill-rule:evenodd;clip-rule:evenodd;stroke-linejoin:round;stroke-miterlimit:2;"><rect x="-0.024" y="0" width="31" height="112" style="fill:#fff;"/><path d="M30.976,112l-31,0l0,-112l31,0l0,112Zm-30,-111l0,110l29,0l0,-110l-29,0Z" style="fill:#ddd;"/><rect x="29.976" y="0" width="31" height="112" style="fill:#fff;"/><path d="M60.976,112l-31,0l0,-112l31,0l0,112Zm-30,-111l0,110l29,0l0,-110l-29,0Z" style="fill:#ddd;"/><rect x="59.976" y="0" width="31" height="112" style="fill:#fff;"/><path d="M90.976,112l-31,0l0,-112l31,0l0,112Zm-30,-111l0,110l29,0l0,-110l-29,0Z" style="fill:#ddd;"/><rect x="89.976" y="0" width="31" height="112" style="fill:#fff;"/><path d="M120.976,112l-31,0l0,-112l31,0l0,112Zm-30,-111l0,110l29,0l0,-110l-29,0Z" style="fill:#ddd;"/><rect x="119.976" y="0" width="31" height="112" style="fill:#fff;"/><path d="M150.976,112l-31,0l0,-112l31,0l0,112Zm-30,-111l0,110l29,0l0,-110l-29,0Z" style="fill:#ddd;"/><rect x="149.976" y="0" width="31" height="112" style="fill:#fff;"/><path d="M180.976,112l-31,0l0,-112l31,0l0,112Zm-30,-111l0,110l29,0l0,-110l-29,0Z" style="fill:#ddd;"/><rect x="179.976" y="0" width="31" height="112" style="fill:#fff;"/><path d="M210.976,112l-31,0l0,-112l31,0l0,112Zm-30,-111l0,110l29,0l0,-110l-29,0Z" style="fill:#ddd;"/><rect x="209.976" y="0" width="31" height="112" style="fill:#fff;"/><path d="M240.976,112l-31,0l0,-112l31,0l0,112Zm-30,-111l0,110l29,0l0,-110l-29,0Z" style="fill:#ddd;"/><rect x="239.976" y="0" width="31" height="112" style="fill:#fff;"/><path d="M270.976,112l-31,0l0,-112l31,0l0,112Zm-30,-111l0,110l29,0l0,-110l-29,0Z" style="fill:#ddd;"/><rect x="269.976" y="0" width="31" height="112" style="fill:#fff;"/><path d="M300.976,112l-31,0l0,-112l31,0l0,112Zm-30,-111l0,110l29,0l0,-110l-29,0Z" style="fill:#ddd;"/><rect x="299.976" y="0" width="31" height="112" style="fill:#fff;"/><path d="M330.976,112l-31,0l0,-112l31,0l0,112Zm-30,-111l0,110l29,0l0,-110l-29,0Z" style="fill:#ddd;"/><rect x="329.976" y="0" width="31" height="112" style="fill:#fff;"/><path d="M360.976,112l-31,0l0,-112l31,0l0,112Zm-30,-111l0,110l29,0l0,-110l-29,0Z" style="fill:#ddd;"/><rect x="359.976" y="0" width="31" height="112" style="fill:#fff;"/><path d="M390.976,112l-31,0l0,-112l31,0l0,112Zm-30,-111l0,110l29,0l0,-110l-29,0Z" style="fill:#ddd;"/><rect x="389.976" y="0" width="31" height="112" style="fill:#fff;"/><path d="M420.976,112l-31,0l0,-112l31,0l0,112Zm-30,-111l0,110l29,0l0,-110l-29,0Z" style="fill:#ddd;"/><path d="M35.976,0l-19.976,0l0,63c0,1.326 0.527,2.598 1.464,3.536c0.938,0.937 2.21,1.464 3.536,1.464l9.976,0c1.326,0 2.598,-0.527 3.536,-1.464c0.937,-0.938 1.464,-2.21 1.464,-3.536l0,-63Z" style="fill:#fff;"/><path d="M35.976,63l0,0.062l-0.002,0.062l-0.001,0.062l-0.003,0.062l-0.004,0.062l-0.004,0.061l-0.005,0.062l-0.005,0.061l-0.007,0.061l-0.007,0.062l-0.008,0.061l-0.009,0.06l-0.009,0.061l-0.01,0.061l-0.011,0.06l-0.012,0.06l-0.012,0.06l-0.013,0.06l-0.029,0.119l-0.031,0.118l-0.034,0.117l-0.037,0.117l-0.04,0.115l-0.042,0.114l-0.046,0.114l-0.048,0.112l-0.05,0.111l-0.054,0.109l-0.056,0.109l-0.059,0.107l-0.061,0.105l-0.064,0.105l-0.067,0.102l-0.034,0.051l-0.035,0.05l-0.036,0.05l-0.036,0.05l-0.037,0.049l-0.037,0.049l-0.038,0.048l-0.039,0.048l-0.039,0.048l-0.04,0.047l-0.041,0.046l-0.041,0.046l-0.042,0.046l-0.042,0.045l-0.043,0.045l-0.044,0.044l-0.044,0.044l-0.045,0.043l-0.045,0.042l-0.046,0.042l-0.046,0.041l-0.046,0.041l-0.047,0.04l-0.048,0.039l-0.048,0.039l-0.048,0.038l-0.049,0.037l-0.049,0.037l-0.05,0.036l-0.05,0.036l-0.05,0.035l-0.051,0.034l-0.102,0.067l-0.105,0.064l-0.105,0.061l-0.107,0.059l-0.109,0.056l-0.109,0.054l-0.111,0.05l-0.113,0.048l-0.113,0.046l-0.114,0.042l-0.115,0.04l-0.117,0.037l-0.117,0.034l-0.118,0.031l-0.119,0.029l-0.06,0.013l-0.06,0.012l-0.06,0.012l-0.06,0.011l-0.061,0.01l-0.061,0.009l-0.06,0.009l-0.061,0.008l-0.062,0.007l-0.061,0.007l-0.061,0.005l-0.062,0.005l-0.061,0.004l-0.062,0.004l-0.062,0.003l-0.062,0.001l-0.062,0.002l-0.062,0l-9.976,0l-0.062,0l-0.062,-0.002l-0.062,-0.001l-0.062,-0.003l-0.062,-0.004l-0.061,-0.004l-0.062,-0.005l-0.061,-0.005l-0.061,-0.007l-0.062,-0.007l-0.061,-0.008l-0.06,-0.009l-0.061,-0.009l-0.061,-0.01l-0.06,-0.011l-0.06,-0.012l-0.06,-0.012l-0.06,-0.013l-0.119,-0.029l-0.118,-0.031l-0.117,-0.034l-0.117,-0.037l-0.115,-0.04l-0.114,-0.042l-0.114,-0.046l-0.112,-0.048l-0.111,-0.05l-0.109,-0.054l-0.109,-0.056l-0.107,-0.059l-0.105,-0.061l-0.105,-0.064l-0.102,-0.067l-0.051,-0.034l-0.05,-0.035l-0.05,-0.036l-0.05,-0.036l-0.049,-0.037l-0.049,-0.037l-0.048,-0.038l-0.048,-0.039l-0.048,-0.039l-0.047,-0.04l-0.046,-0.041l-0.046,-0.041l-0.046,-0.042l-0.045,-0.042l-0.045,-0.043l-0.044,-0.044l-0.044,-0.044l-0.043,-0.045l-0.042,-0.045l-0.042,-0.046l-0.041,-0.046l-0.041,-0.046l-0.04,-0.047l-0.039,-0.048l-0.039,-0.048l-0.038,-0.048l-0.037,-0.049l-0.037,-0.049l-0.036,-0.05l-0.036,-0.05l-0.035,-0.05l-0.034,-0.051l-0.067,-0.102l-0.064,-0.105l-0.061,-0.105l-0.059,-0.107l-0.056,-0.109l-0.054,-0.109l-0.05,-0.111l-0.048,-0.112l-0.046,-0.114l-0.042,-0.114l-0.04,-0.115l-0.037,-0.117l-0.034,-0.117l-0.031,-0.118l-0.029,-0.119l-0.013,-0.06l-0.012,-0.06l-0.012,-0.06l-0.011,-0.06l-0.01,-0.061l-0.009,-0.061l-0.009,-0.06l-0.008,-0.061l-0.007,-0.062l-0.007,-0.061l-0.005,-0.061l-0.005,-0.062l-0.004,-0.061l-0.004,-0.062l-0.003,-0.062l-0.001,-0.062l-0.002,-0.062l0,-0.062l0,-63l19.976,0l0,63Zm-18.976,-0.003l0,0.053l0.001,0.049l0.002,0.05l0.002,0.049l0.003,0.05l0.003,0.049l0.004,0.049l0.005,0.049l0.005,0.049l0.006,0.049l0.006,0.049l0.007,0.049l0.007,0.048l0.009,0.049l0.008,0.048l0.01,0.048l0.01,0.048l0.009,0.045l0.024,0.098l0.025,0.094l0.027,0.094l0.03,0.093l0.031,0.093l0.034,0.091l0.037,0.091l0.038,0.09l0.041,0.088l0.042,0.088l0.045,0.087l0.047,0.086l0.05,0.084l0.051,0.083l0.055,0.085l0.026,0.038l0.028,0.041l0.028,0.04l0.029,0.039l0.029,0.04l0.03,0.039l0.031,0.038l0.031,0.039l0.031,0.038l0.032,0.037l0.033,0.038l0.033,0.036l0.033,0.037l0.034,0.036l0.035,0.036l0.034,0.035l0.035,0.034l0.036,0.035l0.036,0.034l0.037,0.033l0.036,0.033l0.038,0.033l0.037,0.032l0.038,0.031l0.039,0.031l0.038,0.031l0.039,0.03l0.04,0.029l0.039,0.029l0.04,0.028l0.041,0.028l0.038,0.026l0.085,0.055l0.083,0.051l0.084,0.05l0.086,0.047l0.087,0.045l0.088,0.042l0.088,0.041l0.09,0.038l0.091,0.037l0.091,0.034l0.093,0.031l0.093,0.03l0.094,0.027l0.094,0.025l0.098,0.024l0.045,0.01l0.048,0.009l0.048,0.01l0.048,0.008l0.049,0.009l0.048,0.007l0.049,0.007l0.049,0.006l0.049,0.006l0.049,0.005l0.049,0.005l0.049,0.004l0.049,0.003l0.05,0.003l0.049,0.002l0.05,0.002l0.049,0.001l0.053,0l9.97,0l0.053,0l0.049,-0.001l0.05,-0.002l0.049,-0.002l0.05,-0.003l0.049,-0.003l0.049,-0.004l0.049,-0.005l0.049,-0.005l0.049,-0.006l0.049,-0.006l0.049,-0.007l0.048,-0.007l0.049,-0.009l0.048,-0.008l0.048,-0.01l0.048,-0.009l0.045,-0.01l0.098,-0.024l0.094,-0.025l0.094,-0.027l0.093,-0.03l0.093,-0.031l0.091,-0.034l0.091,-0.037l0.09,-0.038l0.088,-0.041l0.088,-0.042l0.087,-0.045l0.086,-0.047l0.084,-0.05l0.083,-0.051l0.085,-0.055l0.038,-0.026l0.041,-0.028l0.04,-0.028l0.039,-0.029l0.04,-0.029l0.039,-0.03l0.038,-0.031l0.039,-0.031l0.038,-0.031l0.037,-0.032l0.038,-0.033l0.036,-0.033l0.037,-0.033l0.036,-0.034l0.036,-0.035l0.035,-0.034l0.034,-0.035l0.035,-0.036l0.034,-0.036l0.033,-0.037l0.033,-0.036l0.033,-0.038l0.032,-0.037l0.031,-0.038l0.031,-0.039l0.031,-0.038l0.03,-0.039l0.029,-0.04l0.029,-0.039l0.028,-0.04l0.028,-0.041l0.026,-0.038l0.055,-0.085l0.051,-0.083l0.05,-0.084l0.047,-0.086l0.045,-0.087l0.042,-0.088l0.041,-0.088l0.038,-0.09l0.037,-0.091l0.034,-0.091l0.031,-0.093l0.03,-0.093l0.027,-0.093l0.025,-0.095l0.024,-0.098l0.009,-0.045l0.01,-0.048l0.01,-0.048l0.008,-0.048l0.009,-0.049l0.007,-0.048l0.007,-0.049l0.006,-0.049l0.006,-0.049l0.005,-0.049l0.005,-0.049l0.004,-0.049l0.003,-0.049l0.003,-0.05l0.002,-0.049l0.002,-0.05l0.001,-0.049l0,-0.053l0,-61.997l-17.976,0l0,61.997Z" style="fill:#ddd;"/><path d="M245.976,0l-19.976,0l0,63c0,1.326 0.527,2.598 1.464,3.536c0.938,0.937 2.21,1.464 3.536,1.464l9.976,0c1.326,0 2.598,-0.527 3.536,-1.464c0.937,-0.938 1.464,-2.21 1.464,-3.536l0,-63Z" style="fill:#fff;"/><path d="M245.976,63l0,0.062l-0.002,0.062l-0.001,0.062l-0.003,0.062l-0.004,0.062l-0.004,0.061l-0.005,0.062l-0.005,0.061l-0.007,0.061l-0.007,0.062l-0.008,0.061l-0.009,0.06l-0.009,0.061l-0.01,0.061l-0.011,0.06l-0.012,0.06l-0.012,0.06l-0.013,0.06l-0.029,0.119l-0.031,0.118l-0.034,0.117l-0.037,0.117l-0.04,0.115l-0.042,0.114l-0.046,0.114l-0.048,0.112l-0.05,0.111l-0.054,0.109l-0.056,0.109l-0.059,0.107l-0.061,0.105l-0.064,0.105l-0.067,0.102l-0.034,0.051l-0.035,0.05l-0.036,0.05l-0.036,0.05l-0.037,0.049l-0.037,0.049l-0.038,0.048l-0.039,0.048l-0.039,0.048l-0.04,0.047l-0.041,0.046l-0.041,0.046l-0.042,0.046l-0.042,0.045l-0.043,0.045l-0.044,0.044l-0.044,0.044l-0.045,0.043l-0.045,0.042l-0.046,0.042l-0.046,0.041l-0.046,0.041l-0.047,0.04l-0.048,0.039l-0.048,0.039l-0.048,0.038l-0.049,0.037l-0.049,0.037l-0.05,0.036l-0.05,0.036l-0.05,0.035l-0.051,0.034l-0.102,0.067l-0.105,0.064l-0.105,0.061l-0.107,0.059l-0.109,0.056l-0.109,0.054l-0.111,0.05l-0.113,0.048l-0.113,0.046l-0.114,0.042l-0.115,0.04l-0.117,0.037l-0.117,0.034l-0.118,0.031l-0.119,0.029l-0.06,0.013l-0.06,0.012l-0.06,0.012l-0.06,0.011l-0.061,0.01l-0.061,0.009l-0.06,0.009l-0.061,0.008l-0.062,0.007l-0.061,0.007l-0.061,0.005l-0.062,0.005l-0.061,0.004l-0.062,0.004l-0.062,0.003l-0.062,0.001l-0.062,0.002l-0.062,0l-9.976,0l-0.062,0l-0.062,-0.002l-0.062,-0.001l-0.062,-0.003l-0.062,-0.004l-0.061,-0.004l-0.062,-0.005l-0.061,-0.005l-0.061,-0.007l-0.062,-0.007l-0.061,-0.008l-0.06,-0.009l-0.061,-0.009l-0.061,-0.01l-0.06,-0.011l-0.06,-0.012l-0.06,-0.012l-0.06,-0.013l-0.119,-0.029l-0.118,-0.031l-0.117,-0.034l-0.117,-0.037l-0.115,-0.04l-0.114,-0.042l-0.113,-0.046l-0.113,-0.048l-0.111,-0.05l-0.109,-0.054l-0.109,-0.056l-0.107,-0.059l-0.105,-0.061l-0.105,-0.064l-0.102,-0.067l-0.051,-0.034l-0.05,-0.035l-0.05,-0.036l-0.05,-0.036l-0.049,-0.037l-0.049,-0.037l-0.048,-0.038l-0.048,-0.039l-0.048,-0.039l-0.047,-0.04l-0.046,-0.041l-0.046,-0.041l-0.046,-0.042l-0.045,-0.042l-0.045,-0.043l-0.044,-0.044l-0.044,-0.044l-0.043,-0.045l-0.042,-0.045l-0.042,-0.046l-0.041,-0.046l-0.041,-0.046l-0.04,-0.047l-0.039,-0.048l-0.039,-0.048l-0.038,-0.048l-0.037,-0.049l-0.037,-0.049l-0.036,-0.05l-0.036,-0.05l-0.035,-0.05l-0.034,-0.051l-0.067,-0.102l-0.064,-0.105l-0.061,-0.105l-0.059,-0.107l-0.056,-0.109l-0.054,-0.109l-0.05,-0.111l-0.048,-0.112l-0.046,-0.114l-0.042,-0.114l-0.04,-0.115l-0.037,-0.117l-0.034,-0.117l-0.031,-0.118l-0.029,-0.119l-0.013,-0.06l-0.012,-0.06l-0.012,-0.06l-0.011,-0.06l-0.01,-0.061l-0.009,-0.061l-0.009,-0.06l-0.008,-0.061l-0.007,-0.062l-0.007,-0.061l-0.005,-0.061l-0.005,-0.062l-0.004,-0.061l-0.004,-0.062l-0.003,-0.062l-0.001,-0.062l-0.002,-0.062l0,-0.062l0,-63l19.976,0l0,63Zm-18.976,-0.003l0,0.053l0.001,0.049l0.002,0.05l0.002,0.05l0.003,0.049l0.003,0.049l0.004,0.049l0.005,0.049l0.005,0.049l0.006,0.049l0.006,0.049l0.007,0.049l0.007,0.048l0.009,0.049l0.008,0.048l0.01,0.048l0.009,0.048l0.01,0.045l0.024,0.098l0.025,0.094l0.027,0.094l0.03,0.093l0.031,0.093l0.034,0.091l0.037,0.091l0.038,0.09l0.041,0.088l0.042,0.088l0.045,0.087l0.047,0.086l0.05,0.084l0.051,0.083l0.055,0.085l0.026,0.038l0.028,0.041l0.028,0.04l0.029,0.039l0.029,0.04l0.03,0.039l0.031,0.038l0.031,0.039l0.031,0.038l0.032,0.037l0.033,0.038l0.033,0.036l0.033,0.037l0.034,0.036l0.035,0.036l0.034,0.035l0.035,0.034l0.036,0.035l0.036,0.034l0.037,0.033l0.037,0.033l0.037,0.033l0.037,0.032l0.038,0.031l0.039,0.031l0.038,0.031l0.039,0.03l0.04,0.029l0.039,0.029l0.04,0.028l0.041,0.028l0.038,0.026l0.084,0.055l0.084,0.051l0.084,0.05l0.086,0.047l0.087,0.045l0.088,0.042l0.088,0.041l0.09,0.038l0.091,0.037l0.091,0.034l0.093,0.031l0.093,0.03l0.093,0.027l0.095,0.025l0.098,0.024l0.045,0.01l0.048,0.009l0.048,0.01l0.048,0.008l0.049,0.009l0.048,0.007l0.049,0.007l0.049,0.006l0.049,0.006l0.049,0.005l0.049,0.005l0.049,0.004l0.049,0.003l0.05,0.003l0.049,0.002l0.05,0.002l0.049,0.001l0.053,0l9.97,0l0.053,0l0.049,-0.001l0.05,-0.002l0.049,-0.002l0.05,-0.003l0.049,-0.003l0.049,-0.004l0.049,-0.005l0.049,-0.005l0.049,-0.006l0.049,-0.006l0.049,-0.007l0.048,-0.007l0.049,-0.009l0.048,-0.008l0.048,-0.01l0.048,-0.009l0.045,-0.01l0.098,-0.024l0.095,-0.025l0.093,-0.027l0.093,-0.03l0.093,-0.031l0.091,-0.034l0.091,-0.037l0.09,-0.038l0.088,-0.041l0.088,-0.042l0.087,-0.045l0.086,-0.047l0.084,-0.05l0.083,-0.051l0.085,-0.055l0.038,-0.026l0.041,-0.028l0.04,-0.028l0.039,-0.029l0.04,-0.029l0.039,-0.03l0.038,-0.031l0.039,-0.031l0.038,-0.031l0.037,-0.032l0.038,-0.033l0.036,-0.033l0.037,-0.033l0.036,-0.034l0.036,-0.035l0.035,-0.034l0.034,-0.035l0.035,-0.036l0.034,-0.036l0.033,-0.037l0.033,-0.036l0.033,-0.038l0.032,-0.037l0.031,-0.038l0.031,-0.039l0.031,-0.038l0.03,-0.039l0.029,-0.04l0.029,-0.039l0.028,-0.04l0.028,-0.041l0.026,-0.038l0.055,-0.085l0.051,-0.083l0.05,-0.084l0.047,-0.086l0.045,-0.087l0.042,-0.088l0.041,-0.088l0.038,-0.09l0.037,-0.091l0.034,-0.091l0.031,-0.093l0.03,-0.093l0.027,-0.094l0.025,-0.094l0.024,-0.098l0.01,-0.045l0.009,-0.048l0.01,-0.048l0.008,-0.048l0.009,-0.049l0.007,-0.048l0.007,-0.049l0.006,-0.049l0.006,-0.049l0.005,-0.049l0.005,-0.049l0.004,-0.049l0.003,-0.049l0.003,-0.05l0.002,-0.049l0.002,-0.049l0.001,-0.05l0,-0.053l0,-61.997l-17.976,0l0,61.997Z" style="fill:#ddd;"/><path d="M73.976,0l-19.976,0l0,63c0,1.326 0.527,2.598 1.464,3.536c0.938,0.937 2.21,1.464 3.536,1.464l9.976,0c1.326,0 2.598,-0.527 3.536,-1.464c0.937,-0.938 1.464,-2.21 1.464,-3.536l0,-63Z" style="fill:#fff;"/><path d="M73.976,63l0,0.062l-0.002,0.062l-0.001,0.062l-0.003,0.062l-0.004,0.062l-0.004,0.061l-0.005,0.062l-0.005,0.061l-0.007,0.061l-0.007,0.062l-0.008,0.061l-0.009,0.06l-0.009,0.061l-0.01,0.061l-0.011,0.06l-0.012,0.06l-0.012,0.06l-0.013,0.06l-0.029,0.119l-0.031,0.118l-0.034,0.117l-0.037,0.117l-0.04,0.115l-0.042,0.114l-0.046,0.114l-0.048,0.112l-0.05,0.111l-0.054,0.109l-0.056,0.109l-0.059,0.107l-0.061,0.105l-0.064,0.105l-0.067,0.102l-0.034,0.051l-0.035,0.05l-0.036,0.05l-0.036,0.05l-0.037,0.049l-0.037,0.049l-0.038,0.048l-0.039,0.048l-0.039,0.048l-0.04,0.047l-0.041,0.046l-0.041,0.046l-0.042,0.046l-0.042,0.045l-0.043,0.045l-0.044,0.044l-0.044,0.044l-0.045,0.043l-0.045,0.042l-0.046,0.042l-0.046,0.041l-0.046,0.041l-0.047,0.04l-0.048,0.039l-0.048,0.039l-0.048,0.038l-0.049,0.037l-0.049,0.037l-0.05,0.036l-0.05,0.036l-0.05,0.035l-0.051,0.034l-0.102,0.067l-0.105,0.064l-0.105,0.061l-0.107,0.059l-0.109,0.056l-0.109,0.054l-0.111,0.05l-0.112,0.048l-0.114,0.046l-0.114,0.042l-0.115,0.04l-0.117,0.037l-0.117,0.034l-0.118,0.031l-0.119,0.029l-0.06,0.013l-0.06,0.012l-0.06,0.012l-0.06,0.011l-0.061,0.01l-0.061,0.009l-0.06,0.009l-0.061,0.008l-0.062,0.007l-0.061,0.007l-0.061,0.005l-0.062,0.005l-0.061,0.004l-0.062,0.004l-0.062,0.003l-0.062,0.001l-0.062,0.002l-0.062,0l-9.976,0l-0.062,0l-0.062,-0.002l-0.062,-0.001l-0.062,-0.003l-0.062,-0.004l-0.061,-0.004l-0.062,-0.005l-0.061,-0.005l-0.061,-0.007l-0.062,-0.007l-0.061,-0.008l-0.06,-0.009l-0.061,-0.009l-0.061,-0.01l-0.06,-0.011l-0.06,-0.012l-0.06,-0.012l-0.06,-0.013l-0.119,-0.029l-0.118,-0.031l-0.117,-0.034l-0.117,-0.037l-0.115,-0.04l-0.114,-0.042l-0.113,-0.046l-0.113,-0.048l-0.111,-0.05l-0.109,-0.054l-0.109,-0.056l-0.107,-0.059l-0.105,-0.061l-0.105,-0.064l-0.102,-0.067l-0.051,-0.034l-0.05,-0.035l-0.05,-0.036l-0.05,-0.036l-0.049,-0.037l-0.049,-0.037l-0.048,-0.038l-0.048,-0.039l-0.048,-0.039l-0.047,-0.04l-0.046,-0.041l-0.046,-0.041l-0.046,-0.042l-0.045,-0.042l-0.045,-0.043l-0.044,-0.044l-0.044,-0.044l-0.043,-0.045l-0.042,-0.045l-0.042,-0.046l-0.041,-0.046l-0.041,-0.046l-0.04,-0.047l-0.039,-0.048l-0.039,-0.048l-0.038,-0.048l-0.037,-0.049l-0.037,-0.049l-0.036,-0.05l-0.036,-0.05l-0.035,-0.05l-0.034,-0.051l-0.067,-0.102l-0.064,-0.105l-0.061,-0.105l-0.059,-0.107l-0.056,-0.109l-0.054,-0.109l-0.05,-0.111l-0.048,-0.112l-0.046,-0.114l-0.042,-0.114l-0.04,-0.115l-0.037,-0.117l-0.034,-0.117l-0.031,-0.118l-0.029,-0.119l-0.013,-0.06l-0.012,-0.06l-0.012,-0.06l-0.011,-0.06l-0.01,-0.061l-0.009,-0.061l-0.009,-0.06l-0.008,-0.061l-0.007,-0.062l-0.007,-0.061l-0.005,-0.061l-0.005,-0.062l-0.004,-0.061l-0.004,-0.062l-0.003,-0.062l-0.001,-0.062l-0.002,-0.062l0,-0.062l0,-63l19.976,0l0,63Zm-18.976,-0.003l0,0.053l0.001,0.049l0.002,0.05l0.002,0.049l0.003,0.05l0.003,0.049l0.004,0.049l0.005,0.049l0.005,0.049l0.006,0.049l0.006,0.049l0.007,0.049l0.007,0.048l0.009,0.049l0.008,0.048l0.01,0.048l0.01,0.048l0.009,0.045l0.024,0.098l0.025,0.095l0.027,0.093l0.03,0.093l0.031,0.093l0.034,0.091l0.037,0.091l0.038,0.09l0.041,0.088l0.042,0.088l0.045,0.087l0.047,0.086l0.05,0.084l0.051,0.083l0.055,0.085l0.026,0.038l0.028,0.041l0.028,0.04l0.029,0.039l0.029,0.04l0.03,0.039l0.031,0.038l0.031,0.039l0.031,0.038l0.032,0.037l0.033,0.038l0.033,0.036l0.033,0.037l0.034,0.036l0.035,0.036l0.034,0.035l0.035,0.034l0.036,0.035l0.036,0.034l0.037,0.033l0.036,0.033l0.038,0.033l0.037,0.032l0.038,0.031l0.039,0.031l0.038,0.031l0.039,0.03l0.04,0.029l0.039,0.029l0.04,0.028l0.041,0.028l0.038,0.026l0.085,0.055l0.083,0.051l0.084,0.05l0.086,0.047l0.087,0.045l0.088,0.042l0.088,0.041l0.09,0.038l0.091,0.037l0.091,0.034l0.093,0.031l0.093,0.03l0.094,0.027l0.094,0.025l0.098,0.024l0.045,0.01l0.048,0.009l0.048,0.01l0.048,0.008l0.049,0.009l0.048,0.007l0.049,0.007l0.049,0.006l0.049,0.006l0.049,0.005l0.049,0.005l0.049,0.004l0.049,0.003l0.05,0.003l0.049,0.002l0.05,0.002l0.049,0.001l0.053,0l9.97,0l0.053,0l0.049,-0.001l0.05,-0.002l0.049,-0.002l0.05,-0.003l0.049,-0.003l0.049,-0.004l0.049,-0.005l0.049,-0.005l0.049,-0.006l0.049,-0.006l0.049,-0.007l0.048,-0.007l0.049,-0.009l0.048,-0.008l0.048,-0.01l0.048,-0.009l0.045,-0.01l0.098,-0.024l0.094,-0.025l0.094,-0.027l0.093,-0.03l0.093,-0.031l0.091,-0.034l0.091,-0.037l0.09,-0.038l0.088,-0.041l0.088,-0.042l0.087,-0.045l0.086,-0.047l0.084,-0.05l0.083,-0.051l0.085,-0.055l0.038,-0.026l0.041,-0.028l0.04,-0.028l0.039,-0.029l0.04,-0.029l0.039,-0.03l0.038,-0.031l0.039,-0.031l0.038,-0.031l0.037,-0.032l0.037,-0.033l0.037,-0.033l0.037,-0.033l0.036,-0.034l0.036,-0.035l0.035,-0.034l0.034,-0.035l0.035,-0.036l0.034,-0.036l0.033,-0.037l0.033,-0.036l0.033,-0.038l0.032,-0.037l0.031,-0.038l0.031,-0.039l0.031,-0.038l0.03,-0.039l0.029,-0.04l0.029,-0.039l0.028,-0.04l0.028,-0.041l0.026,-0.038l0.055,-0.085l0.051,-0.083l0.05,-0.084l0.047,-0.086l0.045,-0.087l0.042,-0.088l0.041,-0.088l0.038,-0.09l0.037,-0.091l0.034,-0.091l0.031,-0.093l0.03,-0.093l0.027,-0.094l0.025,-0.094l0.024,-0.098l0.01,-0.045l0.009,-0.048l0.01,-0.048l0.008,-0.048l0.009,-0.049l0.007,-0.048l0.007,-0.049l0.006,-0.049l0.006,-0.049l0.005,-0.049l0.005,-0.049l0.004,-0.049l0.003,-0.049l0.003,-0.05l0.002,-0.049l0.002,-0.05l0.001,-0.049l0,-0.053l0,-61.997l-17.976,0l0,61.997Z" style="fill:#ddd;"/><path d="M283.976,0l-19.976,0l0,63c0,1.326 0.527,2.598 1.464,3.536c0.938,0.937 2.21,1.464 3.536,1.464l9.976,0c1.326,0 2.598,-0.527 3.536,-1.464c0.937,-0.938 1.464,-2.21 1.464,-3.536l0,-63Z" style="fill:#fff;"/><path d="M283.976,63l0,0.062l-0.002,0.062l-0.001,0.062l-0.003,0.062l-0.004,0.062l-0.004,0.061l-0.005,0.062l-0.005,0.061l-0.007,0.061l-0.007,0.062l-0.008,0.061l-0.009,0.06l-0.009,0.061l-0.01,0.061l-0.011,0.06l-0.012,0.06l-0.012,0.06l-0.013,0.06l-0.029,0.119l-0.031,0.118l-0.034,0.117l-0.037,0.117l-0.04,0.115l-0.042,0.114l-0.046,0.114l-0.048,0.112l-0.05,0.111l-0.054,0.109l-0.056,0.109l-0.059,0.107l-0.061,0.105l-0.064,0.105l-0.067,0.102l-0.034,0.051l-0.035,0.05l-0.036,0.05l-0.036,0.05l-0.037,0.049l-0.037,0.049l-0.038,0.048l-0.039,0.048l-0.039,0.048l-0.04,0.047l-0.041,0.046l-0.041,0.046l-0.042,0.046l-0.042,0.045l-0.043,0.045l-0.044,0.044l-0.044,0.044l-0.045,0.043l-0.045,0.042l-0.046,0.042l-0.046,0.041l-0.046,0.041l-0.047,0.04l-0.048,0.039l-0.048,0.039l-0.048,0.038l-0.049,0.037l-0.049,0.037l-0.05,0.036l-0.05,0.036l-0.05,0.035l-0.051,0.034l-0.102,0.067l-0.105,0.064l-0.105,0.061l-0.107,0.059l-0.109,0.056l-0.109,0.054l-0.111,0.05l-0.113,0.048l-0.113,0.046l-0.114,0.042l-0.115,0.04l-0.117,0.037l-0.117,0.034l-0.118,0.031l-0.119,0.029l-0.06,0.013l-0.06,0.012l-0.06,0.012l-0.06,0.011l-0.061,0.01l-0.061,0.009l-0.06,0.009l-0.061,0.008l-0.062,0.007l-0.061,0.007l-0.061,0.005l-0.062,0.005l-0.061,0.004l-0.062,0.004l-0.062,0.003l-0.062,0.001l-0.062,0.002l-0.062,0l-9.976,0l-0.062,0l-0.062,-0.002l-0.062,-0.001l-0.062,-0.003l-0.062,-0.004l-0.061,-0.004l-0.062,-0.005l-0.061,-0.005l-0.061,-0.007l-0.062,-0.007l-0.061,-0.008l-0.06,-0.009l-0.061,-0.009l-0.061,-0.01l-0.06,-0.011l-0.06,-0.012l-0.06,-0.012l-0.06,-0.013l-0.119,-0.029l-0.118,-0.031l-0.117,-0.034l-0.117,-0.037l-0.115,-0.04l-0.114,-0.042l-0.114,-0.046l-0.112,-0.048l-0.111,-0.05l-0.109,-0.054l-0.109,-0.056l-0.107,-0.059l-0.105,-0.061l-0.105,-0.064l-0.102,-0.067l-0.051,-0.034l-0.05,-0.035l-0.05,-0.036l-0.05,-0.036l-0.049,-0.037l-0.049,-0.037l-0.048,-0.038l-0.048,-0.039l-0.048,-0.039l-0.047,-0.04l-0.046,-0.041l-0.046,-0.041l-0.046,-0.042l-0.045,-0.042l-0.045,-0.043l-0.044,-0.044l-0.044,-0.044l-0.043,-0.045l-0.042,-0.045l-0.042,-0.046l-0.041,-0.046l-0.041,-0.046l-0.04,-0.047l-0.039,-0.048l-0.039,-0.048l-0.038,-0.048l-0.037,-0.049l-0.037,-0.049l-0.036,-0.05l-0.036,-0.05l-0.035,-0.05l-0.034,-0.051l-0.067,-0.102l-0.064,-0.105l-0.061,-0.105l-0.059,-0.107l-0.056,-0.109l-0.054,-0.109l-0.05,-0.111l-0.048,-0.112l-0.046,-0.114l-0.042,-0.114l-0.04,-0.115l-0.037,-0.117l-0.034,-0.117l-0.031,-0.118l-0.029,-0.119l-0.013,-0.06l-0.012,-0.06l-0.012,-0.06l-0.011,-0.06l-0.01,-0.061l-0.009,-0.061l-0.009,-0.06l-0.008,-0.061l-0.007,-0.062l-0.007,-0.061l-0.005,-0.061l-0.005,-0.062l-0.004,-0.061l-0.004,-0.062l-0.003,-0.062l-0.001,-0.062l-0.002,-0.062l0,-0.062l0,-63l19.976,0l0,63Zm-18.976,-0.003l0,0.053l0.001,0.049l0.002,0.05l0.002,0.049l0.003,0.05l0.003,0.049l0.004,0.049l0.005,0.049l0.005,0.049l0.006,0.049l0.006,0.049l0.007,0.049l0.007,0.048l0.009,0.049l0.008,0.048l0.01,0.048l0.01,0.048l0.009,0.045l0.024,0.098l0.025,0.095l0.027,0.093l0.03,0.093l0.031,0.093l0.034,0.091l0.037,0.091l0.038,0.09l0.041,0.088l0.042,0.088l0.045,0.087l0.047,0.086l0.05,0.084l0.051,0.084l0.055,0.084l0.026,0.038l0.028,0.041l0.028,0.04l0.029,0.039l0.029,0.04l0.03,0.039l0.031,0.038l0.031,0.039l0.031,0.038l0.032,0.037l0.033,0.037l0.033,0.037l0.033,0.037l0.034,0.036l0.035,0.036l0.034,0.035l0.035,0.034l0.036,0.035l0.036,0.034l0.037,0.033l0.037,0.033l0.037,0.033l0.037,0.032l0.038,0.031l0.039,0.031l0.038,0.031l0.039,0.03l0.04,0.029l0.039,0.029l0.04,0.028l0.041,0.028l0.038,0.026l0.084,0.055l0.084,0.051l0.084,0.05l0.086,0.047l0.087,0.045l0.088,0.042l0.088,0.041l0.09,0.038l0.091,0.037l0.091,0.034l0.093,0.031l0.093,0.03l0.094,0.027l0.094,0.025l0.098,0.024l0.045,0.01l0.048,0.009l0.048,0.01l0.048,0.008l0.049,0.009l0.048,0.007l0.049,0.007l0.049,0.006l0.049,0.006l0.049,0.005l0.049,0.005l0.049,0.004l0.049,0.003l0.05,0.003l0.049,0.002l0.05,0.002l0.049,0.001l0.053,0l9.97,0l0.053,0l0.049,-0.001l0.05,-0.002l0.049,-0.002l0.05,-0.003l0.049,-0.003l0.049,-0.004l0.049,-0.005l0.049,-0.005l0.049,-0.006l0.049,-0.006l0.049,-0.007l0.048,-0.007l0.049,-0.009l0.048,-0.008l0.048,-0.01l0.048,-0.009l0.045,-0.01l0.098,-0.024l0.094,-0.025l0.094,-0.027l0.093,-0.03l0.093,-0.031l0.091,-0.034l0.091,-0.037l0.09,-0.038l0.088,-0.041l0.088,-0.042l0.087,-0.045l0.086,-0.047l0.084,-0.05l0.083,-0.051l0.085,-0.055l0.038,-0.026l0.041,-0.028l0.04,-0.028l0.039,-0.029l0.04,-0.029l0.039,-0.03l0.038,-0.031l0.039,-0.031l0.038,-0.031l0.037,-0.032l0.038,-0.033l0.036,-0.033l0.037,-0.033l0.036,-0.034l0.036,-0.035l0.035,-0.034l0.034,-0.035l0.035,-0.036l0.034,-0.036l0.033,-0.037l0.033,-0.036l0.033,-0.038l0.032,-0.037l0.031,-0.038l0.031,-0.039l0.031,-0.038l0.03,-0.039l0.029,-0.04l0.029,-0.039l0.028,-0.04l0.028,-0.041l0.026,-0.038l0.055,-0.085l0.051,-0.083l0.05,-0.084l0.047,-0.086l0.045,-0.087l0.042,-0.088l0.041,-0.088l0.038,-0.09l0.037,-0.091l0.034,-0.091l0.031,-0.092l0.03,-0.094l0.027,-0.094l0.025,-0.094l0.024,-0.098l0.009,-0.045l0.01,-0.048l0.01,-0.048l0.008,-0.048l0.009,-0.049l0.007,-0.048l0.007,-0.049l0.006,-0.049l0.006,-0.049l0.005,-0.049l0.005,-0.049l0.004,-0.049l0.003,-0.049l0.003,-0.05l0.002,-0.049l0.002,-0.05l0.001,-0.049l0,-0.053l0,-61.997l-17.976,0l0,61.997Z" style="fill:#ddd;"/><path d="M125.976,0l-19.976,0l0,63c0,1.326 0.527,2.598 1.464,3.536c0.938,0.937 2.21,1.464 3.536,1.464l9.976,0c1.326,0 2.598,-0.527 3.536,-1.464c0.937,-0.938 1.464,-2.21 1.464,-3.536l0,-63Z" style="fill:#fff;"/><path d="M125.976,63l0,0.062l-0.002,0.062l-0.001,0.062l-0.003,0.062l-0.004,0.062l-0.004,0.061l-0.005,0.062l-0.005,0.061l-0.007,0.061l-0.007,0.062l-0.008,0.061l-0.009,0.06l-0.009,0.061l-0.01,0.061l-0.011,0.06l-0.012,0.06l-0.012,0.06l-0.013,0.06l-0.029,0.119l-0.031,0.118l-0.034,0.117l-0.037,0.117l-0.04,0.115l-0.042,0.114l-0.046,0.114l-0.048,0.112l-0.05,0.111l-0.054,0.109l-0.056,0.109l-0.059,0.107l-0.061,0.105l-0.064,0.105l-0.067,0.102l-0.034,0.051l-0.035,0.05l-0.036,0.05l-0.036,0.05l-0.037,0.049l-0.037,0.049l-0.038,0.048l-0.039,0.048l-0.039,0.048l-0.04,0.047l-0.041,0.046l-0.041,0.046l-0.042,0.046l-0.042,0.045l-0.043,0.045l-0.044,0.044l-0.044,0.044l-0.045,0.043l-0.045,0.042l-0.046,0.042l-0.046,0.041l-0.046,0.041l-0.047,0.04l-0.048,0.039l-0.048,0.039l-0.048,0.038l-0.049,0.037l-0.049,0.037l-0.05,0.036l-0.05,0.036l-0.05,0.035l-0.051,0.034l-0.102,0.067l-0.105,0.064l-0.105,0.061l-0.107,0.059l-0.109,0.056l-0.109,0.054l-0.111,0.05l-0.112,0.048l-0.114,0.046l-0.114,0.042l-0.115,0.04l-0.117,0.037l-0.117,0.034l-0.118,0.031l-0.119,0.029l-0.06,0.013l-0.06,0.012l-0.06,0.012l-0.06,0.011l-0.061,0.01l-0.061,0.009l-0.06,0.009l-0.061,0.008l-0.062,0.007l-0.061,0.007l-0.061,0.005l-0.062,0.005l-0.061,0.004l-0.062,0.004l-0.062,0.003l-0.062,0.001l-0.062,0.002l-0.062,0l-9.976,0l-0.062,0l-0.062,-0.002l-0.062,-0.001l-0.062,-0.003l-0.062,-0.004l-0.061,-0.004l-0.062,-0.005l-0.061,-0.005l-0.061,-0.007l-0.062,-0.007l-0.061,-0.008l-0.06,-0.009l-0.061,-0.009l-0.061,-0.01l-0.06,-0.011l-0.06,-0.012l-0.06,-0.012l-0.06,-0.013l-0.119,-0.029l-0.118,-0.031l-0.117,-0.034l-0.117,-0.037l-0.115,-0.04l-0.114,-0.042l-0.113,-0.046l-0.113,-0.048l-0.111,-0.05l-0.109,-0.054l-0.109,-0.056l-0.107,-0.059l-0.105,-0.061l-0.105,-0.064l-0.102,-0.067l-0.051,-0.034l-0.05,-0.035l-0.05,-0.036l-0.05,-0.036l-0.049,-0.037l-0.049,-0.037l-0.048,-0.038l-0.048,-0.039l-0.048,-0.039l-0.047,-0.04l-0.046,-0.041l-0.046,-0.041l-0.046,-0.042l-0.045,-0.042l-0.045,-0.043l-0.044,-0.044l-0.044,-0.044l-0.043,-0.045l-0.042,-0.045l-0.042,-0.046l-0.041,-0.046l-0.041,-0.046l-0.04,-0.047l-0.039,-0.048l-0.039,-0.048l-0.038,-0.048l-0.037,-0.049l-0.037,-0.049l-0.036,-0.05l-0.036,-0.05l-0.035,-0.05l-0.034,-0.051l-0.067,-0.102l-0.064,-0.105l-0.061,-0.105l-0.059,-0.107l-0.056,-0.109l-0.054,-0.109l-0.05,-0.111l-0.048,-0.112l-0.046,-0.114l-0.042,-0.114l-0.04,-0.115l-0.037,-0.117l-0.034,-0.117l-0.031,-0.118l-0.029,-0.119l-0.013,-0.06l-0.012,-0.06l-0.012,-0.06l-0.011,-0.06l-0.01,-0.061l-0.009,-0.061l-0.009,-0.06l-0.008,-0.061l-0.007,-0.062l-0.007,-0.061l-0.005,-0.061l-0.005,-0.062l-0.004,-0.061l-0.004,-0.062l-0.003,-0.062l-0.001,-0.062l-0.002,-0.062l0,-0.062l0,-63l19.976,0l0,63Zm-18.976,-0.003l0,0.053l0.001,0.049l0.002,0.05l0.002,0.049l0.003,0.05l0.003,0.049l0.004,0.049l0.005,0.049l0.005,0.049l0.006,0.049l0.006,0.049l0.007,0.049l0.007,0.048l0.009,0.049l0.008,0.048l0.01,0.048l0.01,0.048l0.009,0.045l0.024,0.098l0.025,0.094l0.027,0.094l0.03,0.093l0.031,0.093l0.034,0.091l0.037,0.091l0.038,0.09l0.041,0.088l0.042,0.088l0.045,0.087l0.047,0.086l0.05,0.084l0.051,0.083l0.055,0.085l0.026,0.038l0.028,0.041l0.028,0.04l0.029,0.039l0.029,0.04l0.03,0.039l0.031,0.038l0.031,0.039l0.031,0.038l0.032,0.037l0.033,0.038l0.033,0.036l0.033,0.037l0.034,0.036l0.035,0.036l0.034,0.035l0.035,0.034l0.036,0.035l0.036,0.034l0.037,0.033l0.036,0.033l0.038,0.033l0.037,0.032l0.038,0.031l0.039,0.031l0.038,0.031l0.039,0.03l0.04,0.029l0.039,0.029l0.04,0.028l0.041,0.028l0.038,0.026l0.085,0.055l0.083,0.051l0.084,0.05l0.086,0.047l0.087,0.045l0.088,0.042l0.088,0.041l0.09,0.038l0.091,0.037l0.091,0.034l0.093,0.031l0.093,0.03l0.094,0.027l0.094,0.025l0.098,0.024l0.045,0.01l0.048,0.009l0.048,0.01l0.048,0.008l0.049,0.009l0.048,0.007l0.049,0.007l0.049,0.006l0.049,0.006l0.049,0.005l0.049,0.005l0.049,0.004l0.049,0.003l0.05,0.003l0.049,0.002l0.05,0.002l0.049,0.001l0.053,0l9.97,0l0.053,0l0.049,-0.001l0.05,-0.002l0.049,-0.002l0.05,-0.003l0.049,-0.003l0.049,-0.004l0.049,-0.005l0.049,-0.005l0.049,-0.006l0.049,-0.006l0.049,-0.007l0.048,-0.007l0.049,-0.009l0.048,-0.008l0.048,-0.01l0.048,-0.009l0.045,-0.01l0.098,-0.024l0.094,-0.025l0.094,-0.027l0.093,-0.03l0.093,-0.031l0.091,-0.034l0.091,-0.037l0.09,-0.038l0.088,-0.041l0.088,-0.042l0.087,-0.045l0.086,-0.047l0.084,-0.05l0.083,-0.051l0.085,-0.055l0.038,-0.026l0.041,-0.028l0.04,-0.028l0.039,-0.029l0.04,-0.029l0.039,-0.03l0.038,-0.031l0.039,-0.031l0.038,-0.031l0.037,-0.032l0.037,-0.033l0.037,-0.033l0.037,-0.033l0.036,-0.034l0.036,-0.035l0.035,-0.034l0.034,-0.035l0.035,-0.036l0.034,-0.036l0.033,-0.037l0.033,-0.036l0.033,-0.038l0.032,-0.037l0.031,-0.038l0.031,-0.039l0.031,-0.038l0.03,-0.039l0.029,-0.04l0.029,-0.039l0.028,-0.04l0.028,-0.041l0.026,-0.038l0.055,-0.085l0.051,-0.083l0.05,-0.084l0.047,-0.086l0.045,-0.087l0.042,-0.088l0.041,-0.088l0.038,-0.09l0.037,-0.091l0.034,-0.091l0.031,-0.093l0.03,-0.093l0.027,-0.094l0.025,-0.094l0.024,-0.098l0.009,-0.045l0.01,-0.048l0.01,-0.048l0.008,-0.048l0.009,-0.049l0.007,-0.048l0.007,-0.049l0.006,-0.049l0.006,-0.049l0.005,-0.049l0.005,-0.049l0.004,-0.049l0.003,-0.049l0.003,-0.05l0.002,-0.049l0.002,-0.05l0.001,-0.049l0,-0.053l0,-61.997l-17.976,0l0,61.997Z" style="fill:#ddd;"/><path d="M335.976,0l-19.976,0l0,63c0,1.326 0.527,2.598 1.464,3.536c0.938,0.937 2.21,1.464 3.536,1.464l9.976,0c1.326,0 2.598,-0.527 3.536,-1.464c0.937,-0.938 1.464,-2.21 1.464,-3.536l0,-63Z" style="fill:#fff;"/><path d="M335.976,63l0,0.062l-0.002,0.062l-0.001,0.062l-0.003,0.062l-0.004,0.062l-0.004,0.061l-0.005,0.062l-0.005,0.061l-0.007,0.061l-0.007,0.062l-0.008,0.061l-0.009,0.06l-0.009,0.061l-0.01,0.061l-0.011,0.06l-0.012,0.06l-0.012,0.06l-0.013,0.06l-0.029,0.119l-0.031,0.118l-0.034,0.117l-0.037,0.117l-0.04,0.115l-0.042,0.114l-0.046,0.114l-0.048,0.112l-0.05,0.111l-0.054,0.109l-0.056,0.109l-0.059,0.107l-0.061,0.105l-0.064,0.105l-0.067,0.102l-0.034,0.051l-0.035,0.05l-0.036,0.05l-0.036,0.05l-0.037,0.049l-0.037,0.049l-0.038,0.048l-0.039,0.048l-0.039,0.048l-0.04,0.047l-0.041,0.046l-0.041,0.046l-0.042,0.046l-0.042,0.045l-0.043,0.045l-0.044,0.044l-0.044,0.044l-0.045,0.043l-0.045,0.042l-0.046,0.042l-0.046,0.041l-0.046,0.041l-0.047,0.04l-0.048,0.039l-0.048,0.039l-0.048,0.038l-0.049,0.037l-0.049,0.037l-0.05,0.036l-0.05,0.036l-0.05,0.035l-0.051,0.034l-0.102,0.067l-0.105,0.064l-0.105,0.061l-0.107,0.059l-0.109,0.056l-0.109,0.054l-0.111,0.05l-0.113,0.048l-0.113,0.046l-0.114,0.042l-0.115,0.04l-0.117,0.037l-0.117,0.034l-0.118,0.031l-0.119,0.029l-0.06,0.013l-0.06,0.012l-0.06,0.012l-0.06,0.011l-0.061,0.01l-0.061,0.009l-0.06,0.009l-0.061,0.008l-0.062,0.007l-0.061,0.007l-0.061,0.005l-0.062,0.005l-0.061,0.004l-0.062,0.004l-0.062,0.003l-0.062,0.001l-0.062,0.002l-0.062,0l-9.976,0l-0.062,0l-0.062,-0.002l-0.062,-0.001l-0.062,-0.003l-0.062,-0.004l-0.061,-0.004l-0.062,-0.005l-0.061,-0.005l-0.061,-0.007l-0.062,-0.007l-0.061,-0.008l-0.06,-0.009l-0.061,-0.009l-0.061,-0.01l-0.06,-0.011l-0.06,-0.012l-0.06,-0.012l-0.06,-0.013l-0.119,-0.029l-0.118,-0.031l-0.117,-0.034l-0.117,-0.037l-0.115,-0.04l-0.114,-0.042l-0.114,-0.046l-0.112,-0.048l-0.111,-0.05l-0.109,-0.054l-0.109,-0.056l-0.107,-0.059l-0.105,-0.061l-0.105,-0.064l-0.102,-0.067l-0.051,-0.034l-0.05,-0.035l-0.05,-0.036l-0.05,-0.036l-0.049,-0.037l-0.049,-0.037l-0.048,-0.038l-0.048,-0.039l-0.048,-0.039l-0.047,-0.04l-0.046,-0.041l-0.046,-0.041l-0.046,-0.042l-0.045,-0.042l-0.045,-0.043l-0.044,-0.044l-0.044,-0.044l-0.043,-0.045l-0.042,-0.045l-0.042,-0.046l-0.041,-0.046l-0.041,-0.046l-0.04,-0.047l-0.039,-0.048l-0.039,-0.048l-0.038,-0.048l-0.037,-0.049l-0.037,-0.049l-0.036,-0.05l-0.036,-0.05l-0.035,-0.05l-0.034,-0.051l-0.067,-0.102l-0.064,-0.105l-0.061,-0.105l-0.059,-0.107l-0.056,-0.109l-0.054,-0.109l-0.05,-0.111l-0.048,-0.112l-0.046,-0.114l-0.042,-0.114l-0.04,-0.115l-0.037,-0.117l-0.034,-0.117l-0.031,-0.118l-0.029,-0.119l-0.013,-0.06l-0.012,-0.06l-0.012,-0.06l-0.011,-0.06l-0.01,-0.061l-0.009,-0.061l-0.009,-0.06l-0.008,-0.061l-0.007,-0.062l-0.007,-0.061l-0.005,-0.061l-0.005,-0.062l-0.004,-0.061l-0.004,-0.062l-0.003,-0.062l-0.001,-0.062l-0.002,-0.062l0,-0.062l0,-63l19.976,0l0,63Zm-18.976,-0.003l0,0.053l0.001,0.049l0.002,0.05l0.002,0.049l0.003,0.05l0.003,0.049l0.004,0.049l0.005,0.049l0.005,0.049l0.006,0.049l0.006,0.049l0.007,0.049l0.007,0.048l0.009,0.049l0.008,0.048l0.01,0.048l0.01,0.048l0.009,0.045l0.024,0.098l0.025,0.095l0.027,0.093l0.03,0.093l0.031,0.093l0.034,0.091l0.037,0.091l0.038,0.09l0.041,0.088l0.042,0.088l0.045,0.087l0.047,0.086l0.05,0.084l0.051,0.084l0.055,0.084l0.026,0.038l0.028,0.041l0.028,0.04l0.029,0.039l0.029,0.04l0.03,0.039l0.031,0.038l0.031,0.039l0.031,0.038l0.032,0.037l0.033,0.037l0.033,0.037l0.033,0.037l0.034,0.036l0.035,0.036l0.034,0.035l0.035,0.034l0.036,0.035l0.036,0.034l0.037,0.033l0.036,0.033l0.038,0.033l0.037,0.032l0.038,0.031l0.039,0.031l0.038,0.031l0.039,0.03l0.04,0.029l0.039,0.029l0.04,0.028l0.041,0.028l0.038,0.026l0.085,0.055l0.083,0.051l0.084,0.05l0.086,0.047l0.087,0.045l0.088,0.042l0.088,0.041l0.09,0.038l0.091,0.037l0.091,0.034l0.093,0.031l0.093,0.03l0.094,0.027l0.094,0.025l0.098,0.024l0.045,0.01l0.048,0.009l0.048,0.01l0.048,0.008l0.049,0.009l0.048,0.007l0.049,0.007l0.049,0.006l0.049,0.006l0.049,0.005l0.049,0.005l0.049,0.004l0.049,0.003l0.05,0.003l0.049,0.002l0.05,0.002l0.049,0.001l0.053,0l9.97,0l0.053,0l0.049,-0.001l0.05,-0.002l0.049,-0.002l0.05,-0.003l0.049,-0.003l0.049,-0.004l0.049,-0.005l0.049,-0.005l0.049,-0.006l0.049,-0.006l0.049,-0.007l0.048,-0.007l0.049,-0.009l0.048,-0.008l0.048,-0.01l0.048,-0.009l0.045,-0.01l0.098,-0.024l0.094,-0.025l0.094,-0.027l0.093,-0.03l0.093,-0.031l0.091,-0.034l0.091,-0.037l0.09,-0.038l0.088,-0.041l0.088,-0.042l0.087,-0.045l0.086,-0.047l0.084,-0.05l0.083,-0.051l0.085,-0.055l0.038,-0.026l0.041,-0.028l0.04,-0.028l0.039,-0.029l0.04,-0.029l0.039,-0.03l0.038,-0.031l0.039,-0.031l0.038,-0.031l0.037,-0.032l0.038,-0.033l0.036,-0.033l0.037,-0.033l0.036,-0.034l0.036,-0.035l0.035,-0.034l0.034,-0.035l0.035,-0.036l0.034,-0.036l0.033,-0.037l0.033,-0.037l0.033,-0.037l0.032,-0.037l0.031,-0.038l0.031,-0.039l0.031,-0.038l0.03,-0.039l0.029,-0.04l0.029,-0.039l0.029,-0.04l0.027,-0.041l0.026,-0.038l0.055,-0.085l0.051,-0.083l0.05,-0.084l0.047,-0.086l0.045,-0.087l0.042,-0.088l0.041,-0.088l0.038,-0.09l0.037,-0.091l0.034,-0.091l0.031,-0.093l0.03,-0.093l0.027,-0.093l0.025,-0.095l0.024,-0.098l0.009,-0.045l0.01,-0.048l0.01,-0.048l0.008,-0.048l0.009,-0.049l0.007,-0.048l0.007,-0.049l0.006,-0.049l0.006,-0.049l0.005,-0.049l0.005,-0.049l0.004,-0.049l0.003,-0.049l0.003,-0.05l0.002,-0.049l0.002,-0.05l0.001,-0.049l0,-0.053l0,-61.997l-17.976,0l0,61.997Z" style="fill:#ddd;"/><path d="M159.976,0l-19.976,0l0,63c0,1.326 0.527,2.598 1.464,3.536c0.938,0.937 2.21,1.464 3.536,1.464l9.976,0c1.326,0 2.598,-0.527 3.536,-1.464c0.937,-0.938 1.464,-2.21 1.464,-3.536l0,-63Z" style="fill:#fff;"/><path d="M159.976,63l0,0.062l-0.002,0.062l-0.001,0.062l-0.003,0.062l-0.004,0.062l-0.004,0.061l-0.005,0.062l-0.005,0.061l-0.007,0.061l-0.007,0.062l-0.008,0.061l-0.009,0.06l-0.009,0.061l-0.01,0.061l-0.011,0.06l-0.012,0.06l-0.012,0.06l-0.013,0.06l-0.029,0.119l-0.031,0.118l-0.034,0.117l-0.037,0.117l-0.04,0.115l-0.042,0.114l-0.046,0.114l-0.048,0.112l-0.05,0.111l-0.054,0.109l-0.056,0.109l-0.059,0.107l-0.061,0.105l-0.064,0.105l-0.067,0.102l-0.034,0.051l-0.035,0.05l-0.036,0.05l-0.036,0.05l-0.037,0.049l-0.037,0.049l-0.038,0.048l-0.039,0.048l-0.039,0.048l-0.04,0.047l-0.041,0.046l-0.041,0.046l-0.042,0.046l-0.042,0.045l-0.043,0.045l-0.044,0.044l-0.044,0.044l-0.045,0.043l-0.045,0.042l-0.046,0.042l-0.046,0.041l-0.046,0.041l-0.047,0.04l-0.048,0.039l-0.048,0.039l-0.048,0.038l-0.049,0.037l-0.049,0.037l-0.05,0.036l-0.05,0.036l-0.05,0.035l-0.051,0.034l-0.102,0.067l-0.105,0.064l-0.105,0.061l-0.107,0.059l-0.109,0.056l-0.109,0.054l-0.111,0.05l-0.113,0.048l-0.113,0.046l-0.114,0.042l-0.115,0.04l-0.117,0.037l-0.117,0.034l-0.118,0.031l-0.119,0.029l-0.06,0.013l-0.06,0.012l-0.06,0.012l-0.06,0.011l-0.061,0.01l-0.061,0.009l-0.06,0.009l-0.061,0.008l-0.062,0.007l-0.061,0.007l-0.061,0.005l-0.062,0.005l-0.061,0.004l-0.062,0.004l-0.062,0.003l-0.062,0.001l-0.062,0.002l-0.062,0l-9.976,0l-0.062,0l-0.062,-0.002l-0.062,-0.001l-0.062,-0.003l-0.062,-0.004l-0.061,-0.004l-0.062,-0.005l-0.061,-0.005l-0.061,-0.007l-0.062,-0.007l-0.061,-0.008l-0.06,-0.009l-0.061,-0.009l-0.061,-0.01l-0.06,-0.011l-0.06,-0.012l-0.06,-0.012l-0.06,-0.013l-0.119,-0.029l-0.118,-0.031l-0.117,-0.034l-0.117,-0.037l-0.115,-0.04l-0.114,-0.042l-0.113,-0.046l-0.113,-0.048l-0.111,-0.05l-0.109,-0.054l-0.109,-0.056l-0.107,-0.059l-0.105,-0.061l-0.105,-0.064l-0.102,-0.067l-0.051,-0.034l-0.05,-0.035l-0.05,-0.036l-0.05,-0.036l-0.049,-0.037l-0.049,-0.037l-0.048,-0.038l-0.048,-0.039l-0.048,-0.039l-0.047,-0.04l-0.046,-0.041l-0.046,-0.041l-0.046,-0.042l-0.045,-0.042l-0.045,-0.043l-0.044,-0.044l-0.044,-0.044l-0.043,-0.045l-0.042,-0.045l-0.042,-0.046l-0.041,-0.046l-0.041,-0.046l-0.04,-0.047l-0.039,-0.048l-0.039,-0.048l-0.038,-0.048l-0.037,-0.049l-0.037,-0.049l-0.036,-0.05l-0.036,-0.05l-0.035,-0.05l-0.034,-0.051l-0.067,-0.102l-0.064,-0.105l-0.061,-0.105l-0.059,-0.107l-0.056,-0.109l-0.054,-0.109l-0.05,-0.111l-0.048,-0.112l-0.046,-0.114l-0.042,-0.114l-0.04,-0.115l-0.037,-0.117l-0.034,-0.117l-0.031,-0.118l-0.029,-0.119l-0.013,-0.06l-0.012,-0.06l-0.012,-0.06l-0.011,-0.06l-0.01,-0.061l-0.009,-0.061l-0.009,-0.06l-0.008,-0.061l-0.007,-0.062l-0.007,-0.061l-0.005,-0.061l-0.005,-0.062l-0.004,-0.061l-0.004,-0.062l-0.003,-0.062l-0.001,-0.062l-0.002,-0.062l0,-0.062l0,-63l19.976,0l0,63Zm-18.976,-0.003l0,0.053l0.001,0.049l0.002,0.05l0.002,0.049l0.003,0.05l0.003,0.049l0.004,0.049l0.005,0.049l0.005,0.049l0.006,0.049l0.006,0.049l0.007,0.049l0.007,0.048l0.009,0.049l0.008,0.048l0.01,0.048l0.009,0.048l0.01,0.045l0.024,0.098l0.025,0.095l0.027,0.093l0.03,0.093l0.031,0.093l0.034,0.091l0.037,0.091l0.038,0.09l0.041,0.088l0.042,0.088l0.045,0.087l0.047,0.086l0.05,0.084l0.051,0.083l0.055,0.085l0.026,0.038l0.028,0.041l0.028,0.04l0.029,0.039l0.029,0.04l0.03,0.039l0.031,0.038l0.031,0.039l0.031,0.038l0.032,0.037l0.033,0.038l0.033,0.036l0.033,0.037l0.034,0.036l0.035,0.036l0.034,0.035l0.035,0.034l0.036,0.035l0.036,0.034l0.037,0.033l0.037,0.033l0.037,0.033l0.037,0.032l0.038,0.031l0.039,0.031l0.038,0.031l0.039,0.03l0.04,0.029l0.039,0.029l0.04,0.028l0.041,0.028l0.038,0.026l0.085,0.055l0.083,0.051l0.084,0.05l0.086,0.047l0.087,0.045l0.088,0.042l0.088,0.041l0.09,0.038l0.091,0.037l0.091,0.034l0.093,0.031l0.093,0.03l0.094,0.027l0.094,0.025l0.098,0.024l0.045,0.01l0.048,0.009l0.048,0.01l0.048,0.008l0.049,0.009l0.048,0.007l0.049,0.007l0.049,0.006l0.049,0.006l0.049,0.005l0.049,0.005l0.049,0.004l0.049,0.003l0.05,0.003l0.049,0.002l0.05,0.002l0.049,0.001l0.053,0l9.97,0l0.053,0l0.049,-0.001l0.05,-0.002l0.049,-0.002l0.05,-0.003l0.049,-0.003l0.049,-0.004l0.049,-0.005l0.049,-0.005l0.049,-0.006l0.049,-0.006l0.049,-0.007l0.048,-0.007l0.049,-0.009l0.048,-0.008l0.048,-0.01l0.048,-0.009l0.045,-0.01l0.098,-0.024l0.094,-0.025l0.094,-0.027l0.093,-0.03l0.093,-0.031l0.091,-0.034l0.091,-0.037l0.09,-0.038l0.088,-0.041l0.088,-0.042l0.087,-0.045l0.086,-0.047l0.084,-0.05l0.083,-0.051l0.085,-0.055l0.038,-0.026l0.041,-0.028l0.04,-0.028l0.039,-0.029l0.04,-0.029l0.039,-0.03l0.038,-0.031l0.039,-0.031l0.038,-0.031l0.037,-0.032l0.037,-0.033l0.037,-0.033l0.037,-0.033l0.036,-0.034l0.036,-0.035l0.035,-0.034l0.034,-0.035l0.035,-0.036l0.034,-0.036l0.033,-0.037l0.033,-0.036l0.033,-0.038l0.032,-0.037l0.031,-0.038l0.031,-0.039l0.031,-0.038l0.03,-0.039l0.029,-0.04l0.029,-0.039l0.028,-0.04l0.028,-0.041l0.026,-0.038l0.055,-0.085l0.051,-0.083l0.05,-0.084l0.047,-0.086l0.045,-0.087l0.042,-0.088l0.041,-0.088l0.038,-0.09l0.037,-0.091l0.034,-0.091l0.031,-0.093l0.03,-0.093l0.027,-0.094l0.025,-0.094l0.024,-0.098l0.009,-0.045l0.01,-0.048l0.01,-0.048l0.008,-0.048l0.009,-0.049l0.007,-0.048l0.007,-0.049l0.006,-0.049l0.006,-0.049l0.005,-0.049l0.005,-0.049l0.004,-0.049l0.003,-0.049l0.003,-0.05l0.002,-0.049l0.002,-0.05l0.001,-0.049l0,-0.053l0,-61.997l-17.976,0l0,61.997Z" style="fill:#ddd;"/><path d="M369.976,0l-19.976,0l0,63c0,1.326 0.527,2.598 1.464,3.536c0.938,0.937 2.21,1.464 3.536,1.464l9.976,0c1.326,0 2.598,-0.527 3.536,-1.464c0.937,-0.938 1.464,-2.21 1.464,-3.536l0,-63Z" style="fill:#fff;"/><path d="M369.976,63l0,0.062l-0.002,0.062l-0.001,0.062l-0.003,0.062l-0.004,0.062l-0.004,0.061l-0.005,0.062l-0.005,0.061l-0.007,0.061l-0.007,0.062l-0.008,0.061l-0.009,0.06l-0.009,0.061l-0.01,0.061l-0.011,0.06l-0.012,0.06l-0.012,0.06l-0.013,0.06l-0.029,0.119l-0.031,0.118l-0.034,0.117l-0.037,0.117l-0.04,0.115l-0.042,0.114l-0.046,0.114l-0.048,0.112l-0.05,0.111l-0.054,0.109l-0.056,0.109l-0.059,0.107l-0.061,0.105l-0.064,0.105l-0.067,0.102l-0.034,0.051l-0.035,0.05l-0.036,0.05l-0.036,0.05l-0.037,0.049l-0.037,0.049l-0.038,0.048l-0.039,0.048l-0.039,0.048l-0.04,0.047l-0.041,0.046l-0.041,0.046l-0.042,0.046l-0.042,0.045l-0.043,0.045l-0.044,0.044l-0.044,0.044l-0.045,0.043l-0.045,0.042l-0.046,0.042l-0.046,0.041l-0.046,0.041l-0.047,0.04l-0.048,0.039l-0.048,0.039l-0.048,0.038l-0.049,0.037l-0.049,0.037l-0.05,0.036l-0.05,0.036l-0.05,0.035l-0.051,0.034l-0.102,0.067l-0.105,0.064l-0.105,0.061l-0.107,0.059l-0.109,0.056l-0.109,0.054l-0.111,0.05l-0.113,0.048l-0.113,0.046l-0.114,0.042l-0.115,0.04l-0.117,0.037l-0.117,0.034l-0.118,0.031l-0.119,0.029l-0.06,0.013l-0.06,0.012l-0.06,0.012l-0.06,0.011l-0.061,0.01l-0.061,0.009l-0.06,0.009l-0.061,0.008l-0.062,0.007l-0.061,0.007l-0.061,0.005l-0.062,0.005l-0.061,0.004l-0.062,0.004l-0.062,0.003l-0.062,0.001l-0.062,0.002l-0.062,0l-9.976,0l-0.062,0l-0.062,-0.002l-0.062,-0.001l-0.062,-0.003l-0.062,-0.004l-0.061,-0.004l-0.062,-0.005l-0.061,-0.005l-0.061,-0.007l-0.062,-0.007l-0.061,-0.008l-0.06,-0.009l-0.061,-0.009l-0.061,-0.01l-0.06,-0.011l-0.06,-0.012l-0.06,-0.012l-0.06,-0.013l-0.119,-0.029l-0.118,-0.031l-0.117,-0.034l-0.117,-0.037l-0.115,-0.04l-0.114,-0.042l-0.114,-0.046l-0.112,-0.048l-0.111,-0.05l-0.109,-0.054l-0.109,-0.056l-0.107,-0.059l-0.105,-0.061l-0.105,-0.064l-0.102,-0.067l-0.051,-0.034l-0.05,-0.035l-0.05,-0.036l-0.05,-0.036l-0.049,-0.037l-0.049,-0.037l-0.048,-0.038l-0.048,-0.039l-0.048,-0.039l-0.047,-0.04l-0.046,-0.041l-0.046,-0.041l-0.046,-0.042l-0.045,-0.042l-0.045,-0.043l-0.044,-0.044l-0.044,-0.044l-0.043,-0.045l-0.042,-0.045l-0.042,-0.046l-0.041,-0.046l-0.041,-0.046l-0.04,-0.047l-0.039,-0.048l-0.039,-0.048l-0.038,-0.048l-0.037,-0.049l-0.037,-0.049l-0.036,-0.05l-0.036,-0.05l-0.035,-0.05l-0.034,-0.051l-0.067,-0.102l-0.064,-0.105l-0.061,-0.105l-0.059,-0.107l-0.056,-0.109l-0.054,-0.109l-0.05,-0.111l-0.048,-0.112l-0.046,-0.114l-0.042,-0.114l-0.04,-0.115l-0.037,-0.117l-0.034,-0.117l-0.031,-0.118l-0.029,-0.119l-0.013,-0.06l-0.012,-0.06l-0.012,-0.06l-0.011,-0.06l-0.01,-0.061l-0.009,-0.061l-0.009,-0.06l-0.008,-0.061l-0.007,-0.062l-0.007,-0.061l-0.005,-0.061l-0.005,-0.062l-0.004,-0.061l-0.004,-0.062l-0.003,-0.062l-0.001,-0.062l-0.002,-0.062l0,-0.062l0,-63l19.976,0l0,63Zm-18.976,-0.003l0,0.053l0.001,0.049l0.002,0.05l0.002,0.049l0.003,0.05l0.003,0.049l0.004,0.049l0.005,0.049l0.005,0.049l0.006,0.049l0.006,0.049l0.007,0.049l0.007,0.048l0.009,0.049l0.008,0.048l0.01,0.048l0.01,0.048l0.009,0.045l0.024,0.098l0.025,0.095l0.027,0.093l0.03,0.093l0.031,0.093l0.034,0.091l0.037,0.091l0.038,0.09l0.041,0.088l0.042,0.088l0.045,0.087l0.047,0.086l0.05,0.084l0.051,0.084l0.055,0.084l0.026,0.038l0.028,0.041l0.028,0.04l0.029,0.039l0.029,0.04l0.03,0.039l0.031,0.038l0.031,0.039l0.031,0.038l0.032,0.037l0.033,0.037l0.033,0.037l0.033,0.037l0.034,0.036l0.035,0.036l0.034,0.035l0.035,0.034l0.036,0.035l0.036,0.034l0.037,0.033l0.036,0.033l0.038,0.033l0.037,0.032l0.038,0.031l0.039,0.031l0.038,0.031l0.039,0.03l0.04,0.029l0.039,0.029l0.04,0.028l0.041,0.028l0.038,0.026l0.085,0.055l0.083,0.051l0.084,0.05l0.086,0.047l0.087,0.045l0.088,0.042l0.088,0.041l0.09,0.038l0.091,0.037l0.091,0.034l0.093,0.031l0.093,0.03l0.094,0.027l0.094,0.025l0.098,0.024l0.045,0.01l0.048,0.009l0.048,0.01l0.048,0.008l0.049,0.009l0.048,0.007l0.049,0.007l0.049,0.006l0.049,0.006l0.049,0.005l0.049,0.005l0.049,0.004l0.049,0.003l0.05,0.003l0.049,0.002l0.05,0.002l0.049,0.001l0.053,0l9.97,0l0.053,0l0.049,-0.001l0.05,-0.002l0.049,-0.002l0.05,-0.003l0.049,-0.003l0.049,-0.004l0.049,-0.005l0.049,-0.005l0.049,-0.006l0.049,-0.006l0.049,-0.007l0.048,-0.007l0.049,-0.009l0.048,-0.008l0.048,-0.01l0.048,-0.009l0.045,-0.01l0.098,-0.024l0.094,-0.025l0.094,-0.027l0.093,-0.03l0.093,-0.031l0.091,-0.034l0.091,-0.037l0.09,-0.038l0.088,-0.041l0.088,-0.042l0.087,-0.045l0.086,-0.047l0.084,-0.05l0.083,-0.051l0.085,-0.055l0.038,-0.026l0.041,-0.028l0.04,-0.028l0.039,-0.029l0.04,-0.029l0.039,-0.03l0.038,-0.031l0.039,-0.031l0.038,-0.031l0.037,-0.032l0.038,-0.033l0.036,-0.033l0.037,-0.033l0.036,-0.034l0.036,-0.035l0.035,-0.034l0.034,-0.035l0.035,-0.036l0.034,-0.036l0.033,-0.037l0.033,-0.037l0.033,-0.037l0.032,-0.037l0.031,-0.038l0.031,-0.039l0.031,-0.038l0.03,-0.039l0.029,-0.04l0.029,-0.039l0.029,-0.04l0.027,-0.041l0.026,-0.038l0.055,-0.085l0.051,-0.083l0.05,-0.084l0.047,-0.086l0.045,-0.087l0.042,-0.088l0.041,-0.088l0.038,-0.09l0.037,-0.091l0.034,-0.091l0.031,-0.093l0.03,-0.093l0.027,-0.093l0.025,-0.095l0.024,-0.098l0.009,-0.045l0.01,-0.048l0.01,-0.048l0.008,-0.048l0.009,-0.049l0.007,-0.048l0.007,-0.049l0.006,-0.049l0.006,-0.049l0.005,-0.049l0.005,-0.049l0.004,-0.049l0.003,-0.049l0.003,-0.05l0.002,-0.049l0.002,-0.05l0.001,-0.049l0,-0.053l0,-61.997l-17.976,0l0,61.997Z" style="fill:#ddd;"/><path d="M193.976,0l-19.976,0l0,63c0,1.326 0.527,2.598 1.464,3.536c0.938,0.937 2.21,1.464 3.536,1.464l9.976,0c1.326,0 2.598,-0.527 3.536,-1.464c0.937,-0.938 1.464,-2.21 1.464,-3.536l0,-63Z" style="fill:#fff;"/><path d="M193.976,63l0,0.062l-0.002,0.062l-0.001,0.062l-0.003,0.062l-0.004,0.062l-0.004,0.061l-0.005,0.062l-0.005,0.061l-0.007,0.061l-0.007,0.062l-0.008,0.061l-0.009,0.06l-0.009,0.061l-0.01,0.061l-0.011,0.06l-0.012,0.06l-0.012,0.06l-0.013,0.06l-0.029,0.119l-0.031,0.118l-0.034,0.117l-0.037,0.117l-0.04,0.115l-0.042,0.114l-0.046,0.114l-0.048,0.112l-0.05,0.111l-0.054,0.109l-0.056,0.109l-0.059,0.107l-0.061,0.105l-0.064,0.105l-0.067,0.102l-0.034,0.051l-0.035,0.05l-0.036,0.05l-0.036,0.05l-0.037,0.049l-0.037,0.049l-0.038,0.048l-0.039,0.048l-0.039,0.048l-0.04,0.047l-0.041,0.046l-0.041,0.046l-0.042,0.046l-0.042,0.045l-0.043,0.045l-0.044,0.044l-0.044,0.044l-0.045,0.043l-0.045,0.042l-0.046,0.042l-0.046,0.041l-0.046,0.041l-0.047,0.04l-0.048,0.039l-0.048,0.039l-0.048,0.038l-0.049,0.037l-0.049,0.037l-0.05,0.036l-0.05,0.036l-0.05,0.035l-0.051,0.034l-0.102,0.067l-0.105,0.064l-0.105,0.061l-0.107,0.059l-0.109,0.056l-0.109,0.054l-0.111,0.05l-0.113,0.048l-0.113,0.046l-0.114,0.042l-0.115,0.04l-0.117,0.037l-0.117,0.034l-0.118,0.031l-0.119,0.029l-0.06,0.013l-0.06,0.012l-0.06,0.012l-0.06,0.011l-0.061,0.01l-0.061,0.009l-0.06,0.009l-0.061,0.008l-0.062,0.007l-0.061,0.007l-0.061,0.005l-0.062,0.005l-0.061,0.004l-0.062,0.004l-0.062,0.003l-0.062,0.001l-0.062,0.002l-0.062,0l-9.976,0l-0.062,0l-0.062,-0.002l-0.062,-0.001l-0.062,-0.003l-0.062,-0.004l-0.061,-0.004l-0.062,-0.005l-0.061,-0.005l-0.061,-0.007l-0.062,-0.007l-0.061,-0.008l-0.06,-0.009l-0.061,-0.009l-0.061,-0.01l-0.06,-0.011l-0.06,-0.012l-0.06,-0.012l-0.06,-0.013l-0.119,-0.029l-0.118,-0.031l-0.117,-0.034l-0.117,-0.037l-0.115,-0.04l-0.114,-0.042l-0.113,-0.046l-0.113,-0.048l-0.111,-0.05l-0.109,-0.054l-0.109,-0.056l-0.107,-0.059l-0.105,-0.061l-0.105,-0.064l-0.102,-0.067l-0.051,-0.034l-0.05,-0.035l-0.05,-0.036l-0.05,-0.036l-0.049,-0.037l-0.049,-0.037l-0.048,-0.038l-0.048,-0.039l-0.048,-0.039l-0.047,-0.04l-0.046,-0.041l-0.046,-0.041l-0.046,-0.042l-0.045,-0.042l-0.045,-0.043l-0.044,-0.044l-0.044,-0.044l-0.043,-0.045l-0.042,-0.045l-0.042,-0.046l-0.041,-0.046l-0.041,-0.046l-0.04,-0.047l-0.039,-0.048l-0.039,-0.048l-0.038,-0.048l-0.037,-0.049l-0.037,-0.049l-0.036,-0.05l-0.036,-0.05l-0.035,-0.05l-0.034,-0.051l-0.067,-0.102l-0.064,-0.105l-0.061,-0.105l-0.059,-0.107l-0.056,-0.109l-0.054,-0.109l-0.05,-0.111l-0.048,-0.112l-0.046,-0.114l-0.042,-0.114l-0.04,-0.115l-0.037,-0.117l-0.034,-0.117l-0.031,-0.118l-0.029,-0.119l-0.013,-0.06l-0.012,-0.06l-0.012,-0.06l-0.011,-0.06l-0.01,-0.061l-0.009,-0.061l-0.009,-0.06l-0.008,-0.061l-0.007,-0.062l-0.007,-0.061l-0.005,-0.061l-0.005,-0.062l-0.004,-0.061l-0.004,-0.062l-0.003,-0.062l-0.001,-0.062l-0.002,-0.062l0,-0.062l0,-63l19.976,0l0,63Zm-18.976,-0.003l0,0.053l0.001,0.049l0.002,0.05l0.002,0.049l0.003,0.05l0.003,0.049l0.004,0.049l0.005,0.049l0.005,0.049l0.006,0.049l0.006,0.049l0.007,0.049l0.007,0.048l0.009,0.049l0.008,0.048l0.01,0.048l0.009,0.048l0.01,0.045l0.024,0.098l0.025,0.095l0.027,0.093l0.03,0.093l0.031,0.093l0.034,0.091l0.037,0.091l0.038,0.09l0.041,0.088l0.042,0.088l0.045,0.087l0.047,0.086l0.05,0.084l0.051,0.083l0.055,0.085l0.026,0.038l0.028,0.041l0.028,0.04l0.029,0.039l0.029,0.04l0.03,0.039l0.031,0.038l0.031,0.039l0.031,0.038l0.032,0.037l0.033,0.038l0.033,0.036l0.033,0.037l0.034,0.036l0.035,0.036l0.034,0.035l0.035,0.034l0.036,0.035l0.036,0.034l0.037,0.033l0.037,0.033l0.037,0.033l0.037,0.032l0.038,0.031l0.039,0.031l0.038,0.031l0.039,0.03l0.04,0.029l0.039,0.029l0.04,0.028l0.041,0.028l0.038,0.026l0.085,0.055l0.083,0.051l0.084,0.05l0.086,0.047l0.087,0.045l0.088,0.042l0.088,0.041l0.09,0.038l0.091,0.037l0.091,0.034l0.093,0.031l0.093,0.03l0.094,0.027l0.094,0.025l0.098,0.024l0.045,0.01l0.048,0.009l0.048,0.01l0.048,0.008l0.049,0.009l0.048,0.007l0.049,0.007l0.049,0.006l0.049,0.006l0.049,0.005l0.049,0.005l0.049,0.004l0.049,0.003l0.05,0.003l0.049,0.002l0.05,0.002l0.049,0.001l0.053,0l9.97,0l0.053,0l0.049,-0.001l0.05,-0.002l0.049,-0.002l0.05,-0.003l0.049,-0.003l0.049,-0.004l0.049,-0.005l0.049,-0.005l0.049,-0.006l0.049,-0.006l0.049,-0.007l0.048,-0.007l0.049,-0.009l0.048,-0.008l0.048,-0.01l0.048,-0.009l0.045,-0.01l0.098,-0.024l0.094,-0.025l0.094,-0.027l0.093,-0.03l0.093,-0.031l0.091,-0.034l0.091,-0.037l0.09,-0.038l0.088,-0.041l0.088,-0.042l0.087,-0.045l0.086,-0.047l0.084,-0.05l0.083,-0.051l0.085,-0.055l0.038,-0.026l0.041,-0.028l0.04,-0.028l0.039,-0.029l0.04,-0.029l0.039,-0.03l0.038,-0.031l0.039,-0.031l0.038,-0.031l0.037,-0.032l0.037,-0.033l0.037,-0.033l0.037,-0.033l0.036,-0.034l0.036,-0.035l0.035,-0.034l0.034,-0.035l0.035,-0.036l0.034,-0.036l0.033,-0.037l0.033,-0.036l0.033,-0.038l0.032,-0.037l0.031,-0.038l0.031,-0.039l0.031,-0.038l0.03,-0.039l0.029,-0.04l0.029,-0.039l0.028,-0.04l0.028,-0.041l0.026,-0.038l0.055,-0.085l0.051,-0.083l0.05,-0.084l0.047,-0.086l0.045,-0.087l0.042,-0.088l0.041,-0.088l0.038,-0.09l0.037,-0.091l0.034,-0.091l0.031,-0.093l0.03,-0.093l0.027,-0.094l0.025,-0.094l0.024,-0.098l0.009,-0.045l0.01,-0.048l0.01,-0.048l0.008,-0.048l0.009,-0.049l0.007,-0.048l0.007,-0.049l0.006,-0.049l0.006,-0.049l0.005,-0.049l0.005,-0.049l0.004,-0.049l0.003,-0.049l0.003,-0.05l0.002,-0.049l0.002,-0.05l0.001,-0.049l0,-0.053l0,-61.997l-17.976,0l0,61.997Z" style="fill:#ddd;"/><path d="M403.976,0l-19.976,0l0,63c0,1.326 0.527,2.598 1.464,3.536c0.938,0.937 2.21,1.464 3.536,1.464l9.976,0c1.326,0 2.598,-0.527 3.536,-1.464c0.937,-0.938 1.464,-2.21 1.464,-3.536l0,-63Z" style="fill:#fff;"/><path d="M403.976,63l0,0.062l-0.002,0.062l-0.001,0.062l-0.003,0.062l-0.004,0.062l-0.004,0.061l-0.005,0.062l-0.005,0.061l-0.007,0.061l-0.007,0.062l-0.008,0.061l-0.009,0.06l-0.009,0.061l-0.01,0.061l-0.011,0.06l-0.012,0.06l-0.012,0.06l-0.013,0.06l-0.029,0.119l-0.031,0.118l-0.034,0.117l-0.037,0.117l-0.04,0.115l-0.042,0.114l-0.046,0.114l-0.048,0.112l-0.05,0.111l-0.054,0.109l-0.056,0.109l-0.059,0.107l-0.061,0.105l-0.064,0.105l-0.067,0.102l-0.034,0.051l-0.035,0.05l-0.036,0.05l-0.036,0.05l-0.037,0.049l-0.037,0.049l-0.038,0.048l-0.039,0.048l-0.039,0.048l-0.04,0.047l-0.041,0.046l-0.041,0.046l-0.042,0.046l-0.042,0.045l-0.043,0.045l-0.044,0.044l-0.044,0.044l-0.045,0.043l-0.045,0.042l-0.046,0.042l-0.046,0.041l-0.046,0.041l-0.047,0.04l-0.048,0.039l-0.048,0.039l-0.048,0.038l-0.049,0.037l-0.049,0.037l-0.05,0.036l-0.05,0.036l-0.05,0.035l-0.051,0.034l-0.102,0.067l-0.105,0.064l-0.105,0.061l-0.107,0.059l-0.109,0.056l-0.109,0.054l-0.111,0.05l-0.113,0.048l-0.113,0.046l-0.114,0.042l-0.115,0.04l-0.117,0.037l-0.117,0.034l-0.118,0.031l-0.119,0.029l-0.06,0.013l-0.06,0.012l-0.06,0.012l-0.06,0.011l-0.061,0.01l-0.061,0.009l-0.06,0.009l-0.061,0.008l-0.062,0.007l-0.061,0.007l-0.061,0.005l-0.062,0.005l-0.061,0.004l-0.062,0.004l-0.062,0.003l-0.062,0.001l-0.062,0.002l-0.062,0l-9.976,0l-0.062,0l-0.062,-0.002l-0.062,-0.001l-0.062,-0.003l-0.062,-0.004l-0.061,-0.004l-0.062,-0.005l-0.061,-0.005l-0.061,-0.007l-0.062,-0.007l-0.061,-0.008l-0.06,-0.009l-0.061,-0.009l-0.061,-0.01l-0.06,-0.011l-0.06,-0.012l-0.06,-0.012l-0.06,-0.013l-0.119,-0.029l-0.118,-0.031l-0.117,-0.034l-0.117,-0.037l-0.115,-0.04l-0.114,-0.042l-0.114,-0.046l-0.112,-0.048l-0.111,-0.05l-0.109,-0.054l-0.109,-0.056l-0.107,-0.059l-0.105,-0.061l-0.105,-0.064l-0.102,-0.067l-0.051,-0.034l-0.05,-0.035l-0.05,-0.036l-0.05,-0.036l-0.049,-0.037l-0.049,-0.037l-0.048,-0.038l-0.048,-0.039l-0.048,-0.039l-0.047,-0.04l-0.046,-0.041l-0.046,-0.041l-0.046,-0.042l-0.045,-0.042l-0.045,-0.043l-0.044,-0.044l-0.044,-0.044l-0.043,-0.045l-0.042,-0.045l-0.042,-0.046l-0.041,-0.046l-0.041,-0.046l-0.04,-0.047l-0.039,-0.048l-0.039,-0.048l-0.038,-0.048l-0.037,-0.049l-0.037,-0.049l-0.036,-0.05l-0.036,-0.05l-0.035,-0.05l-0.034,-0.051l-0.067,-0.102l-0.064,-0.105l-0.061,-0.105l-0.059,-0.107l-0.056,-0.109l-0.054,-0.109l-0.05,-0.111l-0.048,-0.112l-0.046,-0.114l-0.042,-0.114l-0.04,-0.115l-0.037,-0.117l-0.034,-0.117l-0.031,-0.118l-0.029,-0.119l-0.013,-0.06l-0.012,-0.06l-0.012,-0.06l-0.011,-0.06l-0.01,-0.061l-0.009,-0.061l-0.009,-0.06l-0.008,-0.061l-0.007,-0.062l-0.007,-0.061l-0.005,-0.061l-0.005,-0.062l-0.004,-0.061l-0.004,-0.062l-0.003,-0.062l-0.001,-0.062l-0.002,-0.062l0,-0.062l0,-63l19.976,0l0,63Zm-18.976,-0.003l0,0.053l0.001,0.049l0.002,0.05l0.002,0.049l0.003,0.05l0.003,0.049l0.004,0.049l0.005,0.049l0.005,0.049l0.006,0.049l0.006,0.049l0.007,0.049l0.007,0.048l0.009,0.049l0.008,0.048l0.01,0.048l0.01,0.048l0.009,0.045l0.024,0.098l0.025,0.095l0.027,0.093l0.03,0.093l0.031,0.093l0.034,0.091l0.037,0.091l0.038,0.09l0.041,0.088l0.042,0.088l0.045,0.087l0.047,0.086l0.05,0.084l0.051,0.084l0.055,0.084l0.026,0.038l0.028,0.041l0.028,0.04l0.029,0.039l0.029,0.04l0.03,0.039l0.031,0.038l0.031,0.039l0.031,0.038l0.032,0.037l0.033,0.037l0.033,0.037l0.033,0.037l0.034,0.036l0.035,0.036l0.034,0.035l0.035,0.034l0.036,0.035l0.036,0.034l0.037,0.033l0.036,0.033l0.038,0.033l0.037,0.032l0.038,0.031l0.039,0.031l0.038,0.031l0.039,0.03l0.04,0.029l0.039,0.029l0.04,0.028l0.041,0.028l0.038,0.026l0.085,0.055l0.083,0.051l0.084,0.05l0.086,0.047l0.087,0.045l0.088,0.042l0.088,0.041l0.09,0.038l0.091,0.037l0.091,0.034l0.093,0.031l0.093,0.03l0.094,0.027l0.094,0.025l0.098,0.024l0.045,0.01l0.048,0.009l0.048,0.01l0.048,0.008l0.049,0.009l0.048,0.007l0.049,0.007l0.049,0.006l0.049,0.006l0.049,0.005l0.049,0.005l0.049,0.004l0.049,0.003l0.05,0.003l0.049,0.002l0.05,0.002l0.049,0.001l0.053,0l9.97,0l0.053,0l0.049,-0.001l0.05,-0.002l0.049,-0.002l0.05,-0.003l0.049,-0.003l0.049,-0.004l0.049,-0.005l0.049,-0.005l0.049,-0.006l0.049,-0.006l0.049,-0.007l0.048,-0.007l0.049,-0.009l0.048,-0.008l0.048,-0.01l0.048,-0.009l0.045,-0.01l0.098,-0.024l0.094,-0.025l0.094,-0.027l0.093,-0.03l0.093,-0.031l0.091,-0.034l0.091,-0.037l0.09,-0.038l0.088,-0.041l0.088,-0.042l0.087,-0.045l0.086,-0.047l0.084,-0.05l0.083,-0.051l0.085,-0.055l0.038,-0.026l0.041,-0.028l0.04,-0.028l0.039,-0.029l0.04,-0.029l0.039,-0.03l0.038,-0.031l0.039,-0.031l0.038,-0.031l0.037,-0.032l0.038,-0.033l0.036,-0.033l0.037,-0.033l0.036,-0.034l0.036,-0.035l0.035,-0.034l0.034,-0.035l0.035,-0.036l0.034,-0.036l0.033,-0.037l0.033,-0.037l0.033,-0.037l0.032,-0.037l0.031,-0.038l0.031,-0.039l0.031,-0.038l0.03,-0.039l0.029,-0.04l0.029,-0.039l0.029,-0.04l0.027,-0.041l0.026,-0.038l0.055,-0.085l0.051,-0.083l0.05,-0.084l0.047,-0.086l0.045,-0.087l0.042,-0.088l0.041,-0.088l0.038,-0.09l0.037,-0.091l0.034,-0.091l0.031,-0.093l0.03,-0.093l0.027,-0.093l0.025,-0.095l0.024,-0.098l0.009,-0.045l0.01,-0.048l0.01,-0.048l0.008,-0.048l0.009,-0.049l0.007,-0.048l0.007,-0.049l0.006,-0.049l0.006,-0.049l0.005,-0.049l0.005,-0.049l0.004,-0.049l0.003,-0.049l0.003,-0.05l0.002,-0.049l0.002,-0.05l0.001,-0.049l0,-0.053l0,-61.997l-17.976,0l0,61.997Z" style="fill:#ddd;"/><text x="12.797px" y="100.005px" style="font-family:'Teko-Regular', 'Teko';font-size:14px;fill:#aaa;">Z</text><text x="23.461px" y="60px" style="font-family:'Teko-Regular', 'Teko';font-size:14px;fill:#aaa;">S</text><text x="233.692px" y="60px" style="font-family:'Teko-Regular', 'Teko';font-size:14px;fill:#aaa;">2</text><text x="191.376px" y="100.005px" style="font-family:'Teko-Regular', 'Teko';font-size:14px;fill:#aaa;">M</text><text x="102.44px" y="100.005px" style="font-family:'Teko-Regular', 'Teko';font-size:14px;fill:#aaa;">V</text><text x="113.314px" y="60.005px" style="font-family:'Teko-Regular', 'Teko';font-size:14px;fill:#aaa;">G</text><text x="323.482px" y="60.005px" style="font-family:'Teko-Regular', 'Teko';font-size:14px;fill:#aaa;">5</text><text x="282.587px" y="100.005px" style="font-family:'Teko-Regular', 'Teko';font-size:14px;fill:#aaa;">E</text><text x="42.353px" y="100.005px" style="font-family:'Teko-Regular', 'Teko';font-size:14px;fill:#aaa;">X</text><text x="61.104px" y="60px" style="font-family:'Teko-Regular', 'Teko';font-size:14px;fill:#aaa;">D</text><text x="271.503px" y="60px" style="font-family:'Teko-Regular', 'Teko';font-size:14px;fill:#aaa;">3</text><text x="222.213px" y="100.005px" style="font-family:'Teko-Regular', 'Teko';font-size:14px;fill:#aaa;">Q</text><text x="132.101px" y="100.005px" style="font-family:'Teko-Regular', 'Teko';font-size:14px;fill:#aaa;">B</text><text x="147.027px" y="60.005px" style="font-family:'Teko-Regular', 'Teko';font-size:14px;fill:#aaa;">H</text><text x="357.272px" y="60.005px" style="font-family:'Teko-Regular', 'Teko';font-size:14px;fill:#aaa;">6</text><text x="312.079px" y="100.005px" style="font-family:'Teko-Regular', 'Teko';font-size:14px;fill:#aaa;">R</text><text x="372.419px" y="100.005px" style="font-family:'Teko-Regular', 'Teko';font-size:14px;fill:#aaa;">Y</text><text x="72.231px" y="100.005px" style="font-family:'Teko-Regular', 'Teko';font-size:14px;fill:#aaa;">C</text><text x="250.608px" y="100.005px" style="font-family:'Teko-Regular', 'Teko';font-size:14px;fill:#aaa;">W</text><text x="162px" y="100.005px" style="font-family:'Teko-Regular', 'Teko';font-size:14px;fill:#aaa;">N</text><text x="181.65px" y="60.005px" style="font-family:'Teko-Regular', 'Teko';font-size:14px;fill:#aaa;">J</text><text x="391.951px" y="60.005px" style="font-family:'Teko-Regular', 'Teko';font-size:14px;fill:#aaa;">7</text><text x="342.818px" y="100.005px" style="font-family:'Teko-Regular', 'Teko';font-size:14px;fill:#aaa;">T</text><text x="402.209px" y="100.005px" style="font-family:'Teko-Regular', 'Teko';font-size:14px;fill:#aaa;">U</text></svg>