<?xml version="1.0" encoding="UTF-8" standalone="no"?>
<!DOCTYPE svg PUBLIC "-//W3C//DTD SVG 1.1//EN" "http://www.w3.org/Graphics/SVG/1.1/DTD/svg11.dtd">
<svg width="100%" height="100%" viewBox="0 0 421 112" version="1.1" xmlns="http://www.w3.org/2000/svg" xmlns:xlink="http://www.w3.org/1999/xlink" xml:space="preserve" xmlns:serif="http://www.serif.com/" style="fill-rule:evenodd;clip-rule:evenodd;stroke-linejoin:round;stroke-miterlimit:2;">
    <rect x="-0.024" y="0" width="31" height="112" style="fill:white;"/>
    <path d="M30.976,112L-0.024,112L-0.024,0L30.976,0L30.976,112ZM0.976,1L0.976,111L29.976,111L29.976,1L0.976,1Z" style="fill:rgb(221,221,221);"/>
    <rect x="29.976" y="0" width="31" height="112" style="fill:white;"/>
    <path d="M60.976,112L29.976,112L29.976,0L60.976,0L60.976,112ZM30.976,1L30.976,111L59.976,111L59.976,1L30.976,1Z" style="fill:rgb(221,221,221);"/>
    <rect x="59.976" y="0" width="31" height="112" style="fill:white;"/>
    <path d="M90.976,112L59.976,112L59.976,0L90.976,0L90.976,112ZM60.976,1L60.976,111L89.976,111L89.976,1L60.976,1Z" style="fill:rgb(221,221,221);"/>
    <rect x="89.976" y="0" width="31" height="112" style="fill:white;"/>
    <path d="M120.976,112L89.976,112L89.976,0L120.976,0L120.976,112ZM90.976,1L90.976,111L119.976,111L119.976,1L90.976,1Z" style="fill:rgb(221,221,221);"/>
    <rect x="119.976" y="0" width="31" height="112" style="fill:white;"/>
    <path d="M150.976,112L119.976,112L119.976,0L150.976,0L150.976,112ZM120.976,1L120.976,111L149.976,111L149.976,1L120.976,1Z" style="fill:rgb(221,221,221);"/>
    <rect x="149.976" y="0" width="31" height="112" style="fill:white;"/>
    <path d="M180.976,112L149.976,112L149.976,0L180.976,0L180.976,112ZM150.976,1L150.976,111L179.976,111L179.976,1L150.976,1Z" style="fill:rgb(221,221,221);"/>
    <rect x="179.976" y="0" width="31" height="112" style="fill:white;"/>
    <path d="M210.976,112L179.976,112L179.976,0L210.976,0L210.976,112ZM180.976,1L180.976,111L209.976,111L209.976,1L180.976,1Z" style="fill:rgb(221,221,221);"/>
    <rect x="209.976" y="0" width="31" height="112" style="fill:white;"/>
    <path d="M240.976,112L209.976,112L209.976,0L240.976,0L240.976,112ZM210.976,1L210.976,111L239.976,111L239.976,1L210.976,1Z" style="fill:rgb(221,221,221);"/>
    <rect x="239.976" y="0" width="31" height="112" style="fill:white;"/>
    <path d="M270.976,112L239.976,112L239.976,0L270.976,0L270.976,112ZM240.976,1L240.976,111L269.976,111L269.976,1L240.976,1Z" style="fill:rgb(221,221,221);"/>
    <rect x="269.976" y="0" width="31" height="112" style="fill:white;"/>
    <path d="M300.976,112L269.976,112L269.976,0L300.976,0L300.976,112ZM270.976,1L270.976,111L299.976,111L299.976,1L270.976,1Z" style="fill:rgb(221,221,221);"/>
    <rect x="299.976" y="0" width="31" height="112" style="fill:white;"/>
    <path d="M330.976,112L299.976,112L299.976,0L330.976,0L330.976,112ZM300.976,1L300.976,111L329.976,111L329.976,1L300.976,1Z" style="fill:rgb(221,221,221);"/>
    <rect x="329.976" y="0" width="31" height="112" style="fill:white;"/>
    <path d="M360.976,112L329.976,112L329.976,0L360.976,0L360.976,112ZM330.976,1L330.976,111L359.976,111L359.976,1L330.976,1Z" style="fill:rgb(221,221,221);"/>
    <rect x="359.976" y="0" width="31" height="112" style="fill:white;"/>
    <path d="M390.976,112L359.976,112L359.976,0L390.976,0L390.976,112ZM360.976,1L360.976,111L389.976,111L389.976,1L360.976,1Z" style="fill:rgb(221,221,221);"/>
    <rect x="389.976" y="0" width="31" height="112" style="fill:white;"/>
    <path d="M420.976,112L389.976,112L389.976,0L420.976,0L420.976,112ZM390.976,1L390.976,111L419.976,111L419.976,1L390.976,1Z" style="fill:rgb(221,221,221);"/>
    <path d="M35.976,0L16,0L16,63C16,64.326 16.527,65.598 17.464,66.536C18.402,67.473 19.674,68 21,68L30.976,68C32.302,68 33.574,67.473 34.512,66.536C35.449,65.598 35.976,64.326 35.976,63L35.976,0Z" style="fill:white;"/>
    <path d="M35.976,63L35.976,63.062L35.974,63.124L35.973,63.186L35.97,63.248L35.966,63.31L35.962,63.371L35.957,63.433L35.952,63.494L35.945,63.555L35.938,63.617L35.93,63.678L35.921,63.738L35.912,63.799L35.902,63.86L35.891,63.92L35.879,63.98L35.867,64.04L35.854,64.1L35.825,64.219L35.794,64.337L35.76,64.454L35.723,64.571L35.683,64.686L35.641,64.8L35.595,64.914L35.547,65.026L35.497,65.137L35.443,65.246L35.387,65.355L35.328,65.462L35.267,65.567L35.203,65.672L35.136,65.774L35.102,65.825L35.067,65.875L35.031,65.925L34.995,65.975L34.958,66.024L34.921,66.073L34.883,66.121L34.844,66.169L34.805,66.217L34.765,66.264L34.724,66.31L34.683,66.356L34.641,66.402L34.599,66.447L34.556,66.492L34.512,66.536L34.468,66.58L34.423,66.623L34.378,66.665L34.332,66.707L34.286,66.748L34.24,66.789L34.193,66.829L34.145,66.868L34.097,66.907L34.049,66.945L34,66.982L33.951,67.019L33.901,67.055L33.851,67.091L33.801,67.126L33.75,67.16L33.648,67.227L33.543,67.291L33.438,67.352L33.331,67.411L33.222,67.467L33.113,67.521L33.002,67.571L32.889,67.619L32.776,67.665L32.662,67.707L32.547,67.747L32.43,67.784L32.313,67.818L32.195,67.849L32.076,67.878L32.016,67.891L31.956,67.903L31.896,67.915L31.836,67.926L31.775,67.936L31.714,67.945L31.654,67.954L31.593,67.962L31.531,67.969L31.47,67.976L31.409,67.981L31.347,67.986L31.286,67.99L31.224,67.994L31.162,67.997L31.1,67.998L31.038,68L30.976,68L21,68L20.938,68L20.876,67.998L20.814,67.997L20.752,67.994L20.69,67.99L20.629,67.986L20.567,67.981L20.506,67.976L20.445,67.969L20.383,67.962L20.322,67.954L20.262,67.945L20.201,67.936L20.14,67.926L20.08,67.915L20.02,67.903L19.96,67.891L19.9,67.878L19.781,67.849L19.663,67.818L19.546,67.784L19.429,67.747L19.314,67.707L19.2,67.665L19.086,67.619L18.974,67.571L18.863,67.521L18.754,67.467L18.645,67.411L18.538,67.352L18.433,67.291L18.328,67.227L18.226,67.16L18.175,67.126L18.125,67.091L18.075,67.055L18.025,67.019L17.976,66.982L17.927,66.945L17.879,66.907L17.831,66.868L17.783,66.829L17.736,66.789L17.69,66.748L17.644,66.707L17.598,66.665L17.553,66.623L17.508,66.58L17.464,66.536L17.42,66.492L17.377,66.447L17.335,66.402L17.293,66.356L17.252,66.31L17.211,66.264L17.171,66.217L17.132,66.169L17.093,66.121L17.055,66.073L17.018,66.024L16.981,65.975L16.945,65.925L16.909,65.875L16.874,65.825L16.84,65.774L16.773,65.672L16.709,65.567L16.648,65.462L16.589,65.355L16.533,65.246L16.479,65.137L16.429,65.026L16.381,64.914L16.335,64.8L16.293,64.686L16.253,64.571L16.216,64.454L16.182,64.337L16.151,64.219L16.122,64.1L16.109,64.04L16.097,63.98L16.085,63.92L16.074,63.86L16.064,63.799L16.055,63.738L16.046,63.678L16.038,63.617L16.031,63.555L16.024,63.494L16.019,63.433L16.014,63.371L16.01,63.31L16.006,63.248L16.003,63.186L16.002,63.124L16,63.062L16,63L16,0L35.976,0L35.976,63ZM17,62.997L17,63.05L17.001,63.099L17.005,63.198L17.008,63.248L17.011,63.297L17.015,63.346L17.025,63.444L17.037,63.542L17.044,63.591L17.051,63.639L17.06,63.688L17.068,63.736L17.088,63.832L17.097,63.877L17.121,63.975L17.146,64.069L17.173,64.163L17.203,64.256L17.234,64.349L17.268,64.44L17.305,64.531L17.343,64.621L17.384,64.709L17.426,64.797L17.471,64.884L17.518,64.97L17.568,65.054L17.619,65.137L17.674,65.222L17.728,65.301L17.756,65.341L17.785,65.38L17.814,65.42L17.844,65.459L17.875,65.497L17.906,65.536L17.937,65.574L17.969,65.611L18.002,65.649L18.035,65.685L18.068,65.722L18.102,65.758L18.171,65.829L18.242,65.898L18.278,65.932L18.315,65.965L18.351,65.998L18.389,66.031L18.426,66.063L18.464,66.094L18.503,66.125L18.541,66.156L18.58,66.186L18.62,66.215L18.659,66.244L18.699,66.272L18.778,66.326L18.863,66.381L18.946,66.432L19.03,66.482L19.116,66.529L19.203,66.574L19.291,66.616L19.379,66.657L19.469,66.695L19.56,66.732L19.651,66.766L19.744,66.797L19.837,66.827L19.931,66.854L20.025,66.879L20.123,66.903L20.168,66.913L20.216,66.922L20.264,66.932L20.312,66.94L20.361,66.949L20.409,66.956L20.458,66.963L20.556,66.975L20.654,66.985L20.703,66.989L20.752,66.992L20.802,66.995L20.901,66.999L20.95,67L31.026,67L31.075,66.999L31.125,66.997L31.174,66.995L31.224,66.992L31.273,66.989L31.322,66.985L31.371,66.98L31.42,66.975L31.469,66.969L31.518,66.963L31.567,66.956L31.615,66.949L31.664,66.94L31.712,66.932L31.76,66.922L31.808,66.913L31.853,66.903L31.951,66.879L32.045,66.854L32.139,66.827L32.232,66.797L32.325,66.766L32.416,66.732L32.507,66.695L32.597,66.657L32.685,66.616L32.773,66.574L32.86,66.529L32.946,66.482L33.03,66.432L33.113,66.381L33.198,66.326L33.236,66.3L33.277,66.272L33.317,66.244L33.356,66.215L33.396,66.186L33.435,66.156L33.473,66.125L33.512,66.094L33.55,66.063L33.587,66.031L33.625,65.998L33.661,65.965L33.698,65.932L33.734,65.898L33.77,65.863L33.805,65.829L33.839,65.794L33.874,65.758L33.908,65.722L33.941,65.685L33.974,65.649L34.007,65.611L34.039,65.574L34.07,65.536L34.101,65.497L34.132,65.459L34.162,65.42L34.191,65.38L34.22,65.341L34.248,65.301L34.276,65.26L34.302,65.222L34.357,65.137L34.408,65.054L34.458,64.97L34.505,64.884L34.55,64.797L34.592,64.709L34.633,64.621L34.671,64.531L34.708,64.44L34.742,64.349L34.773,64.256L34.803,64.163L34.83,64.07L34.855,63.975L34.879,63.877L34.888,63.832L34.898,63.784L34.908,63.736L34.916,63.688L34.925,63.639L34.932,63.591L34.939,63.542L34.945,63.493L34.951,63.444L34.956,63.395L34.961,63.346L34.965,63.297L34.968,63.248L34.971,63.198L34.973,63.149L34.975,63.099L34.976,63.05L34.976,62.997L34.976,1L17,1L17,62.997Z" style="fill:rgb(221,221,221);"/>
    <path d="M245.976,0L226,0L226,63C226,64.326 226.527,65.598 227.464,66.536C228.402,67.473 229.674,68 231,68L240.976,68C242.302,68 243.574,67.473 244.512,66.536C245.449,65.598 245.976,64.326 245.976,63L245.976,0Z" style="fill:white;"/>
    <path d="M245.976,63L245.976,63.062L245.974,63.124L245.973,63.186L245.97,63.248L245.966,63.31L245.962,63.371L245.957,63.433L245.952,63.494L245.945,63.555L245.938,63.617L245.93,63.678L245.921,63.738L245.912,63.799L245.902,63.86L245.891,63.92L245.879,63.98L245.867,64.04L245.854,64.1L245.825,64.219L245.794,64.337L245.76,64.454L245.723,64.571L245.683,64.686L245.641,64.8L245.595,64.914L245.547,65.026L245.497,65.137L245.443,65.246L245.387,65.355L245.328,65.462L245.267,65.567L245.203,65.672L245.136,65.774L245.102,65.825L245.067,65.875L245.031,65.925L244.995,65.975L244.958,66.024L244.921,66.073L244.883,66.121L244.844,66.169L244.805,66.217L244.765,66.264L244.724,66.31L244.683,66.356L244.641,66.402L244.599,66.447L244.556,66.492L244.512,66.536L244.468,66.58L244.423,66.623L244.378,66.665L244.332,66.707L244.286,66.748L244.24,66.789L244.193,66.829L244.145,66.868L244.097,66.907L244.049,66.945L244,66.982L243.951,67.019L243.901,67.055L243.851,67.091L243.801,67.126L243.75,67.16L243.648,67.227L243.543,67.291L243.438,67.352L243.331,67.411L243.222,67.467L243.113,67.521L243.002,67.571L242.889,67.619L242.776,67.665L242.662,67.707L242.547,67.747L242.43,67.784L242.313,67.818L242.195,67.849L242.076,67.878L242.016,67.891L241.956,67.903L241.896,67.915L241.836,67.926L241.775,67.936L241.714,67.945L241.654,67.954L241.593,67.962L241.531,67.969L241.47,67.976L241.409,67.981L241.347,67.986L241.286,67.99L241.224,67.994L241.162,67.997L241.1,67.998L241.038,68L240.976,68L231,68L230.938,68L230.876,67.998L230.814,67.997L230.752,67.994L230.69,67.99L230.629,67.986L230.567,67.981L230.506,67.976L230.445,67.969L230.383,67.962L230.322,67.954L230.262,67.945L230.201,67.936L230.14,67.926L230.08,67.915L230.02,67.903L229.96,67.891L229.9,67.878L229.781,67.849L229.663,67.818L229.546,67.784L229.429,67.747L229.314,67.707L229.2,67.665L229.087,67.619L228.974,67.571L228.863,67.521L228.754,67.467L228.645,67.411L228.538,67.352L228.433,67.291L228.328,67.227L228.226,67.16L228.175,67.126L228.125,67.091L228.075,67.055L228.025,67.019L227.976,66.982L227.927,66.945L227.879,66.907L227.831,66.868L227.783,66.829L227.736,66.789L227.69,66.748L227.644,66.707L227.598,66.665L227.553,66.623L227.508,66.58L227.464,66.536L227.42,66.492L227.377,66.447L227.335,66.402L227.293,66.356L227.252,66.31L227.211,66.264L227.171,66.217L227.132,66.169L227.093,66.121L227.055,66.073L227.018,66.024L226.981,65.975L226.945,65.925L226.909,65.875L226.874,65.825L226.84,65.774L226.773,65.672L226.709,65.567L226.648,65.462L226.589,65.355L226.533,65.246L226.479,65.137L226.429,65.026L226.381,64.914L226.335,64.8L226.293,64.686L226.253,64.571L226.216,64.454L226.182,64.337L226.151,64.219L226.122,64.1L226.109,64.04L226.097,63.98L226.085,63.92L226.074,63.86L226.064,63.799L226.055,63.738L226.046,63.678L226.038,63.617L226.031,63.555L226.024,63.494L226.019,63.433L226.014,63.371L226.01,63.31L226.006,63.248L226.003,63.186L226.002,63.124L226,63.062L226,63L226,0L245.976,0L245.976,63ZM227,62.997L227,63.05L227.001,63.099L227.005,63.199L227.011,63.297L227.015,63.346L227.025,63.444L227.037,63.542L227.044,63.591L227.051,63.639L227.06,63.688L227.068,63.736L227.078,63.784L227.087,63.832L227.097,63.877L227.121,63.975L227.146,64.069L227.173,64.163L227.203,64.256L227.234,64.349L227.268,64.44L227.305,64.531L227.343,64.621L227.384,64.709L227.426,64.797L227.471,64.884L227.518,64.97L227.568,65.054L227.619,65.137L227.674,65.222L227.7,65.26L227.728,65.301L227.756,65.341L227.785,65.38L227.814,65.42L227.844,65.459L227.875,65.497L227.906,65.536L227.937,65.574L227.969,65.611L228.002,65.649L228.035,65.685L228.068,65.722L228.102,65.758L228.171,65.829L228.242,65.898L228.278,65.932L228.389,66.031L228.426,66.063L228.464,66.094L228.503,66.125L228.541,66.156L228.58,66.186L228.62,66.215L228.659,66.244L228.699,66.272L228.74,66.3L228.778,66.326L228.862,66.381L228.946,66.432L229.03,66.482L229.116,66.529L229.203,66.574L229.291,66.616L229.379,66.657L229.469,66.695L229.56,66.732L229.651,66.766L229.744,66.797L229.837,66.827L229.93,66.854L230.025,66.879L230.123,66.903L230.168,66.913L230.216,66.922L230.264,66.932L230.312,66.94L230.361,66.949L230.409,66.956L230.458,66.963L230.556,66.975L230.654,66.985L230.703,66.989L230.752,66.992L230.802,66.995L230.851,66.997L230.901,66.999L230.95,67L241.026,67L241.075,66.999L241.125,66.997L241.174,66.995L241.224,66.992L241.273,66.989L241.322,66.985L241.371,66.98L241.42,66.975L241.469,66.969L241.518,66.963L241.567,66.956L241.615,66.949L241.664,66.94L241.712,66.932L241.76,66.922L241.808,66.913L241.853,66.903L241.951,66.879L242.046,66.854L242.139,66.827L242.232,66.797L242.325,66.766L242.416,66.732L242.507,66.695L242.597,66.657L242.685,66.616L242.773,66.574L242.86,66.529L242.946,66.482L243.03,66.432L243.113,66.381L243.198,66.326L243.236,66.3L243.277,66.272L243.317,66.244L243.356,66.215L243.396,66.186L243.435,66.156L243.473,66.125L243.512,66.094L243.55,66.063L243.587,66.031L243.625,65.998L243.661,65.965L243.698,65.932L243.734,65.898L243.77,65.863L243.805,65.829L243.839,65.794L243.874,65.758L243.908,65.722L243.941,65.685L243.974,65.649L244.007,65.611L244.039,65.574L244.07,65.536L244.101,65.497L244.132,65.459L244.162,65.42L244.191,65.38L244.22,65.341L244.248,65.301L244.276,65.26L244.302,65.222L244.357,65.137L244.408,65.054L244.458,64.97L244.505,64.884L244.55,64.797L244.592,64.709L244.633,64.621L244.671,64.531L244.708,64.44L244.742,64.349L244.773,64.256L244.803,64.163L244.83,64.069L244.855,63.975L244.879,63.877L244.889,63.832L244.898,63.784L244.908,63.736L244.916,63.688L244.925,63.639L244.932,63.591L244.939,63.542L244.945,63.493L244.951,63.444L244.956,63.395L244.961,63.346L244.965,63.297L244.968,63.248L244.971,63.198L244.973,63.149L244.975,63.1L244.976,63.05L244.976,62.997L244.976,1L227,1L227,62.997Z" style="fill:rgb(221,221,221);"/>
    <path d="M73.976,0L54,0L54,63C54,64.326 54.527,65.598 55.464,66.536C56.402,67.473 57.674,68 59,68L68.976,68C70.302,68 71.574,67.473 72.512,66.536C73.449,65.598 73.976,64.326 73.976,63L73.976,0Z" style="fill:white;"/>
    <path d="M73.976,63L73.976,63.062L73.974,63.124L73.973,63.186L73.97,63.248L73.966,63.31L73.962,63.371L73.957,63.433L73.952,63.494L73.945,63.555L73.938,63.617L73.93,63.678L73.921,63.738L73.912,63.799L73.902,63.86L73.891,63.92L73.879,63.98L73.867,64.04L73.854,64.1L73.825,64.219L73.794,64.337L73.76,64.454L73.723,64.571L73.683,64.686L73.641,64.8L73.595,64.914L73.547,65.026L73.497,65.137L73.443,65.246L73.387,65.355L73.328,65.462L73.267,65.567L73.203,65.672L73.136,65.774L73.102,65.825L73.067,65.875L73.031,65.925L72.995,65.975L72.958,66.024L72.921,66.073L72.883,66.121L72.844,66.169L72.805,66.217L72.765,66.264L72.724,66.31L72.683,66.356L72.641,66.402L72.599,66.447L72.556,66.492L72.512,66.536L72.468,66.58L72.423,66.623L72.378,66.665L72.332,66.707L72.286,66.748L72.24,66.789L72.193,66.829L72.145,66.868L72.097,66.907L72.049,66.945L72,66.982L71.951,67.019L71.901,67.055L71.851,67.091L71.801,67.126L71.75,67.16L71.648,67.227L71.543,67.291L71.438,67.352L71.331,67.411L71.222,67.467L71.113,67.521L71.002,67.571L70.89,67.619L70.776,67.665L70.662,67.707L70.547,67.747L70.43,67.784L70.313,67.818L70.195,67.849L70.076,67.878L70.016,67.891L69.956,67.903L69.896,67.915L69.836,67.926L69.775,67.936L69.714,67.945L69.654,67.954L69.593,67.962L69.531,67.969L69.47,67.976L69.409,67.981L69.347,67.986L69.286,67.99L69.224,67.994L69.162,67.997L69.1,67.998L69.038,68L68.976,68L59,68L58.938,68L58.876,67.998L58.814,67.997L58.752,67.994L58.69,67.99L58.629,67.986L58.567,67.981L58.506,67.976L58.445,67.969L58.383,67.962L58.322,67.954L58.262,67.945L58.201,67.936L58.14,67.926L58.08,67.915L58.02,67.903L57.96,67.891L57.9,67.878L57.781,67.849L57.663,67.818L57.546,67.784L57.429,67.747L57.314,67.707L57.2,67.665L57.087,67.619L56.974,67.571L56.863,67.521L56.754,67.467L56.645,67.411L56.538,67.352L56.433,67.291L56.328,67.227L56.226,67.16L56.175,67.126L56.125,67.091L56.075,67.055L56.025,67.019L55.976,66.982L55.927,66.945L55.879,66.907L55.831,66.868L55.783,66.829L55.736,66.789L55.69,66.748L55.644,66.707L55.598,66.665L55.553,66.623L55.508,66.58L55.464,66.536L55.42,66.492L55.377,66.447L55.335,66.402L55.293,66.356L55.252,66.31L55.211,66.264L55.171,66.217L55.132,66.169L55.093,66.121L55.055,66.073L55.018,66.024L54.981,65.975L54.945,65.925L54.909,65.875L54.874,65.825L54.84,65.774L54.773,65.672L54.709,65.567L54.648,65.462L54.589,65.355L54.533,65.246L54.479,65.137L54.429,65.026L54.381,64.914L54.335,64.8L54.293,64.686L54.253,64.571L54.216,64.454L54.182,64.337L54.151,64.219L54.122,64.1L54.109,64.04L54.097,63.98L54.085,63.92L54.074,63.86L54.064,63.799L54.055,63.738L54.046,63.678L54.038,63.617L54.031,63.555L54.024,63.494L54.019,63.433L54.014,63.371L54.01,63.31L54.006,63.248L54.003,63.186L54.002,63.124L54,63.062L54,63L54,0L73.976,0L73.976,63ZM55,62.997L55,63.05L55.001,63.099L55.003,63.149L55.005,63.198L55.008,63.248L55.011,63.297L55.015,63.346L55.025,63.444L55.037,63.542L55.044,63.591L55.051,63.639L55.06,63.688L55.068,63.736L55.088,63.832L55.097,63.877L55.121,63.975L55.146,64.07L55.173,64.163L55.203,64.256L55.234,64.349L55.268,64.44L55.305,64.531L55.343,64.621L55.384,64.709L55.426,64.797L55.471,64.884L55.518,64.97L55.568,65.054L55.619,65.137L55.674,65.222L55.7,65.26L55.728,65.301L55.756,65.341L55.785,65.38L55.814,65.42L55.844,65.459L55.875,65.497L55.906,65.536L55.937,65.574L55.969,65.611L56.002,65.649L56.035,65.685L56.068,65.722L56.102,65.758L56.171,65.829L56.242,65.898L56.278,65.932L56.315,65.965L56.351,65.998L56.389,66.031L56.426,66.063L56.464,66.094L56.503,66.125L56.541,66.156L56.58,66.186L56.62,66.215L56.659,66.244L56.699,66.272L56.74,66.3L56.778,66.326L56.863,66.381L56.946,66.432L57.03,66.482L57.116,66.529L57.203,66.574L57.291,66.616L57.379,66.657L57.469,66.695L57.56,66.732L57.651,66.766L57.744,66.797L57.837,66.827L57.931,66.854L58.025,66.879L58.123,66.903L58.168,66.913L58.216,66.922L58.264,66.932L58.312,66.94L58.361,66.949L58.409,66.956L58.458,66.963L58.556,66.975L58.654,66.985L58.703,66.989L58.752,66.992L58.802,66.995L58.851,66.997L58.901,66.999L58.95,67L69.026,67L69.075,66.999L69.125,66.997L69.174,66.995L69.224,66.992L69.273,66.989L69.322,66.985L69.371,66.98L69.42,66.975L69.469,66.969L69.518,66.963L69.567,66.956L69.615,66.949L69.664,66.94L69.712,66.932L69.76,66.922L69.808,66.913L69.853,66.903L69.951,66.879L70.045,66.854L70.139,66.827L70.232,66.797L70.325,66.766L70.416,66.732L70.507,66.695L70.597,66.657L70.685,66.616L70.773,66.574L70.86,66.529L70.946,66.482L71.03,66.432L71.113,66.381L71.198,66.326L71.236,66.3L71.277,66.272L71.317,66.244L71.356,66.215L71.396,66.186L71.435,66.156L71.473,66.125L71.512,66.094L71.55,66.063L71.587,66.031L71.624,65.998L71.661,65.965L71.698,65.932L71.734,65.898L71.77,65.863L71.805,65.829L71.839,65.794L71.874,65.758L71.908,65.722L71.941,65.685L71.974,65.649L72.007,65.611L72.039,65.574L72.07,65.536L72.101,65.497L72.132,65.459L72.162,65.42L72.191,65.38L72.22,65.341L72.248,65.301L72.276,65.26L72.302,65.222L72.357,65.137L72.408,65.054L72.458,64.97L72.505,64.884L72.55,64.797L72.592,64.709L72.633,64.621L72.671,64.531L72.708,64.44L72.742,64.349L72.773,64.256L72.803,64.163L72.83,64.069L72.855,63.975L72.879,63.877L72.889,63.832L72.898,63.784L72.908,63.736L72.916,63.688L72.925,63.639L72.932,63.591L72.939,63.542L72.945,63.493L72.951,63.444L72.956,63.395L72.961,63.346L72.965,63.297L72.968,63.248L72.971,63.198L72.973,63.149L72.975,63.099L72.976,63.05L72.976,62.997L72.976,1L55,1L55,62.997Z" style="fill:rgb(221,221,221);"/>
    <path d="M283.976,0L264,0L264,63C264,64.326 264.527,65.598 265.464,66.536C266.402,67.473 267.674,68 269,68L278.976,68C280.302,68 281.574,67.473 282.512,66.536C283.449,65.598 283.976,64.326 283.976,63L283.976,0Z" style="fill:white;"/>
    <path d="M283.976,63L283.976,63.062L283.974,63.124L283.973,63.186L283.97,63.248L283.966,63.31L283.962,63.371L283.957,63.433L283.952,63.494L283.945,63.555L283.938,63.617L283.93,63.678L283.921,63.738L283.912,63.799L283.902,63.86L283.891,63.92L283.879,63.98L283.867,64.04L283.854,64.1L283.825,64.219L283.794,64.337L283.76,64.454L283.723,64.571L283.683,64.686L283.641,64.8L283.595,64.914L283.547,65.026L283.497,65.137L283.443,65.246L283.387,65.355L283.328,65.462L283.267,65.567L283.203,65.672L283.136,65.774L283.102,65.825L283.067,65.875L283.031,65.925L282.995,65.975L282.958,66.024L282.921,66.073L282.883,66.121L282.844,66.169L282.805,66.217L282.765,66.264L282.724,66.31L282.683,66.356L282.641,66.402L282.599,66.447L282.556,66.492L282.512,66.536L282.468,66.58L282.423,66.623L282.378,66.665L282.332,66.707L282.286,66.748L282.24,66.789L282.193,66.829L282.145,66.868L282.097,66.907L282.049,66.945L282,66.982L281.951,67.019L281.901,67.055L281.851,67.091L281.801,67.126L281.75,67.16L281.648,67.227L281.543,67.291L281.438,67.352L281.331,67.411L281.222,67.467L281.113,67.521L281.002,67.571L280.889,67.619L280.776,67.665L280.662,67.707L280.547,67.747L280.43,67.784L280.313,67.818L280.195,67.849L280.076,67.878L280.016,67.891L279.956,67.903L279.896,67.915L279.836,67.926L279.775,67.936L279.714,67.945L279.654,67.954L279.593,67.962L279.531,67.969L279.47,67.976L279.409,67.981L279.347,67.986L279.286,67.99L279.224,67.994L279.162,67.997L279.1,67.998L279.038,68L278.976,68L269,68L268.938,68L268.876,67.998L268.814,67.997L268.752,67.994L268.69,67.99L268.629,67.986L268.567,67.981L268.506,67.976L268.445,67.969L268.383,67.962L268.322,67.954L268.262,67.945L268.201,67.936L268.14,67.926L268.08,67.915L268.02,67.903L267.96,67.891L267.9,67.878L267.781,67.849L267.663,67.818L267.546,67.784L267.429,67.747L267.314,67.707L267.2,67.665L267.086,67.619L266.974,67.571L266.863,67.521L266.754,67.467L266.645,67.411L266.538,67.352L266.433,67.291L266.328,67.227L266.226,67.16L266.175,67.126L266.125,67.091L266.075,67.055L266.025,67.019L265.976,66.982L265.927,66.945L265.879,66.907L265.831,66.868L265.783,66.829L265.736,66.789L265.69,66.748L265.644,66.707L265.598,66.665L265.553,66.623L265.508,66.58L265.464,66.536L265.42,66.492L265.377,66.447L265.335,66.402L265.293,66.356L265.252,66.31L265.211,66.264L265.171,66.217L265.132,66.169L265.093,66.121L265.055,66.073L265.018,66.024L264.981,65.975L264.945,65.925L264.909,65.875L264.874,65.825L264.84,65.774L264.773,65.672L264.709,65.567L264.648,65.462L264.589,65.355L264.533,65.246L264.479,65.137L264.429,65.026L264.381,64.914L264.335,64.8L264.293,64.686L264.253,64.571L264.216,64.454L264.182,64.337L264.151,64.219L264.122,64.1L264.109,64.04L264.097,63.98L264.085,63.92L264.074,63.86L264.064,63.799L264.055,63.738L264.046,63.678L264.038,63.617L264.031,63.555L264.024,63.494L264.019,63.433L264.014,63.371L264.01,63.31L264.006,63.248L264.003,63.186L264.002,63.124L264,63.062L264,63L264,0L283.976,0L283.976,63ZM265,62.997L265,63.05L265.001,63.099L265.005,63.198L265.008,63.248L265.011,63.297L265.015,63.346L265.025,63.444L265.037,63.542L265.044,63.591L265.051,63.639L265.06,63.688L265.068,63.736L265.088,63.832L265.097,63.877L265.121,63.975L265.146,64.07L265.173,64.163L265.203,64.256L265.234,64.349L265.268,64.44L265.305,64.531L265.343,64.621L265.384,64.709L265.426,64.797L265.471,64.884L265.518,64.97L265.568,65.054L265.619,65.138L265.674,65.222L265.7,65.26L265.728,65.301L265.756,65.341L265.785,65.38L265.814,65.42L265.844,65.459L265.875,65.497L265.906,65.536L265.937,65.574L265.969,65.611L266.068,65.722L266.102,65.758L266.171,65.829L266.242,65.898L266.278,65.932L266.389,66.031L266.426,66.063L266.464,66.094L266.503,66.125L266.541,66.156L266.58,66.186L266.62,66.215L266.659,66.244L266.699,66.272L266.778,66.326L266.862,66.381L266.946,66.432L267.03,66.482L267.116,66.529L267.203,66.574L267.291,66.616L267.379,66.657L267.469,66.695L267.56,66.732L267.651,66.766L267.744,66.797L267.837,66.827L267.931,66.854L268.025,66.879L268.123,66.903L268.168,66.913L268.216,66.922L268.264,66.932L268.312,66.94L268.361,66.949L268.409,66.956L268.458,66.963L268.556,66.975L268.654,66.985L268.703,66.989L268.752,66.992L268.802,66.995L268.851,66.997L268.901,66.999L268.95,67L279.026,67L279.075,66.999L279.125,66.997L279.174,66.995L279.224,66.992L279.273,66.989L279.322,66.985L279.371,66.98L279.42,66.975L279.469,66.969L279.518,66.963L279.567,66.956L279.615,66.949L279.664,66.94L279.712,66.932L279.76,66.922L279.808,66.913L279.853,66.903L279.951,66.879L280.045,66.854L280.139,66.827L280.232,66.797L280.325,66.766L280.416,66.732L280.507,66.695L280.597,66.657L280.685,66.616L280.773,66.574L280.86,66.529L280.946,66.482L281.03,66.432L281.113,66.381L281.198,66.326L281.236,66.3L281.277,66.272L281.317,66.244L281.356,66.215L281.396,66.186L281.435,66.156L281.473,66.125L281.512,66.094L281.55,66.063L281.587,66.031L281.625,65.998L281.661,65.965L281.698,65.932L281.734,65.898L281.77,65.863L281.805,65.829L281.839,65.794L281.874,65.758L281.908,65.722L281.941,65.685L281.974,65.649L282.007,65.611L282.039,65.574L282.07,65.536L282.101,65.497L282.132,65.459L282.162,65.42L282.191,65.38L282.22,65.341L282.248,65.301L282.276,65.26L282.302,65.222L282.357,65.137L282.408,65.054L282.458,64.97L282.505,64.884L282.55,64.797L282.592,64.709L282.633,64.621L282.671,64.531L282.708,64.44L282.742,64.349L282.773,64.257L282.803,64.163L282.83,64.069L282.855,63.975L282.879,63.877L282.888,63.832L282.898,63.784L282.908,63.736L282.916,63.688L282.925,63.639L282.932,63.591L282.939,63.542L282.945,63.493L282.951,63.444L282.956,63.395L282.961,63.346L282.965,63.297L282.968,63.248L282.971,63.198L282.973,63.149L282.975,63.099L282.976,63.05L282.976,62.997L282.976,1L265,1L265,62.997Z" style="fill:rgb(221,221,221);"/>
    <path d="M125.976,0L106,0L106,63C106,64.326 106.527,65.598 107.464,66.536C108.402,67.473 109.674,68 111,68L120.976,68C122.302,68 123.574,67.473 124.512,66.536C125.449,65.598 125.976,64.326 125.976,63L125.976,0Z" style="fill:white;"/>
    <path d="M125.976,63L125.976,63.062L125.974,63.124L125.973,63.186L125.97,63.248L125.966,63.31L125.962,63.371L125.957,63.433L125.952,63.494L125.945,63.555L125.938,63.617L125.93,63.678L125.921,63.738L125.912,63.799L125.902,63.86L125.891,63.92L125.879,63.98L125.867,64.04L125.854,64.1L125.825,64.219L125.794,64.337L125.76,64.454L125.723,64.571L125.683,64.686L125.641,64.8L125.595,64.914L125.547,65.026L125.497,65.137L125.443,65.246L125.387,65.355L125.328,65.462L125.267,65.567L125.203,65.672L125.136,65.774L125.102,65.825L125.067,65.875L125.031,65.925L124.995,65.975L124.958,66.024L124.921,66.073L124.883,66.121L124.844,66.169L124.805,66.217L124.765,66.264L124.724,66.31L124.683,66.356L124.641,66.402L124.599,66.447L124.556,66.492L124.512,66.536L124.468,66.58L124.423,66.623L124.378,66.665L124.332,66.707L124.286,66.748L124.24,66.789L124.193,66.829L124.145,66.868L124.097,66.907L124.049,66.945L124,66.982L123.951,67.019L123.901,67.055L123.851,67.091L123.801,67.126L123.75,67.16L123.648,67.227L123.543,67.291L123.438,67.352L123.331,67.411L123.222,67.467L123.113,67.521L123.002,67.571L122.89,67.619L122.776,67.665L122.662,67.707L122.547,67.747L122.43,67.784L122.313,67.818L122.195,67.849L122.076,67.878L122.016,67.891L121.956,67.903L121.896,67.915L121.836,67.926L121.775,67.936L121.714,67.945L121.654,67.954L121.593,67.962L121.531,67.969L121.47,67.976L121.409,67.981L121.347,67.986L121.286,67.99L121.224,67.994L121.162,67.997L121.1,67.998L121.038,68L120.976,68L111,68L110.938,68L110.876,67.998L110.814,67.997L110.752,67.994L110.69,67.99L110.629,67.986L110.567,67.981L110.506,67.976L110.445,67.969L110.383,67.962L110.322,67.954L110.262,67.945L110.201,67.936L110.14,67.926L110.08,67.915L110.02,67.903L109.96,67.891L109.9,67.878L109.781,67.849L109.663,67.818L109.546,67.784L109.429,67.747L109.314,67.707L109.2,67.665L109.087,67.619L108.974,67.571L108.863,67.521L108.754,67.467L108.645,67.411L108.538,67.352L108.433,67.291L108.328,67.227L108.226,67.16L108.175,67.126L108.125,67.091L108.075,67.055L108.025,67.019L107.976,66.982L107.927,66.945L107.879,66.907L107.831,66.868L107.783,66.829L107.736,66.789L107.69,66.748L107.644,66.707L107.598,66.665L107.553,66.623L107.508,66.58L107.464,66.536L107.42,66.492L107.377,66.447L107.335,66.402L107.293,66.356L107.252,66.31L107.211,66.264L107.171,66.217L107.132,66.169L107.093,66.121L107.055,66.073L107.018,66.024L106.981,65.975L106.945,65.925L106.909,65.875L106.874,65.825L106.84,65.774L106.773,65.672L106.709,65.567L106.648,65.462L106.589,65.355L106.533,65.246L106.479,65.137L106.429,65.026L106.381,64.914L106.335,64.8L106.293,64.686L106.253,64.571L106.216,64.454L106.182,64.337L106.151,64.219L106.122,64.1L106.109,64.04L106.097,63.98L106.085,63.92L106.074,63.86L106.064,63.799L106.055,63.738L106.046,63.678L106.038,63.617L106.031,63.555L106.024,63.494L106.019,63.433L106.014,63.371L106.01,63.31L106.006,63.248L106.003,63.186L106.002,63.124L106,63.062L106,63L106,0L125.976,0L125.976,63ZM107,62.997L107,63.05L107.001,63.099L107.005,63.198L107.008,63.248L107.011,63.297L107.015,63.346L107.025,63.444L107.037,63.542L107.044,63.591L107.051,63.639L107.06,63.688L107.068,63.736L107.088,63.832L107.097,63.877L107.121,63.975L107.146,64.069L107.173,64.163L107.203,64.256L107.234,64.349L107.268,64.44L107.305,64.531L107.343,64.621L107.384,64.709L107.426,64.797L107.471,64.884L107.518,64.97L107.568,65.054L107.619,65.137L107.674,65.222L107.728,65.301L107.756,65.341L107.785,65.38L107.814,65.42L107.844,65.459L107.875,65.497L107.906,65.536L107.937,65.574L107.969,65.611L108.002,65.649L108.035,65.685L108.068,65.722L108.102,65.758L108.171,65.829L108.242,65.898L108.278,65.932L108.315,65.965L108.351,65.998L108.389,66.031L108.426,66.063L108.464,66.094L108.503,66.125L108.541,66.156L108.58,66.186L108.62,66.215L108.659,66.244L108.699,66.272L108.74,66.3L108.778,66.326L108.863,66.381L108.946,66.432L109.03,66.482L109.116,66.529L109.203,66.574L109.291,66.616L109.379,66.657L109.469,66.695L109.56,66.732L109.651,66.766L109.744,66.797L109.837,66.827L109.931,66.854L110.025,66.879L110.123,66.903L110.168,66.913L110.216,66.922L110.264,66.932L110.312,66.94L110.361,66.949L110.409,66.956L110.458,66.963L110.556,66.975L110.654,66.985L110.703,66.989L110.752,66.992L110.802,66.995L110.901,66.999L110.95,67L121.026,67L121.075,66.999L121.125,66.997L121.174,66.995L121.224,66.992L121.273,66.989L121.322,66.985L121.371,66.98L121.42,66.975L121.469,66.969L121.518,66.963L121.567,66.956L121.615,66.949L121.664,66.94L121.712,66.932L121.76,66.922L121.808,66.913L121.853,66.903L121.951,66.879L122.045,66.854L122.139,66.827L122.232,66.797L122.325,66.766L122.416,66.732L122.507,66.695L122.597,66.657L122.685,66.616L122.773,66.574L122.86,66.529L122.946,66.482L123.03,66.432L123.113,66.381L123.198,66.326L123.236,66.3L123.277,66.272L123.317,66.244L123.356,66.215L123.396,66.186L123.435,66.156L123.473,66.125L123.512,66.094L123.55,66.063L123.587,66.031L123.624,65.998L123.661,65.965L123.698,65.932L123.734,65.898L123.77,65.863L123.805,65.829L123.839,65.794L123.874,65.758L123.908,65.722L123.941,65.685L123.974,65.649L124.007,65.611L124.039,65.574L124.07,65.536L124.101,65.497L124.132,65.459L124.162,65.42L124.191,65.38L124.22,65.341L124.248,65.301L124.276,65.26L124.302,65.222L124.357,65.137L124.408,65.054L124.458,64.97L124.505,64.884L124.55,64.797L124.592,64.709L124.633,64.621L124.671,64.531L124.708,64.44L124.742,64.349L124.773,64.256L124.803,64.163L124.83,64.069L124.855,63.975L124.879,63.877L124.888,63.832L124.898,63.784L124.908,63.736L124.916,63.688L124.925,63.639L124.932,63.591L124.939,63.542L124.945,63.493L124.951,63.444L124.956,63.395L124.961,63.346L124.965,63.297L124.968,63.248L124.971,63.198L124.973,63.149L124.975,63.099L124.976,63.05L124.976,62.997L124.976,1L107,1L107,62.997Z" style="fill:rgb(221,221,221);"/>
    <path d="M335.976,0L316,0L316,63C316,64.326 316.527,65.598 317.464,66.536C318.402,67.473 319.674,68 321,68L330.976,68C332.302,68 333.574,67.473 334.512,66.536C335.449,65.598 335.976,64.326 335.976,63L335.976,0Z" style="fill:white;"/>
    <path d="M335.976,63L335.976,63.062L335.974,63.124L335.973,63.186L335.97,63.248L335.966,63.31L335.962,63.371L335.957,63.433L335.952,63.494L335.945,63.555L335.938,63.617L335.93,63.678L335.921,63.738L335.912,63.799L335.902,63.86L335.891,63.92L335.879,63.98L335.867,64.04L335.854,64.1L335.825,64.219L335.794,64.337L335.76,64.454L335.723,64.571L335.683,64.686L335.641,64.8L335.595,64.914L335.547,65.026L335.497,65.137L335.443,65.246L335.387,65.355L335.328,65.462L335.267,65.567L335.203,65.672L335.136,65.774L335.102,65.825L335.067,65.875L335.031,65.925L334.995,65.975L334.958,66.024L334.921,66.073L334.883,66.121L334.844,66.169L334.805,66.217L334.765,66.264L334.724,66.31L334.683,66.356L334.641,66.402L334.599,66.447L334.556,66.492L334.512,66.536L334.468,66.58L334.423,66.623L334.378,66.665L334.332,66.707L334.286,66.748L334.24,66.789L334.193,66.829L334.145,66.868L334.097,66.907L334.049,66.945L334,66.982L333.951,67.019L333.901,67.055L333.851,67.091L333.801,67.126L333.75,67.16L333.648,67.227L333.543,67.291L333.438,67.352L333.331,67.411L333.222,67.467L333.113,67.521L333.002,67.571L332.889,67.619L332.776,67.665L332.662,67.707L332.547,67.747L332.43,67.784L332.313,67.818L332.195,67.849L332.076,67.878L332.016,67.891L331.956,67.903L331.896,67.915L331.836,67.926L331.775,67.936L331.714,67.945L331.654,67.954L331.593,67.962L331.531,67.969L331.47,67.976L331.409,67.981L331.347,67.986L331.286,67.99L331.224,67.994L331.162,67.997L331.1,67.998L331.038,68L330.976,68L321,68L320.938,68L320.876,67.998L320.814,67.997L320.752,67.994L320.69,67.99L320.629,67.986L320.567,67.981L320.506,67.976L320.445,67.969L320.383,67.962L320.322,67.954L320.262,67.945L320.201,67.936L320.14,67.926L320.08,67.915L320.02,67.903L319.96,67.891L319.9,67.878L319.781,67.849L319.663,67.818L319.546,67.784L319.429,67.747L319.314,67.707L319.2,67.665L319.086,67.619L318.974,67.571L318.863,67.521L318.754,67.467L318.645,67.411L318.538,67.352L318.433,67.291L318.328,67.227L318.226,67.16L318.175,67.126L318.125,67.091L318.075,67.055L318.025,67.019L317.976,66.982L317.927,66.945L317.879,66.907L317.831,66.868L317.783,66.829L317.736,66.789L317.69,66.748L317.644,66.707L317.598,66.665L317.553,66.623L317.508,66.58L317.464,66.536L317.42,66.492L317.377,66.447L317.335,66.402L317.293,66.356L317.252,66.31L317.211,66.264L317.171,66.217L317.132,66.169L317.093,66.121L317.055,66.073L317.018,66.024L316.981,65.975L316.945,65.925L316.909,65.875L316.874,65.825L316.84,65.774L316.773,65.672L316.709,65.567L316.648,65.462L316.589,65.355L316.533,65.246L316.479,65.137L316.429,65.026L316.381,64.914L316.335,64.8L316.293,64.686L316.253,64.571L316.216,64.454L316.182,64.337L316.151,64.219L316.122,64.1L316.109,64.04L316.097,63.98L316.085,63.92L316.074,63.86L316.064,63.799L316.055,63.738L316.046,63.678L316.038,63.617L316.031,63.555L316.024,63.494L316.019,63.433L316.014,63.371L316.01,63.31L316.006,63.248L316.003,63.186L316.002,63.124L316,63.062L316,63L316,0L335.976,0L335.976,63ZM317,62.997L317,63.05L317.001,63.099L317.003,63.149L317.005,63.198L317.008,63.248L317.011,63.297L317.015,63.346L317.025,63.444L317.037,63.542L317.044,63.591L317.051,63.639L317.06,63.688L317.068,63.736L317.088,63.832L317.097,63.877L317.121,63.975L317.146,64.07L317.173,64.163L317.203,64.256L317.234,64.349L317.268,64.44L317.305,64.531L317.343,64.621L317.384,64.709L317.426,64.797L317.471,64.884L317.518,64.97L317.568,65.054L317.619,65.138L317.674,65.222L317.7,65.26L317.728,65.301L317.756,65.341L317.785,65.38L317.814,65.42L317.844,65.459L317.875,65.497L317.906,65.536L317.937,65.574L317.969,65.611L318.068,65.722L318.102,65.758L318.171,65.829L318.242,65.898L318.278,65.932L318.315,65.965L318.351,65.998L318.389,66.031L318.426,66.063L318.464,66.094L318.503,66.125L318.541,66.156L318.58,66.186L318.62,66.215L318.659,66.244L318.699,66.272L318.778,66.326L318.863,66.381L318.946,66.432L319.03,66.482L319.116,66.529L319.203,66.574L319.291,66.616L319.379,66.657L319.469,66.695L319.56,66.732L319.651,66.766L319.744,66.797L319.837,66.827L319.931,66.854L320.025,66.879L320.123,66.903L320.168,66.913L320.216,66.922L320.264,66.932L320.312,66.94L320.361,66.949L320.409,66.956L320.458,66.963L320.556,66.975L320.654,66.985L320.703,66.989L320.752,66.992L320.802,66.995L320.851,66.997L320.901,66.999L320.95,67L331.026,67L331.075,66.999L331.125,66.997L331.174,66.995L331.224,66.992L331.273,66.989L331.322,66.985L331.371,66.98L331.42,66.975L331.469,66.969L331.518,66.963L331.567,66.956L331.615,66.949L331.664,66.94L331.712,66.932L331.76,66.922L331.808,66.913L331.853,66.903L331.951,66.879L332.045,66.854L332.139,66.827L332.232,66.797L332.325,66.766L332.416,66.732L332.507,66.695L332.597,66.657L332.685,66.616L332.773,66.574L332.86,66.529L332.946,66.482L333.03,66.432L333.113,66.381L333.198,66.326L333.236,66.3L333.277,66.272L333.317,66.244L333.356,66.215L333.396,66.186L333.435,66.156L333.473,66.125L333.512,66.094L333.55,66.063L333.587,66.031L333.625,65.998L333.661,65.965L333.698,65.932L333.734,65.898L333.77,65.863L333.805,65.829L333.839,65.794L333.874,65.758L333.908,65.722L333.941,65.685L333.974,65.648L334.007,65.611L334.039,65.574L334.07,65.536L334.101,65.497L334.132,65.459L334.162,65.42L334.191,65.38L334.22,65.341L334.249,65.301L334.276,65.26L334.302,65.222L334.357,65.137L334.408,65.054L334.458,64.97L334.505,64.884L334.55,64.797L334.592,64.709L334.633,64.621L334.671,64.531L334.708,64.44L334.742,64.349L334.773,64.256L334.803,64.163L334.83,64.07L334.855,63.975L334.879,63.877L334.888,63.832L334.898,63.784L334.908,63.736L334.916,63.688L334.925,63.639L334.932,63.591L334.939,63.542L334.945,63.493L334.951,63.444L334.956,63.395L334.961,63.346L334.965,63.297L334.968,63.248L334.971,63.198L334.973,63.149L334.975,63.099L334.976,63.05L334.976,62.997L334.976,1L317,1L317,62.997Z" style="fill:rgb(221,221,221);"/>
    <path d="M159.976,0L140,0L140,63C140,64.326 140.527,65.598 141.464,66.536C142.402,67.473 143.674,68 145,68L154.976,68C156.302,68 157.574,67.473 158.512,66.536C159.449,65.598 159.976,64.326 159.976,63L159.976,0Z" style="fill:white;"/>
    <path d="M159.976,63L159.976,63.062L159.974,63.124L159.973,63.186L159.97,63.248L159.966,63.31L159.962,63.371L159.957,63.433L159.952,63.494L159.945,63.555L159.938,63.617L159.93,63.678L159.921,63.738L159.912,63.799L159.902,63.86L159.891,63.92L159.879,63.98L159.867,64.04L159.854,64.1L159.825,64.219L159.794,64.337L159.76,64.454L159.723,64.571L159.683,64.686L159.641,64.8L159.595,64.914L159.547,65.026L159.497,65.137L159.443,65.246L159.387,65.355L159.328,65.462L159.267,65.567L159.203,65.672L159.136,65.774L159.102,65.825L159.067,65.875L159.031,65.925L158.995,65.975L158.958,66.024L158.921,66.073L158.883,66.121L158.844,66.169L158.805,66.217L158.765,66.264L158.724,66.31L158.683,66.356L158.641,66.402L158.599,66.447L158.556,66.492L158.512,66.536L158.468,66.58L158.423,66.623L158.378,66.665L158.332,66.707L158.286,66.748L158.24,66.789L158.193,66.829L158.145,66.868L158.097,66.907L158.049,66.945L158,66.982L157.951,67.019L157.901,67.055L157.851,67.091L157.801,67.126L157.75,67.16L157.648,67.227L157.543,67.291L157.438,67.352L157.331,67.411L157.222,67.467L157.113,67.521L157.002,67.571L156.889,67.619L156.776,67.665L156.662,67.707L156.547,67.747L156.43,67.784L156.313,67.818L156.195,67.849L156.076,67.878L156.016,67.891L155.956,67.903L155.896,67.915L155.836,67.926L155.775,67.936L155.714,67.945L155.654,67.954L155.593,67.962L155.531,67.969L155.47,67.976L155.409,67.981L155.347,67.986L155.286,67.99L155.224,67.994L155.162,67.997L155.1,67.998L155.038,68L154.976,68L145,68L144.938,68L144.876,67.998L144.814,67.997L144.752,67.994L144.69,67.99L144.629,67.986L144.567,67.981L144.506,67.976L144.445,67.969L144.383,67.962L144.322,67.954L144.262,67.945L144.201,67.936L144.14,67.926L144.08,67.915L144.02,67.903L143.96,67.891L143.9,67.878L143.781,67.849L143.663,67.818L143.546,67.784L143.429,67.747L143.314,67.707L143.2,67.665L143.087,67.619L142.974,67.571L142.863,67.521L142.754,67.467L142.645,67.411L142.538,67.352L142.433,67.291L142.328,67.227L142.226,67.16L142.175,67.126L142.125,67.091L142.075,67.055L142.025,67.019L141.976,66.982L141.927,66.945L141.879,66.907L141.831,66.868L141.783,66.829L141.736,66.789L141.69,66.748L141.644,66.707L141.598,66.665L141.553,66.623L141.508,66.58L141.464,66.536L141.42,66.492L141.377,66.447L141.335,66.402L141.293,66.356L141.252,66.31L141.211,66.264L141.171,66.217L141.132,66.169L141.093,66.121L141.055,66.073L141.018,66.024L140.981,65.975L140.945,65.925L140.909,65.875L140.874,65.825L140.84,65.774L140.773,65.672L140.709,65.567L140.648,65.462L140.589,65.355L140.533,65.246L140.479,65.137L140.429,65.026L140.381,64.914L140.335,64.8L140.293,64.686L140.253,64.571L140.216,64.454L140.182,64.337L140.151,64.219L140.122,64.1L140.109,64.04L140.097,63.98L140.085,63.92L140.074,63.86L140.064,63.799L140.055,63.738L140.046,63.678L140.038,63.617L140.031,63.555L140.024,63.494L140.019,63.433L140.014,63.371L140.01,63.31L140.006,63.248L140.003,63.186L140.002,63.124L140,63.062L140,63L140,0L159.976,0L159.976,63ZM141,62.997L141,63.05L141.001,63.099L141.005,63.198L141.008,63.248L141.011,63.297L141.015,63.346L141.025,63.444L141.037,63.542L141.044,63.591L141.051,63.639L141.06,63.688L141.068,63.736L141.078,63.784L141.087,63.832L141.097,63.877L141.121,63.975L141.146,64.07L141.173,64.163L141.203,64.256L141.234,64.349L141.268,64.44L141.305,64.531L141.343,64.621L141.384,64.709L141.426,64.797L141.471,64.884L141.518,64.97L141.568,65.054L141.619,65.137L141.674,65.222L141.728,65.301L141.756,65.341L141.785,65.38L141.814,65.42L141.844,65.459L141.875,65.497L141.906,65.536L141.937,65.574L141.969,65.611L142.002,65.649L142.035,65.685L142.068,65.722L142.102,65.758L142.171,65.829L142.242,65.898L142.278,65.932L142.389,66.031L142.426,66.063L142.464,66.094L142.503,66.125L142.541,66.156L142.58,66.186L142.62,66.215L142.659,66.244L142.699,66.272L142.778,66.326L142.863,66.381L142.946,66.432L143.03,66.482L143.116,66.529L143.203,66.574L143.291,66.616L143.379,66.657L143.469,66.695L143.56,66.732L143.651,66.766L143.744,66.797L143.837,66.827L143.931,66.854L144.025,66.879L144.123,66.903L144.168,66.913L144.216,66.922L144.264,66.932L144.312,66.94L144.361,66.949L144.409,66.956L144.458,66.963L144.556,66.975L144.654,66.985L144.703,66.989L144.752,66.992L144.802,66.995L144.901,66.999L144.95,67L155.026,67L155.075,66.999L155.125,66.997L155.174,66.995L155.224,66.992L155.273,66.989L155.322,66.985L155.371,66.98L155.42,66.975L155.469,66.969L155.518,66.963L155.567,66.956L155.615,66.949L155.664,66.94L155.712,66.932L155.76,66.922L155.808,66.913L155.853,66.903L155.951,66.879L156.045,66.854L156.139,66.827L156.232,66.797L156.325,66.766L156.416,66.732L156.507,66.695L156.597,66.657L156.685,66.616L156.773,66.574L156.86,66.529L156.946,66.482L157.03,66.432L157.113,66.381L157.198,66.326L157.236,66.3L157.277,66.272L157.317,66.244L157.356,66.215L157.396,66.186L157.435,66.156L157.473,66.125L157.512,66.094L157.55,66.063L157.587,66.031L157.624,65.998L157.661,65.965L157.698,65.932L157.734,65.898L157.77,65.863L157.805,65.829L157.839,65.794L157.874,65.758L157.908,65.722L157.941,65.685L157.974,65.649L158.007,65.611L158.039,65.574L158.07,65.536L158.101,65.497L158.132,65.459L158.162,65.42L158.191,65.38L158.22,65.341L158.248,65.301L158.276,65.26L158.302,65.222L158.357,65.137L158.408,65.054L158.458,64.97L158.505,64.884L158.55,64.797L158.592,64.709L158.633,64.621L158.671,64.531L158.708,64.44L158.742,64.349L158.773,64.256L158.803,64.163L158.83,64.069L158.855,63.975L158.879,63.877L158.888,63.832L158.898,63.784L158.908,63.736L158.916,63.688L158.925,63.639L158.932,63.591L158.939,63.542L158.945,63.493L158.951,63.444L158.956,63.395L158.961,63.346L158.965,63.297L158.968,63.248L158.971,63.198L158.973,63.149L158.975,63.099L158.976,63.05L158.976,62.997L158.976,1L141,1L141,62.997Z" style="fill:rgb(221,221,221);"/>
    <path d="M369.976,0L350,0L350,63C350,64.326 350.527,65.598 351.464,66.536C352.402,67.473 353.674,68 355,68L364.976,68C366.302,68 367.574,67.473 368.512,66.536C369.449,65.598 369.976,64.326 369.976,63L369.976,0Z" style="fill:white;"/>
    <path d="M369.976,63L369.976,63.062L369.974,63.124L369.973,63.186L369.97,63.248L369.966,63.31L369.962,63.371L369.957,63.433L369.952,63.494L369.945,63.555L369.938,63.617L369.93,63.678L369.921,63.738L369.912,63.799L369.902,63.86L369.891,63.92L369.879,63.98L369.867,64.04L369.854,64.1L369.825,64.219L369.794,64.337L369.76,64.454L369.723,64.571L369.683,64.686L369.641,64.8L369.595,64.914L369.547,65.026L369.497,65.137L369.443,65.246L369.387,65.355L369.328,65.462L369.267,65.567L369.203,65.672L369.136,65.774L369.102,65.825L369.067,65.875L369.031,65.925L368.995,65.975L368.958,66.024L368.921,66.073L368.883,66.121L368.844,66.169L368.805,66.217L368.765,66.264L368.724,66.31L368.683,66.356L368.641,66.402L368.599,66.447L368.556,66.492L368.512,66.536L368.468,66.58L368.423,66.623L368.378,66.665L368.332,66.707L368.286,66.748L368.24,66.789L368.193,66.829L368.145,66.868L368.097,66.907L368.049,66.945L368,66.982L367.951,67.019L367.901,67.055L367.851,67.091L367.801,67.126L367.75,67.16L367.648,67.227L367.543,67.291L367.438,67.352L367.331,67.411L367.222,67.467L367.113,67.521L367.002,67.571L366.889,67.619L366.776,67.665L366.662,67.707L366.547,67.747L366.43,67.784L366.313,67.818L366.195,67.849L366.076,67.878L366.016,67.891L365.956,67.903L365.896,67.915L365.836,67.926L365.775,67.936L365.714,67.945L365.654,67.954L365.593,67.962L365.531,67.969L365.47,67.976L365.409,67.981L365.347,67.986L365.286,67.99L365.224,67.994L365.162,67.997L365.1,67.998L365.038,68L364.976,68L355,68L354.938,68L354.876,67.998L354.814,67.997L354.752,67.994L354.69,67.99L354.629,67.986L354.567,67.981L354.506,67.976L354.445,67.969L354.383,67.962L354.322,67.954L354.262,67.945L354.201,67.936L354.14,67.926L354.08,67.915L354.02,67.903L353.96,67.891L353.9,67.878L353.781,67.849L353.663,67.818L353.546,67.784L353.429,67.747L353.314,67.707L353.2,67.665L353.086,67.619L352.974,67.571L352.863,67.521L352.754,67.467L352.645,67.411L352.538,67.352L352.433,67.291L352.328,67.227L352.226,67.16L352.175,67.126L352.125,67.091L352.075,67.055L352.025,67.019L351.976,66.982L351.927,66.945L351.879,66.907L351.831,66.868L351.783,66.829L351.736,66.789L351.69,66.748L351.644,66.707L351.598,66.665L351.553,66.623L351.508,66.58L351.464,66.536L351.42,66.492L351.377,66.447L351.335,66.402L351.293,66.356L351.252,66.31L351.211,66.264L351.171,66.217L351.132,66.169L351.093,66.121L351.055,66.073L351.018,66.024L350.981,65.975L350.945,65.925L350.909,65.875L350.874,65.825L350.84,65.774L350.773,65.672L350.709,65.567L350.648,65.462L350.589,65.355L350.533,65.246L350.479,65.137L350.429,65.026L350.381,64.914L350.335,64.8L350.293,64.686L350.253,64.571L350.216,64.454L350.182,64.337L350.151,64.219L350.122,64.1L350.109,64.04L350.097,63.98L350.085,63.92L350.074,63.86L350.064,63.799L350.055,63.738L350.046,63.678L350.038,63.617L350.031,63.555L350.024,63.494L350.019,63.433L350.014,63.371L350.01,63.31L350.006,63.248L350.003,63.186L350.002,63.124L350,63.062L350,63L350,0L369.976,0L369.976,63ZM351,62.997L351,63.05L351.001,63.099L351.003,63.149L351.005,63.198L351.008,63.248L351.011,63.297L351.015,63.346L351.025,63.444L351.037,63.542L351.044,63.591L351.051,63.639L351.06,63.688L351.068,63.736L351.088,63.832L351.097,63.877L351.121,63.975L351.146,64.07L351.173,64.163L351.203,64.256L351.234,64.349L351.268,64.44L351.305,64.531L351.343,64.621L351.384,64.709L351.426,64.797L351.471,64.884L351.518,64.97L351.568,65.054L351.619,65.138L351.674,65.222L351.7,65.26L351.728,65.301L351.756,65.341L351.785,65.38L351.814,65.42L351.844,65.459L351.875,65.497L351.906,65.536L351.937,65.574L351.969,65.611L352.068,65.722L352.102,65.758L352.171,65.829L352.242,65.898L352.278,65.932L352.315,65.965L352.351,65.998L352.389,66.031L352.426,66.063L352.464,66.094L352.503,66.125L352.541,66.156L352.58,66.186L352.62,66.215L352.659,66.244L352.699,66.272L352.74,66.3L352.778,66.326L352.863,66.381L352.946,66.432L353.03,66.482L353.116,66.529L353.203,66.574L353.291,66.616L353.379,66.657L353.469,66.695L353.56,66.732L353.651,66.766L353.744,66.797L353.837,66.827L353.931,66.854L354.025,66.879L354.123,66.903L354.168,66.913L354.216,66.922L354.264,66.932L354.312,66.94L354.361,66.949L354.409,66.956L354.458,66.963L354.556,66.975L354.654,66.985L354.703,66.989L354.752,66.992L354.802,66.995L354.901,66.999L354.95,67L365.026,67L365.075,66.999L365.125,66.997L365.174,66.995L365.224,66.992L365.273,66.989L365.322,66.985L365.371,66.98L365.42,66.975L365.469,66.969L365.518,66.963L365.567,66.956L365.615,66.949L365.664,66.94L365.712,66.932L365.76,66.922L365.808,66.913L365.853,66.903L365.951,66.879L366.045,66.854L366.139,66.827L366.232,66.797L366.325,66.766L366.416,66.732L366.507,66.695L366.597,66.657L366.685,66.616L366.773,66.574L366.86,66.529L366.946,66.482L367.03,66.432L367.113,66.381L367.198,66.326L367.236,66.3L367.277,66.272L367.317,66.244L367.356,66.215L367.396,66.186L367.435,66.156L367.473,66.125L367.512,66.094L367.55,66.063L367.587,66.031L367.625,65.998L367.661,65.965L367.698,65.932L367.734,65.898L367.77,65.863L367.805,65.829L367.839,65.794L367.874,65.758L367.908,65.722L367.941,65.685L367.974,65.648L368.007,65.611L368.039,65.574L368.07,65.536L368.101,65.497L368.132,65.459L368.162,65.42L368.191,65.38L368.22,65.341L368.249,65.301L368.276,65.26L368.302,65.222L368.357,65.137L368.408,65.054L368.458,64.97L368.505,64.884L368.55,64.797L368.592,64.709L368.633,64.621L368.671,64.531L368.708,64.44L368.742,64.349L368.773,64.256L368.803,64.163L368.83,64.07L368.855,63.975L368.879,63.877L368.888,63.832L368.898,63.784L368.908,63.736L368.916,63.688L368.925,63.639L368.932,63.591L368.939,63.542L368.945,63.493L368.951,63.444L368.956,63.395L368.961,63.346L368.965,63.297L368.968,63.248L368.971,63.198L368.973,63.149L368.975,63.099L368.976,63.05L368.976,62.997L368.976,1L351,1L351,62.997Z" style="fill:rgb(221,221,221);"/>
    <path d="M193.976,0L174,0L174,63C174,64.326 174.527,65.598 175.464,66.536C176.402,67.473 177.674,68 179,68L188.976,68C190.302,68 191.574,67.473 192.512,66.536C193.449,65.598 193.976,64.326 193.976,63L193.976,0Z" style="fill:white;"/>
    <path d="M193.976,63L193.976,63.062L193.974,63.124L193.973,63.186L193.97,63.248L193.966,63.31L193.962,63.371L193.957,63.433L193.952,63.494L193.945,63.555L193.938,63.617L193.93,63.678L193.921,63.738L193.912,63.799L193.902,63.86L193.891,63.92L193.879,63.98L193.867,64.04L193.854,64.1L193.825,64.219L193.794,64.337L193.76,64.454L193.723,64.571L193.683,64.686L193.641,64.8L193.595,64.914L193.547,65.026L193.497,65.137L193.443,65.246L193.387,65.355L193.328,65.462L193.267,65.567L193.203,65.672L193.136,65.774L193.102,65.825L193.067,65.875L193.031,65.925L192.995,65.975L192.958,66.024L192.921,66.073L192.883,66.121L192.844,66.169L192.805,66.217L192.765,66.264L192.724,66.31L192.683,66.356L192.641,66.402L192.599,66.447L192.556,66.492L192.512,66.536L192.468,66.58L192.423,66.623L192.378,66.665L192.332,66.707L192.286,66.748L192.24,66.789L192.193,66.829L192.145,66.868L192.097,66.907L192.049,66.945L192,66.982L191.951,67.019L191.901,67.055L191.851,67.091L191.801,67.126L191.75,67.16L191.648,67.227L191.543,67.291L191.438,67.352L191.331,67.411L191.222,67.467L191.113,67.521L191.002,67.571L190.889,67.619L190.776,67.665L190.662,67.707L190.547,67.747L190.43,67.784L190.313,67.818L190.195,67.849L190.076,67.878L190.016,67.891L189.956,67.903L189.896,67.915L189.836,67.926L189.775,67.936L189.714,67.945L189.654,67.954L189.593,67.962L189.531,67.969L189.47,67.976L189.409,67.981L189.347,67.986L189.286,67.99L189.224,67.994L189.162,67.997L189.1,67.998L189.038,68L188.976,68L179,68L178.938,68L178.876,67.998L178.814,67.997L178.752,67.994L178.69,67.99L178.629,67.986L178.567,67.981L178.506,67.976L178.445,67.969L178.383,67.962L178.322,67.954L178.262,67.945L178.201,67.936L178.14,67.926L178.08,67.915L178.02,67.903L177.96,67.891L177.9,67.878L177.781,67.849L177.663,67.818L177.546,67.784L177.429,67.747L177.314,67.707L177.2,67.665L177.087,67.619L176.974,67.571L176.863,67.521L176.754,67.467L176.645,67.411L176.538,67.352L176.433,67.291L176.328,67.227L176.226,67.16L176.175,67.126L176.125,67.091L176.075,67.055L176.025,67.019L175.976,66.982L175.927,66.945L175.879,66.907L175.831,66.868L175.783,66.829L175.736,66.789L175.69,66.748L175.644,66.707L175.598,66.665L175.553,66.623L175.508,66.58L175.464,66.536L175.42,66.492L175.377,66.447L175.335,66.402L175.293,66.356L175.252,66.31L175.211,66.264L175.171,66.217L175.132,66.169L175.093,66.121L175.055,66.073L175.018,66.024L174.981,65.975L174.945,65.925L174.909,65.875L174.874,65.825L174.84,65.774L174.773,65.672L174.709,65.567L174.648,65.462L174.589,65.355L174.533,65.246L174.479,65.137L174.429,65.026L174.381,64.914L174.335,64.8L174.293,64.686L174.253,64.571L174.216,64.454L174.182,64.337L174.151,64.219L174.122,64.1L174.109,64.04L174.097,63.98L174.085,63.92L174.074,63.86L174.064,63.799L174.055,63.738L174.046,63.678L174.038,63.617L174.031,63.555L174.024,63.494L174.019,63.433L174.014,63.371L174.01,63.31L174.006,63.248L174.003,63.186L174.002,63.124L174,63.062L174,63L174,0L193.976,0L193.976,63ZM175,62.997L175,63.05L175.001,63.099L175.003,63.149L175.005,63.198L175.008,63.248L175.011,63.297L175.015,63.346L175.025,63.444L175.037,63.542L175.044,63.591L175.051,63.639L175.06,63.688L175.068,63.736L175.078,63.784L175.087,63.832L175.097,63.877L175.121,63.975L175.146,64.07L175.173,64.163L175.203,64.256L175.234,64.349L175.268,64.44L175.305,64.531L175.343,64.621L175.384,64.709L175.426,64.797L175.471,64.884L175.518,64.97L175.568,65.054L175.619,65.137L175.674,65.222L175.7,65.26L175.728,65.301L175.756,65.341L175.785,65.38L175.814,65.42L175.844,65.459L175.875,65.497L175.906,65.536L175.937,65.574L175.969,65.611L176.002,65.649L176.035,65.685L176.068,65.722L176.102,65.758L176.171,65.829L176.242,65.898L176.278,65.932L176.389,66.031L176.426,66.063L176.464,66.094L176.503,66.125L176.541,66.156L176.58,66.186L176.62,66.215L176.659,66.244L176.699,66.272L176.778,66.326L176.863,66.381L176.946,66.432L177.03,66.482L177.116,66.529L177.203,66.574L177.291,66.616L177.379,66.657L177.469,66.695L177.56,66.732L177.651,66.766L177.744,66.797L177.837,66.827L177.931,66.854L178.025,66.879L178.123,66.903L178.168,66.913L178.216,66.922L178.264,66.932L178.312,66.94L178.361,66.949L178.409,66.956L178.458,66.963L178.556,66.975L178.654,66.985L178.703,66.989L178.752,66.992L178.802,66.995L178.851,66.997L178.901,66.999L178.95,67L189.026,67L189.075,66.999L189.125,66.997L189.174,66.995L189.224,66.992L189.273,66.989L189.322,66.985L189.371,66.98L189.42,66.975L189.469,66.969L189.518,66.963L189.567,66.956L189.615,66.949L189.664,66.94L189.712,66.932L189.76,66.922L189.808,66.913L189.853,66.903L189.951,66.879L190.045,66.854L190.139,66.827L190.232,66.797L190.325,66.766L190.416,66.732L190.507,66.695L190.597,66.657L190.685,66.616L190.773,66.574L190.86,66.529L190.946,66.482L191.03,66.432L191.113,66.381L191.198,66.326L191.236,66.3L191.277,66.272L191.317,66.244L191.356,66.215L191.396,66.186L191.435,66.156L191.473,66.125L191.512,66.094L191.55,66.063L191.587,66.031L191.624,65.998L191.661,65.965L191.698,65.932L191.734,65.898L191.77,65.863L191.805,65.829L191.839,65.794L191.874,65.758L191.908,65.722L191.941,65.685L191.974,65.649L192.007,65.611L192.039,65.574L192.07,65.536L192.101,65.497L192.132,65.459L192.162,65.42L192.191,65.38L192.22,65.341L192.248,65.301L192.276,65.26L192.302,65.222L192.357,65.137L192.408,65.054L192.458,64.97L192.505,64.884L192.55,64.797L192.592,64.709L192.633,64.621L192.671,64.531L192.708,64.44L192.742,64.349L192.773,64.256L192.803,64.163L192.83,64.069L192.855,63.975L192.879,63.877L192.888,63.832L192.898,63.784L192.908,63.736L192.916,63.688L192.925,63.639L192.932,63.591L192.939,63.542L192.945,63.493L192.951,63.444L192.956,63.395L192.961,63.346L192.965,63.297L192.968,63.248L192.971,63.198L192.973,63.149L192.975,63.099L192.976,63.05L192.976,62.997L192.976,1L175,1L175,62.997Z" style="fill:rgb(221,221,221);"/>
    <path d="M403.976,0L384,0L384,63C384,64.326 384.527,65.598 385.464,66.536C386.402,67.473 387.674,68 389,68L398.976,68C400.302,68 401.574,67.473 402.512,66.536C403.449,65.598 403.976,64.326 403.976,63L403.976,0Z" style="fill:white;"/>
    <path d="M403.976,63L403.976,63.062L403.974,63.124L403.973,63.186L403.97,63.248L403.966,63.31L403.962,63.371L403.957,63.433L403.952,63.494L403.945,63.555L403.938,63.617L403.93,63.678L403.921,63.738L403.912,63.799L403.902,63.86L403.891,63.92L403.879,63.98L403.867,64.04L403.854,64.1L403.825,64.219L403.794,64.337L403.76,64.454L403.723,64.571L403.683,64.686L403.641,64.8L403.595,64.914L403.547,65.026L403.497,65.137L403.443,65.246L403.387,65.355L403.328,65.462L403.267,65.567L403.203,65.672L403.136,65.774L403.102,65.825L403.067,65.875L403.031,65.925L402.995,65.975L402.958,66.024L402.921,66.073L402.883,66.121L402.844,66.169L402.805,66.217L402.765,66.264L402.724,66.31L402.683,66.356L402.641,66.402L402.599,66.447L402.556,66.492L402.512,66.536L402.468,66.58L402.423,66.623L402.378,66.665L402.332,66.707L402.286,66.748L402.24,66.789L402.193,66.829L402.145,66.868L402.097,66.907L402.049,66.945L402,66.982L401.951,67.019L401.901,67.055L401.851,67.091L401.801,67.126L401.75,67.16L401.648,67.227L401.543,67.291L401.438,67.352L401.331,67.411L401.222,67.467L401.113,67.521L401.002,67.571L400.889,67.619L400.776,67.665L400.662,67.707L400.547,67.747L400.43,67.784L400.313,67.818L400.195,67.849L400.076,67.878L400.016,67.891L399.956,67.903L399.896,67.915L399.836,67.926L399.775,67.936L399.714,67.945L399.654,67.954L399.593,67.962L399.531,67.969L399.47,67.976L399.409,67.981L399.347,67.986L399.286,67.99L399.224,67.994L399.162,67.997L399.1,67.998L399.038,68L398.976,68L389,68L388.938,68L388.876,67.998L388.814,67.997L388.752,67.994L388.69,67.99L388.629,67.986L388.567,67.981L388.506,67.976L388.445,67.969L388.383,67.962L388.322,67.954L388.262,67.945L388.201,67.936L388.14,67.926L388.08,67.915L388.02,67.903L387.96,67.891L387.9,67.878L387.781,67.849L387.663,67.818L387.546,67.784L387.429,67.747L387.314,67.707L387.2,67.665L387.086,67.619L386.974,67.571L386.863,67.521L386.754,67.467L386.645,67.411L386.538,67.352L386.433,67.291L386.328,67.227L386.226,67.16L386.175,67.126L386.125,67.091L386.075,67.055L386.025,67.019L385.976,66.982L385.927,66.945L385.879,66.907L385.831,66.868L385.783,66.829L385.736,66.789L385.69,66.748L385.644,66.707L385.598,66.665L385.553,66.623L385.508,66.58L385.464,66.536L385.42,66.492L385.377,66.447L385.335,66.402L385.293,66.356L385.252,66.31L385.211,66.264L385.171,66.217L385.132,66.169L385.093,66.121L385.055,66.073L385.018,66.024L384.981,65.975L384.945,65.925L384.909,65.875L384.874,65.825L384.84,65.774L384.773,65.672L384.709,65.567L384.648,65.462L384.589,65.355L384.533,65.246L384.479,65.137L384.429,65.026L384.381,64.914L384.335,64.8L384.293,64.686L384.253,64.571L384.216,64.454L384.182,64.337L384.151,64.219L384.122,64.1L384.109,64.04L384.097,63.98L384.085,63.92L384.074,63.86L384.064,63.799L384.055,63.738L384.046,63.678L384.038,63.617L384.031,63.555L384.024,63.494L384.019,63.433L384.014,63.371L384.01,63.31L384.006,63.248L384.003,63.186L384.002,63.124L384,63.062L384,63L384,0L403.976,0L403.976,63ZM385,62.997L385,63.05L385.001,63.099L385.003,63.149L385.005,63.198L385.008,63.248L385.011,63.297L385.015,63.346L385.025,63.444L385.037,63.542L385.044,63.591L385.051,63.639L385.06,63.688L385.068,63.736L385.088,63.832L385.097,63.877L385.121,63.975L385.146,64.07L385.173,64.163L385.203,64.256L385.234,64.349L385.268,64.44L385.305,64.531L385.343,64.621L385.384,64.709L385.426,64.797L385.471,64.884L385.518,64.97L385.568,65.054L385.619,65.138L385.674,65.222L385.7,65.26L385.728,65.301L385.756,65.341L385.785,65.38L385.814,65.42L385.844,65.459L385.875,65.497L385.906,65.536L385.937,65.574L385.969,65.611L386.068,65.722L386.102,65.758L386.171,65.829L386.242,65.898L386.278,65.932L386.315,65.965L386.351,65.998L386.389,66.031L386.426,66.063L386.464,66.094L386.503,66.125L386.541,66.156L386.58,66.186L386.62,66.215L386.659,66.244L386.699,66.272L386.74,66.3L386.778,66.326L386.863,66.381L386.946,66.432L387.03,66.482L387.116,66.529L387.203,66.574L387.291,66.616L387.379,66.657L387.469,66.695L387.56,66.732L387.651,66.766L387.744,66.797L387.837,66.827L387.931,66.854L388.025,66.879L388.123,66.903L388.168,66.913L388.216,66.922L388.264,66.932L388.312,66.94L388.361,66.949L388.409,66.956L388.458,66.963L388.556,66.975L388.654,66.985L388.703,66.989L388.752,66.992L388.802,66.995L388.851,66.997L388.901,66.999L388.95,67L399.026,67L399.075,66.999L399.125,66.997L399.174,66.995L399.224,66.992L399.273,66.989L399.322,66.985L399.371,66.98L399.42,66.975L399.469,66.969L399.518,66.963L399.567,66.956L399.615,66.949L399.664,66.94L399.712,66.932L399.76,66.922L399.808,66.913L399.853,66.903L399.951,66.879L400.045,66.854L400.139,66.827L400.232,66.797L400.325,66.766L400.416,66.732L400.507,66.695L400.597,66.657L400.685,66.616L400.773,66.574L400.86,66.529L400.946,66.482L401.03,66.432L401.113,66.381L401.198,66.326L401.236,66.3L401.277,66.272L401.317,66.244L401.356,66.215L401.396,66.186L401.435,66.156L401.473,66.125L401.512,66.094L401.55,66.063L401.587,66.031L401.625,65.998L401.661,65.965L401.698,65.932L401.734,65.898L401.77,65.863L401.805,65.829L401.839,65.794L401.874,65.758L401.908,65.722L401.941,65.685L401.974,65.648L402.007,65.611L402.039,65.574L402.07,65.536L402.101,65.497L402.132,65.459L402.162,65.42L402.191,65.38L402.22,65.341L402.249,65.301L402.276,65.26L402.302,65.222L402.357,65.137L402.408,65.054L402.458,64.97L402.505,64.884L402.55,64.797L402.592,64.709L402.633,64.621L402.671,64.531L402.708,64.44L402.742,64.349L402.773,64.256L402.803,64.163L402.83,64.07L402.855,63.975L402.879,63.877L402.888,63.832L402.898,63.784L402.908,63.736L402.916,63.688L402.925,63.639L402.932,63.591L402.939,63.542L402.945,63.493L402.951,63.444L402.956,63.395L402.961,63.346L402.965,63.297L402.968,63.248L402.971,63.198L402.973,63.149L402.975,63.099L402.976,63.05L402.976,62.997L402.976,1L385,1L385,62.997Z" style="fill:rgb(221,221,221);"/>
    <g transform="matrix(1,0,0,1,12.797,100.005)">
        <g transform="matrix(14,0,0,14,0,0)">
            <path d="M0.305,-0.627L0.305,-0.554L0.1,-0.073L0.3,-0.073L0.3,0L0.008,0L0.008,-0.073L0.213,-0.554L0.019,-0.554L0.019,-0.627L0.305,-0.627Z" style="fill:rgb(170,170,170);fill-rule:nonzero;"/>
        </g>
    </g>
    <g transform="matrix(1,0,0,1,23.461,60)">
        <g transform="matrix(14,0,0,14,0,0)">
            <path d="M0.232,-0.102L0.232,-0.255C0.232,-0.267 0.23,-0.275 0.227,-0.279C0.223,-0.282 0.215,-0.284 0.203,-0.284L0.129,-0.284C0.068,-0.284 0.038,-0.314 0.038,-0.373L0.038,-0.538C0.038,-0.597 0.069,-0.626 0.131,-0.626L0.229,-0.626C0.291,-0.626 0.322,-0.597 0.322,-0.538L0.322,-0.446L0.231,-0.446L0.231,-0.524C0.231,-0.536 0.229,-0.544 0.225,-0.548C0.221,-0.551 0.213,-0.553 0.201,-0.553L0.159,-0.553C0.147,-0.553 0.139,-0.551 0.135,-0.548C0.131,-0.544 0.129,-0.536 0.129,-0.524L0.129,-0.385C0.129,-0.373 0.131,-0.365 0.135,-0.362C0.139,-0.358 0.147,-0.356 0.159,-0.356L0.232,-0.356C0.293,-0.356 0.324,-0.327 0.324,-0.268L0.324,-0.088C0.324,-0.029 0.293,0 0.23,0L0.133,0C0.071,0 0.04,-0.029 0.04,-0.088L0.04,-0.18L0.131,-0.18L0.131,-0.102C0.131,-0.09 0.133,-0.082 0.137,-0.079C0.141,-0.075 0.149,-0.073 0.161,-0.073L0.203,-0.073C0.215,-0.073 0.223,-0.075 0.227,-0.079C0.23,-0.082 0.232,-0.09 0.232,-0.102Z" style="fill:rgb(170,170,170);fill-rule:nonzero;"/>
        </g>
    </g>
    <g transform="matrix(1,0,0,1,233.692,60)">
        <g transform="matrix(14,0,0,14,0,0)">
            <path d="M0.115,-0.524L0.115,-0.422L0.025,-0.422L0.025,-0.538C0.025,-0.597 0.056,-0.626 0.118,-0.626L0.204,-0.626C0.267,-0.626 0.298,-0.597 0.298,-0.538L0.298,-0.475C0.298,-0.428 0.286,-0.383 0.263,-0.338L0.128,-0.073L0.302,-0.073L0.302,0L0.026,0L0.026,-0.07L0.179,-0.358C0.198,-0.393 0.207,-0.433 0.207,-0.478L0.207,-0.524C0.207,-0.536 0.205,-0.544 0.202,-0.548C0.198,-0.551 0.19,-0.553 0.177,-0.553L0.145,-0.553C0.133,-0.553 0.125,-0.551 0.121,-0.548C0.117,-0.544 0.115,-0.536 0.115,-0.524Z" style="fill:rgb(170,170,170);fill-rule:nonzero;"/>
        </g>
    </g>
    <g transform="matrix(1,0,0,1,191.376,100.005)">
        <g transform="matrix(14,0,0,14,0,0)">
            <path d="M0.131,0L0.052,0L0.052,-0.626L0.151,-0.626L0.258,-0.238L0.365,-0.626L0.464,-0.626L0.464,0L0.385,0L0.385,-0.458L0.299,-0.136L0.217,-0.136L0.131,-0.457L0.131,0Z" style="fill:rgb(170,170,170);fill-rule:nonzero;"/>
        </g>
    </g>
    <g transform="matrix(1,0,0,1,102.44,100.005)">
        <g transform="matrix(14,0,0,14,0,0)">
            <path d="M0.266,-0.626L0.359,-0.626L0.246,0L0.118,0L0.005,-0.626L0.098,-0.626L0.181,-0.083L0.266,-0.626Z" style="fill:rgb(170,170,170);fill-rule:nonzero;"/>
        </g>
    </g>
    <g transform="matrix(1,0,0,1,113.314,60.005)">
        <g transform="matrix(14,0,0,14,0,0)">
            <path d="M0.34,-0.443L0.249,-0.443L0.249,-0.526C0.249,-0.538 0.247,-0.546 0.243,-0.55C0.239,-0.553 0.231,-0.555 0.219,-0.555L0.168,-0.555C0.156,-0.555 0.148,-0.553 0.144,-0.55C0.14,-0.546 0.138,-0.538 0.138,-0.526L0.138,-0.099C0.138,-0.087 0.14,-0.079 0.144,-0.076C0.148,-0.072 0.156,-0.07 0.168,-0.07L0.219,-0.07C0.231,-0.07 0.239,-0.072 0.243,-0.076C0.247,-0.079 0.249,-0.087 0.249,-0.099L0.249,-0.252L0.199,-0.252L0.199,-0.322L0.34,-0.322L0.34,-0.088C0.34,-0.029 0.309,0.001 0.247,0.001L0.14,0.001C0.078,0.001 0.047,-0.029 0.047,-0.088L0.047,-0.538C0.047,-0.597 0.078,-0.626 0.14,-0.626L0.247,-0.626C0.309,-0.626 0.34,-0.597 0.34,-0.538L0.34,-0.443Z" style="fill:rgb(170,170,170);fill-rule:nonzero;"/>
        </g>
    </g>
    <g transform="matrix(1,0,0,1,323.482,60.005)">
        <g transform="matrix(14,0,0,14,0,0)">
            <path d="M0.132,-0.391L0.229,-0.391C0.292,-0.391 0.323,-0.362 0.323,-0.303L0.323,-0.088C0.323,-0.029 0.292,0 0.229,0L0.133,0C0.071,0 0.04,-0.029 0.04,-0.088L0.04,-0.199L0.131,-0.199L0.131,-0.102C0.131,-0.09 0.133,-0.082 0.137,-0.079C0.141,-0.075 0.149,-0.073 0.161,-0.073L0.202,-0.073C0.214,-0.073 0.222,-0.075 0.226,-0.079C0.23,-0.082 0.232,-0.09 0.232,-0.102L0.232,-0.289C0.232,-0.301 0.23,-0.309 0.226,-0.313C0.222,-0.317 0.214,-0.319 0.202,-0.319L0.042,-0.319L0.042,-0.626L0.321,-0.626L0.321,-0.553L0.132,-0.553L0.132,-0.391Z" style="fill:rgb(170,170,170);fill-rule:nonzero;"/>
        </g>
    </g>
    <g transform="matrix(1,0,0,1,282.587,100.005)">
        <g transform="matrix(14,0,0,14,0,0)">
            <path d="M0.143,-0.073L0.324,-0.073L0.324,0L0.052,0L0.052,-0.626L0.317,-0.626L0.317,-0.553L0.143,-0.553L0.143,-0.36L0.287,-0.36L0.287,-0.287L0.143,-0.287L0.143,-0.073Z" style="fill:rgb(170,170,170);fill-rule:nonzero;"/>
        </g>
    </g>
    <g transform="matrix(1,0,0,1,42.353,100.005)">
        <g transform="matrix(14,0,0,14,0,0)">
            <path d="M0.235,-0.32L0.369,0L0.269,0L0.185,-0.238L0.101,0L0.004,0L0.136,-0.32L0.013,-0.626L0.113,-0.626L0.185,-0.401L0.258,-0.626L0.356,-0.626L0.235,-0.32Z" style="fill:rgb(170,170,170);fill-rule:nonzero;"/>
        </g>
    </g>
    <g transform="matrix(1,0,0,1,61.104,60)">
        <g transform="matrix(14,0,0,14,0,0)">
            <path d="M0.054,-0.626L0.272,-0.626C0.334,-0.626 0.365,-0.597 0.365,-0.538L0.365,-0.088C0.365,-0.029 0.334,0 0.272,0L0.054,0L0.054,-0.626ZM0.274,-0.1L0.274,-0.526C0.274,-0.538 0.272,-0.546 0.268,-0.55C0.264,-0.553 0.256,-0.555 0.244,-0.555L0.145,-0.555L0.145,-0.071L0.244,-0.071C0.256,-0.071 0.264,-0.073 0.268,-0.077C0.272,-0.08 0.274,-0.088 0.274,-0.1Z" style="fill:rgb(170,170,170);fill-rule:nonzero;"/>
        </g>
    </g>
    <g transform="matrix(1,0,0,1,271.503,60)">
        <g transform="matrix(14,0,0,14,0,0)">
            <path d="M0.119,-0.524L0.119,-0.43L0.029,-0.43L0.029,-0.538C0.029,-0.597 0.06,-0.626 0.122,-0.626L0.214,-0.626C0.277,-0.626 0.308,-0.597 0.308,-0.538L0.308,-0.38C0.308,-0.345 0.295,-0.324 0.268,-0.318C0.295,-0.312 0.308,-0.293 0.308,-0.26L0.308,-0.088C0.308,-0.029 0.277,0 0.214,0L0.122,0C0.06,0 0.029,-0.029 0.029,-0.088L0.029,-0.195L0.119,-0.195L0.119,-0.102C0.119,-0.09 0.121,-0.082 0.125,-0.079C0.129,-0.075 0.137,-0.073 0.149,-0.073L0.188,-0.073C0.2,-0.073 0.208,-0.075 0.212,-0.079C0.216,-0.082 0.218,-0.09 0.218,-0.102L0.218,-0.252C0.218,-0.264 0.216,-0.272 0.212,-0.276C0.208,-0.279 0.2,-0.281 0.188,-0.281L0.113,-0.281L0.113,-0.353L0.188,-0.353C0.2,-0.353 0.208,-0.355 0.212,-0.359C0.216,-0.362 0.218,-0.37 0.218,-0.382L0.218,-0.524C0.218,-0.536 0.216,-0.544 0.212,-0.548C0.208,-0.551 0.2,-0.553 0.188,-0.553L0.149,-0.553C0.137,-0.553 0.129,-0.551 0.125,-0.548C0.121,-0.544 0.119,-0.536 0.119,-0.524Z" style="fill:rgb(170,170,170);fill-rule:nonzero;"/>
        </g>
    </g>
    <g transform="matrix(1,0,0,1,222.213,100.005)">
        <g transform="matrix(14,0,0,14,0,0)">
            <path d="M0.141,0C0.078,0 0.047,-0.029 0.047,-0.088L0.047,-0.538C0.047,-0.597 0.078,-0.626 0.141,-0.626L0.252,-0.626C0.314,-0.626 0.345,-0.597 0.345,-0.538L0.345,-0.088C0.345,-0.043 0.326,-0.015 0.289,-0.004L0.36,0.091L0.264,0.091L0.198,0L0.141,0ZM0.138,-0.524L0.138,-0.102C0.138,-0.09 0.14,-0.082 0.144,-0.079C0.147,-0.075 0.155,-0.073 0.167,-0.073L0.225,-0.073C0.237,-0.073 0.245,-0.075 0.249,-0.079C0.253,-0.082 0.255,-0.09 0.255,-0.102L0.255,-0.524C0.255,-0.536 0.253,-0.544 0.249,-0.548C0.245,-0.551 0.237,-0.553 0.225,-0.553L0.167,-0.553C0.155,-0.553 0.147,-0.551 0.144,-0.548C0.14,-0.544 0.138,-0.536 0.138,-0.524Z" style="fill:rgb(170,170,170);fill-rule:nonzero;"/>
        </g>
    </g>
    <g transform="matrix(1,0,0,1,132.101,100.005)">
        <g transform="matrix(14,0,0,14,0,0)">
            <path d="M0.272,-0.383L0.272,-0.526C0.272,-0.538 0.27,-0.546 0.266,-0.55C0.262,-0.553 0.254,-0.555 0.242,-0.555L0.142,-0.555L0.142,-0.354L0.242,-0.354C0.254,-0.354 0.262,-0.356 0.266,-0.36C0.27,-0.363 0.272,-0.371 0.272,-0.383ZM0.272,-0.1L0.272,-0.254C0.272,-0.266 0.27,-0.274 0.266,-0.278C0.262,-0.281 0.254,-0.283 0.242,-0.283L0.142,-0.283L0.142,-0.071L0.242,-0.071C0.254,-0.071 0.262,-0.073 0.266,-0.077C0.27,-0.08 0.272,-0.088 0.272,-0.1ZM0.052,-0.626L0.269,-0.626C0.332,-0.626 0.363,-0.597 0.363,-0.538L0.363,-0.379C0.363,-0.344 0.35,-0.323 0.323,-0.317C0.35,-0.31 0.363,-0.291 0.363,-0.259L0.363,-0.088C0.363,-0.029 0.332,0 0.269,0L0.052,0L0.052,-0.626Z" style="fill:rgb(170,170,170);fill-rule:nonzero;"/>
        </g>
    </g>
    <g transform="matrix(1,0,0,1,147.027,60.005)">
        <g transform="matrix(14,0,0,14,0,0)">
            <path d="M0.275,-0.626L0.365,-0.626L0.365,0L0.275,0L0.275,-0.275L0.142,-0.275L0.142,0L0.052,0L0.052,-0.626L0.142,-0.626L0.142,-0.348L0.275,-0.348L0.275,-0.626Z" style="fill:rgb(170,170,170);fill-rule:nonzero;"/>
        </g>
    </g>
    <g transform="matrix(1,0,0,1,357.272,60.005)">
        <g transform="matrix(14,0,0,14,0,0)">
            <path d="M0.137,-0.36L0.247,-0.36C0.309,-0.36 0.34,-0.33 0.34,-0.271L0.34,-0.088C0.34,-0.029 0.309,0 0.247,0L0.141,0C0.078,0 0.047,-0.029 0.047,-0.088L0.047,-0.538C0.047,-0.597 0.078,-0.626 0.141,-0.626L0.244,-0.626C0.306,-0.626 0.337,-0.597 0.337,-0.538L0.337,-0.43L0.248,-0.43L0.248,-0.524C0.248,-0.536 0.246,-0.544 0.242,-0.548C0.238,-0.551 0.23,-0.553 0.218,-0.553L0.167,-0.553C0.155,-0.553 0.147,-0.551 0.143,-0.548C0.139,-0.544 0.137,-0.536 0.137,-0.524L0.137,-0.36ZM0.25,-0.102L0.25,-0.259C0.25,-0.27 0.248,-0.278 0.244,-0.282C0.24,-0.286 0.232,-0.288 0.22,-0.288L0.137,-0.288L0.137,-0.102C0.137,-0.09 0.139,-0.082 0.143,-0.079C0.147,-0.075 0.155,-0.073 0.167,-0.073L0.22,-0.073C0.232,-0.073 0.24,-0.075 0.244,-0.079C0.248,-0.082 0.25,-0.09 0.25,-0.102Z" style="fill:rgb(170,170,170);fill-rule:nonzero;"/>
        </g>
    </g>
    <g transform="matrix(1,0,0,1,312.079,100.005)">
        <g transform="matrix(14,0,0,14,0,0)">
            <path d="M0.142,-0.253L0.142,0L0.052,0L0.052,-0.626L0.257,-0.626C0.319,-0.626 0.35,-0.597 0.35,-0.538L0.35,-0.342C0.35,-0.291 0.328,-0.262 0.283,-0.255L0.382,0L0.285,0L0.191,-0.253L0.142,-0.253ZM0.142,-0.553L0.142,-0.325L0.23,-0.325C0.242,-0.325 0.25,-0.327 0.254,-0.331C0.258,-0.334 0.26,-0.342 0.26,-0.354L0.26,-0.524C0.26,-0.536 0.258,-0.544 0.254,-0.548C0.25,-0.551 0.242,-0.553 0.23,-0.553L0.142,-0.553Z" style="fill:rgb(170,170,170);fill-rule:nonzero;"/>
        </g>
    </g>
    <g transform="matrix(1,0,0,1,372.419,100.005)">
        <g transform="matrix(14,0,0,14,0,0)">
            <path d="M0.229,0L0.138,0L0.138,-0.198L0.004,-0.626L0.096,-0.626L0.183,-0.281L0.265,-0.626L0.357,-0.626L0.229,-0.198L0.229,0Z" style="fill:rgb(170,170,170);fill-rule:nonzero;"/>
        </g>
    </g>
    <g transform="matrix(1,0,0,1,72.231,100.005)">
        <g transform="matrix(14,0,0,14,0,0)">
            <path d="M0.34,-0.43L0.248,-0.43L0.248,-0.526C0.248,-0.538 0.246,-0.546 0.243,-0.55C0.239,-0.553 0.231,-0.555 0.219,-0.555L0.168,-0.555C0.156,-0.555 0.148,-0.553 0.144,-0.55C0.14,-0.546 0.138,-0.538 0.138,-0.526L0.138,-0.099C0.138,-0.087 0.14,-0.079 0.144,-0.076C0.148,-0.072 0.156,-0.07 0.168,-0.07L0.219,-0.07C0.231,-0.07 0.239,-0.072 0.243,-0.076C0.246,-0.079 0.248,-0.087 0.248,-0.099L0.248,-0.194L0.34,-0.194L0.34,-0.088C0.34,-0.029 0.309,0.001 0.246,0.001L0.14,0.001C0.078,0.001 0.047,-0.029 0.047,-0.088L0.047,-0.538C0.047,-0.597 0.078,-0.626 0.14,-0.626L0.246,-0.626C0.309,-0.626 0.34,-0.597 0.34,-0.538L0.34,-0.43Z" style="fill:rgb(170,170,170);fill-rule:nonzero;"/>
        </g>
    </g>
    <g transform="matrix(1,0,0,1,250.608,100.005)">
        <g transform="matrix(14,0,0,14,0,0)">
            <path d="M0.508,-0.626L0.599,-0.626L0.499,0L0.374,0L0.304,-0.47L0.235,0L0.11,0L0.01,-0.626L0.103,-0.626L0.173,-0.082L0.254,-0.626L0.354,-0.626L0.435,-0.082L0.508,-0.626Z" style="fill:rgb(170,170,170);fill-rule:nonzero;"/>
        </g>
    </g>
    <g transform="matrix(1,0,0,1,162,100.005)">
        <g transform="matrix(14,0,0,14,0,0)">
            <path d="M0.275,-0.626L0.358,-0.626L0.358,0L0.267,0L0.135,-0.452L0.135,0L0.052,0L0.052,-0.626L0.147,-0.626L0.275,-0.187L0.275,-0.626Z" style="fill:rgb(170,170,170);fill-rule:nonzero;"/>
        </g>
    </g>
    <g transform="matrix(1,0,0,1,181.65,60.005)">
        <g transform="matrix(14,0,0,14,0,0)">
            <path d="M0.014,-0.206L0.105,-0.206L0.105,-0.102C0.105,-0.09 0.107,-0.082 0.111,-0.079C0.115,-0.075 0.123,-0.073 0.135,-0.073L0.164,-0.073C0.176,-0.073 0.184,-0.075 0.188,-0.079C0.192,-0.082 0.194,-0.09 0.194,-0.102L0.194,-0.626L0.285,-0.626L0.285,-0.088C0.285,-0.029 0.254,0 0.192,0L0.107,0C0.045,0 0.014,-0.029 0.014,-0.088L0.014,-0.206Z" style="fill:rgb(170,170,170);fill-rule:nonzero;"/>
        </g>
    </g>
    <g transform="matrix(1,0,0,1,391.951,60.005)">
        <g transform="matrix(14,0,0,14,0,0)">
            <path d="M0.286,-0.626L0.286,-0.57L0.118,0L0.026,0L0.189,-0.551L0.006,-0.551L0.006,-0.626L0.286,-0.626Z" style="fill:rgb(170,170,170);fill-rule:nonzero;"/>
        </g>
    </g>
    <g transform="matrix(1,0,0,1,342.818,100.005)">
        <g transform="matrix(14,0,0,14,0,0)">
            <path d="M0.305,-0.626L0.305,-0.553L0.2,-0.553L0.2,0L0.11,0L0.11,-0.553L0.005,-0.553L0.005,-0.626L0.305,-0.626Z" style="fill:rgb(170,170,170);fill-rule:nonzero;"/>
        </g>
    </g>
    <g transform="matrix(1,0,0,1,402.209,100.005)">
        <g transform="matrix(14,0,0,14,0,0)">
            <path d="M0.257,-0.626L0.348,-0.626L0.348,-0.088C0.348,-0.029 0.317,0 0.254,0L0.143,0C0.08,0 0.049,-0.029 0.049,-0.088L0.049,-0.626L0.14,-0.626L0.14,-0.102C0.14,-0.09 0.142,-0.082 0.146,-0.079C0.15,-0.075 0.158,-0.073 0.17,-0.073L0.227,-0.073C0.24,-0.073 0.248,-0.075 0.252,-0.079C0.255,-0.082 0.257,-0.09 0.257,-0.102L0.257,-0.626Z" style="fill:rgb(170,170,170);fill-rule:nonzero;"/>
        </g>
    </g>
</svg>
